<svg width="60" height="63" viewBox="0 0 60 63" fill="none" xmlns="http://www.w3.org/2000/svg">
<path d="M57.8566 0H22.4314C21.7178 0 21.1395 0.57832 21.1395 1.29199V4.18359H18.2479C17.5342 4.18359 16.9559 4.76191 16.9559 5.47559V16.8082L3.4084 23.5758C2.67012 23.9449 2.21484 24.6832 2.21484 25.5076V32.6074C2.21484 35.0191 2.49785 37.1725 3.03926 39.1166C1.18125 40.7162 0 43.0787 0 45.7242C0 50.5354 3.91289 54.4359 8.71172 54.4359C9.85606 54.4359 10.9389 54.2145 11.9355 53.8084V58.7549C11.9355 59.3086 12.2555 59.8008 12.76 60.0223C13.2645 60.2437 13.8551 60.1453 14.2611 59.7762L17.6449 56.7123L21.0287 59.7762C21.2871 60.01 21.6193 60.133 21.9639 60.133C22.1607 60.133 22.3453 60.0961 22.5299 60.01C23.0344 59.7885 23.3543 59.284 23.3543 58.7426V51.4705H29.5805H53.673C54.3867 51.4705 54.965 50.8922 54.965 50.1785V47.2869H57.8566C58.5703 47.2869 59.1486 46.7086 59.1486 45.9949V1.29199C59.1486 0.57832 58.5703 0 57.8566 0ZM8.72402 52.5902C4.93418 52.5902 1.85801 49.5018 1.85801 45.7242C1.85801 41.9344 4.94648 38.8582 8.72402 38.8582C12.5016 38.8582 15.59 41.9467 15.59 45.7242C15.59 49.5018 12.5139 52.5902 8.72402 52.5902ZM21.5332 57.7336L18.6047 55.0881C18.0756 54.6082 17.2758 54.6082 16.7344 55.0881L13.8059 57.7336V52.7871C16.0084 51.1998 17.448 48.6158 17.448 45.7119C17.448 44.9121 17.3373 44.1492 17.1404 43.4109C17.3127 43.4232 17.4973 43.4232 17.6695 43.4232C19.0477 43.4232 20.352 43.1279 21.5332 42.5988V57.7336ZM17.6695 41.5898C17.2143 41.5898 16.7713 41.5529 16.3406 41.4668C15.1717 39.3873 13.1783 37.8246 10.8035 37.2463C10.3236 36.2496 10.0652 35.1422 10.0652 33.9732C10.0652 29.7773 13.4736 26.3689 17.6695 26.3689C18.8385 26.3689 19.9705 26.6396 21.0164 27.1441C21.6193 27.4518 22.5299 28.0055 23.3789 28.9775C24.0187 29.7035 24.4125 30.4172 24.6586 30.9709C25.077 31.9184 25.2861 32.9273 25.2861 33.9855C25.2738 38.1691 21.8654 41.5898 17.6695 41.5898ZM23.3789 48.8004V41.516C25.6553 39.7934 27.1195 37.0617 27.1195 33.9855C27.1195 32.7674 26.8857 31.5615 26.4305 30.4418C26.4305 30.4418 26.4305 30.4295 26.4182 30.4295C26.3074 30.1465 26.1844 29.8758 26.0367 29.6174C25.9998 29.5436 25.9629 29.4943 25.9137 29.4328C25.643 28.9529 25.2861 28.4361 24.8432 27.9193C24.2156 27.1811 23.5635 26.6273 22.9852 26.209C22.9359 26.1598 22.8867 26.1105 22.8252 26.0736C22.6283 25.9383 22.4191 25.8152 22.21 25.7045C20.8195 24.9293 19.2568 24.5355 17.6449 24.5355C12.4277 24.5355 8.19492 28.7807 8.19492 33.9855C8.19492 35.0438 8.36719 36.0527 8.68711 37.0002C7.22285 37.0002 5.85703 37.3693 4.63887 38.0092C4.23281 36.348 4.03594 34.5639 4.03594 32.6074V25.5076C4.03594 25.3846 4.09746 25.2861 4.2082 25.2369L17.6449 18.5186L31.1062 25.2246C31.217 25.2738 31.2785 25.3846 31.2785 25.4953V32.6074C31.2785 37.4678 30.0727 41.3068 27.4641 44.6906C26.3689 46.1057 25.0523 47.4346 23.3789 48.8004ZM53.1193 49.6371H30.3187H25.2246C27.1811 47.9637 28.8176 46.1672 30.0727 44.1369H46.2533C46.7578 44.1369 47.1762 43.7186 47.1762 43.2141C47.1762 42.7096 46.7578 42.2912 46.2533 42.2912H31.0939C31.4631 41.5283 31.7707 40.7408 32.0414 39.9164H35.1176C35.6221 39.9164 36.0404 39.498 36.0404 38.9936C36.0404 38.4891 35.6221 38.0707 35.1176 38.0707H32.5459C32.7182 37.3078 32.8535 36.5203 32.9396 35.6959H46.2533C46.7578 35.6959 47.1762 35.2775 47.1762 34.773C47.1762 34.2686 46.7578 33.8502 46.2533 33.8502H33.0873C33.0996 33.4318 33.1119 33.0135 33.1119 32.5951V31.4877H46.2533C46.7578 31.4877 47.1762 31.0693 47.1762 30.5648C47.1762 30.0604 46.7578 29.642 46.2533 29.642H33.1242V27.2672H37.8246C38.3291 27.2672 38.7475 26.8488 38.7475 26.3443C38.7475 25.8398 38.3291 25.4215 37.8246 25.4215H33.1119C33.0873 24.634 32.632 23.9203 31.9184 23.5758L30.8725 23.059H46.241C46.7455 23.059 47.1639 22.6406 47.1639 22.1361C47.1639 21.6316 46.7455 21.2133 46.241 21.2133H27.1934L18.8016 17.0174V6.0293H53.1193V17.2266V17.5957V49.6371ZM57.3029 45.4535H54.965V17.5957V17.2266V5.47559C54.965 4.76191 54.3867 4.18359 53.673 4.18359H22.9852V1.8457H57.3029V45.4535Z" fill="#EDAA20"/>
<path d="M46.2533 16.9927H25.6676C25.1631 16.9927 24.7447 17.411 24.7447 17.9155C24.7447 18.42 25.1631 18.8384 25.6676 18.8384H46.2533C46.7578 18.8384 47.1762 18.42 47.1762 17.9155C47.1762 17.411 46.7701 16.9927 46.2533 16.9927Z" fill="#EDAA20"/>
<path d="M46.2533 25.4338H41.2699C40.7654 25.4338 40.3471 25.8522 40.3471 26.3567C40.3471 26.8612 40.7654 27.2795 41.2699 27.2795H46.2533C46.7578 27.2795 47.1762 26.8612 47.1762 26.3567C47.1762 25.8399 46.7701 25.4338 46.2533 25.4338Z" fill="#EDAA20"/>
<path d="M46.2533 38.083H38.4398C37.9354 38.083 37.517 38.5014 37.517 39.0059C37.517 39.5104 37.9354 39.9287 38.4398 39.9287H46.2533C46.7578 39.9287 47.1762 39.5104 47.1762 39.0059C47.1762 38.4891 46.7701 38.083 46.2533 38.083Z" fill="#EDAA20"/>
<path d="M29.642 12.7476H42.2912C42.7957 12.7476 43.2141 12.3292 43.2141 11.8247C43.2141 11.3202 42.7957 10.9019 42.2912 10.9019H29.642C29.1375 10.9019 28.7191 11.3202 28.7191 11.8247C28.7191 12.3292 29.1252 12.7476 29.642 12.7476Z" fill="#EDAA20"/>
<path d="M20.5119 31.8323L17.2266 35.1176L15.0732 32.9766C14.7164 32.6198 14.1258 32.6198 13.7689 32.9766C13.4121 33.3334 13.4121 33.9241 13.7689 34.2809L16.5744 37.0864C16.759 37.2709 16.9928 37.3571 17.2266 37.3571C17.4604 37.3571 17.6941 37.2709 17.8787 37.0864L21.8162 33.1489C22.173 32.792 22.173 32.2014 21.8162 31.8446C21.4594 31.4754 20.8811 31.4754 20.5119 31.8323Z" fill="#EDAA20"/>
<path d="M34.6008 55.7772L32.7059 55.5065L31.8568 53.7962C31.623 53.3163 31.1432 53.021 30.6141 53.021C30.085 53.021 29.6051 53.3163 29.3713 53.7962L28.5223 55.5065L26.6273 55.7772C26.0982 55.8511 25.6676 56.2202 25.5076 56.7247C25.3477 57.2292 25.483 57.7829 25.8645 58.1521L27.2303 59.481L26.9104 61.3636C26.8242 61.8927 27.0334 62.4095 27.4641 62.7294C27.7102 62.9017 27.9932 63.0001 28.2762 63.0001C28.4977 63.0001 28.7191 62.9509 28.9283 62.8401L30.6141 61.9542L32.2998 62.8401C32.7674 63.0862 33.3334 63.0493 33.7641 62.7294C34.1947 62.4218 34.4039 61.8927 34.3178 61.3636L33.9979 59.481L35.3637 58.1521C35.7451 57.7829 35.8805 57.2292 35.7205 56.7247C35.5605 56.2202 35.1299 55.8634 34.6008 55.7772ZM32.5459 58.3366C32.2137 58.6565 32.066 59.1118 32.1398 59.5671L32.349 60.7729L31.2662 60.2069C31.0693 60.0962 30.8355 60.047 30.6141 60.047C30.3926 60.047 30.1711 60.0962 29.9619 60.2069L28.8791 60.7729L29.0883 59.5671C29.1621 59.1118 29.0145 58.6565 28.6822 58.3366L27.7963 57.4753L29.0145 57.303C29.4697 57.2415 29.8635 56.9585 30.0604 56.5401L30.6018 55.4327L31.1432 56.5401C31.34 56.9462 31.7338 57.2415 32.1891 57.303L33.4072 57.4753L32.5459 58.3366Z" fill="#EDAA20"/>
<path d="M46.0195 55.7772L44.1246 55.5065L43.2756 53.7962C43.0418 53.3163 42.5619 53.021 42.0328 53.021C41.5037 53.021 41.0238 53.3163 40.79 53.7962L39.941 55.5065L38.0461 55.7772C37.517 55.8511 37.0863 56.2202 36.9264 56.7247C36.7664 57.2292 36.9018 57.7829 37.2832 58.1521L38.649 59.481L38.3291 61.3636C38.243 61.8927 38.4522 62.4095 38.8828 62.7294C39.3135 63.037 39.8795 63.0862 40.3471 62.8401L42.0328 61.9542L43.7186 62.8401C43.9277 62.9509 44.1492 63.0001 44.3707 63.0001C44.6537 63.0001 44.949 62.914 45.1828 62.7294C45.6135 62.4218 45.8227 61.8927 45.7365 61.3636L45.4166 59.481L46.7824 58.1521C47.1639 57.7829 47.2992 57.2292 47.1393 56.7247C46.9793 56.2202 46.5486 55.8634 46.0195 55.7772ZM43.9647 58.3366C43.6324 58.6565 43.4848 59.1118 43.5586 59.5671L43.7678 60.7729L42.685 60.2069C42.4881 60.0962 42.2543 60.047 42.0328 60.047C41.8113 60.047 41.5898 60.0962 41.3807 60.2069L40.2979 60.7729L40.507 59.5671C40.5809 59.1118 40.4332 58.6565 40.101 58.3366L39.215 57.4753L40.4332 57.303C40.8885 57.2415 41.2822 56.9585 41.4791 56.5401L42.0205 55.4327L42.5619 56.5401C42.7588 56.9462 43.1525 57.2415 43.6078 57.303L44.826 57.4753L43.9647 58.3366Z" fill="#EDAA20"/>
<path d="M57.4383 55.7772L55.5434 55.5065L54.6943 53.7962C54.4605 53.3163 53.9807 53.021 53.4516 53.021C52.9225 53.021 52.4426 53.3163 52.2088 53.7962L51.3598 55.5065L49.4648 55.7772C48.9357 55.8511 48.5051 56.2202 48.3451 56.7247C48.1852 57.2292 48.3205 57.7829 48.702 58.1521L50.0678 59.481L49.7479 61.3636C49.6617 61.8927 49.8709 62.4095 50.3016 62.7294C50.5477 62.9017 50.8307 63.0001 51.1137 63.0001C51.3352 63.0001 51.5566 62.9509 51.7658 62.8401L53.4516 61.9542L55.1373 62.8401C55.6049 63.0862 56.1709 63.0493 56.6016 62.7294C57.0322 62.4218 57.2414 61.8927 57.1553 61.3636L56.8354 59.481L58.2012 58.1521C58.5826 57.7829 58.718 57.2292 58.558 56.7247C58.398 56.2202 57.9674 55.8634 57.4383 55.7772ZM55.3834 58.3366C55.0512 58.6565 54.9035 59.1118 54.9773 59.5671L55.1865 60.7729L54.1037 60.2069C53.9068 60.0962 53.673 60.047 53.4516 60.047C53.2301 60.047 53.0086 60.0962 52.7994 60.2069L51.7166 60.7729L51.9258 59.5671C51.9996 59.1118 51.852 58.6565 51.5197 58.3366L50.6338 57.4753L51.852 57.303C52.3072 57.2415 52.701 56.9585 52.8979 56.5401L53.4393 55.4327L53.9807 56.5401C54.1775 56.9462 54.5713 57.2415 55.0266 57.303L56.2447 57.4753L55.3834 58.3366Z" fill="#EDAA20"/>
<path d="M12.3293 43.6202L10.6805 43.3741L9.94219 41.8729C9.7084 41.4053 9.25312 41.1223 8.73633 41.1223C8.21953 41.1223 7.76426 41.4053 7.53047 41.8729L6.79219 43.3741L5.14336 43.6202C4.63887 43.694 4.22051 44.0508 4.06055 44.5307C3.90059 45.0229 4.03594 45.552 4.40508 45.9088L5.59863 47.0778L5.30332 48.7266C5.21719 49.2311 5.42637 49.7356 5.83242 50.0432C6.06621 50.2155 6.34922 50.3016 6.61992 50.3016C6.8291 50.3016 7.05059 50.2524 7.24746 50.1416L8.72402 49.3665L10.2006 50.1416C10.6559 50.3877 11.1973 50.3385 11.6156 50.0432C12.034 49.7356 12.2432 49.2311 12.1447 48.7266L11.8617 47.0778L13.0553 45.9088C13.4244 45.552 13.5598 45.0229 13.3998 44.5307C13.2521 44.0508 12.8338 43.694 12.3293 43.6202ZM10.3975 45.9457C10.0775 46.2534 9.92988 46.6963 10.016 47.1393L10.176 48.0375L9.36387 47.6069C8.97012 47.3977 8.50254 47.3977 8.10879 47.6069L7.29668 48.0375L7.45664 47.1393C7.53047 46.7086 7.38281 46.2534 7.0752 45.9457L6.42305 45.3059L7.33359 45.1706C7.77656 45.109 8.1457 44.826 8.34258 44.4323L8.74863 43.6079L9.15469 44.4323C9.35156 44.826 9.73301 45.109 10.1637 45.1706L11.0742 45.3059L10.3975 45.9457Z" fill="#EDAA20"/>
</svg>
