<svg width="50" height="50" viewBox="0 0 50 50" fill="none" xmlns="http://www.w3.org/2000/svg">
<g clip-path="url(#clip0_25_5250)">
<path d="M48.3993 35.877H42.6594V16.8556C42.6594 15.9716 41.9435 15.2557 41.0595 15.2557C40.1756 15.2557 39.4588 15.9716 39.4588 16.8556V37.7923C39.4588 38.6893 38.5658 39.4472 37.5033 39.4602C37.4941 39.46 37.4852 39.4589 37.4759 39.4589C37.4585 39.4589 37.4416 39.4609 37.4243 39.4615H31.2901C31.2728 39.4609 31.256 39.4589 31.2385 39.4589C31.221 39.4589 31.2042 39.4609 31.187 39.4615H25.0509C25.0336 39.4609 25.0168 39.4589 24.9995 39.4589C24.9821 39.4589 24.9653 39.4609 24.948 39.4615H18.8128C18.7955 39.4609 18.7787 39.4589 18.7613 39.4589C18.7439 39.4589 18.7271 39.4609 18.7098 39.4615H12.5746C12.5573 39.4609 12.5405 39.4589 12.5231 39.4589C12.5138 39.4589 12.5049 39.4601 12.4957 39.4602C11.4323 39.4472 10.5402 38.6893 10.5402 37.7923V12.2112C10.5402 11.3064 11.4485 10.542 12.5231 10.542H37.4759C38.5506 10.542 39.4588 11.3064 39.4588 12.2112V12.525C39.4588 13.4089 40.1755 14.1248 41.0595 14.1248H48.3993C49.2832 14.1248 50 13.4089 50 12.525C50 11.641 49.2833 10.9251 48.3993 10.9251H42.4756C42.0144 9.34563 40.7255 8.0853 39.0766 7.58101V2.50112C39.0766 1.61715 38.3599 0.901245 37.4758 0.901245C36.5918 0.901245 35.8759 1.61715 35.8759 2.50112V7.34225H32.8383V2.50112C32.8383 1.61715 32.1224 0.901245 31.2384 0.901245C30.3544 0.901245 29.6377 1.61715 29.6377 2.50112V7.34225H26.5991V2.50112C26.5991 1.61715 25.8825 0.901245 24.9993 0.901245C24.1161 0.901245 23.3994 1.61715 23.3994 2.50112V7.34225H20.3609V2.50112C20.3609 1.61715 19.6442 0.901245 18.761 0.901245C17.8778 0.901245 17.1611 1.61715 17.1611 2.50112V7.34225H14.1226V2.50112C14.1226 1.61715 13.4067 0.901245 12.5227 0.901245C11.6388 0.901245 10.9229 1.61715 10.9229 2.50112V7.58072C9.27406 8.08462 7.98609 9.34485 7.52497 10.9242H1.59987C0.716687 10.9242 0 11.64 0 12.5241C0 13.4081 0.716687 14.124 1.59987 14.124H7.34059V35.877H1.59987C0.716687 35.877 0 36.5928 0 37.4768C0 38.3607 0.716687 39.0766 1.59987 39.0766H7.52526C7.98629 40.656 9.27425 41.9167 10.9232 42.4209V47.4989C10.9232 48.3828 11.6392 49.0987 12.5231 49.0987C13.4062 49.0987 14.123 48.3828 14.123 47.4989V42.6594H17.1615V47.4988C17.1615 48.3827 17.8774 49.0986 18.7614 49.0986C19.6445 49.0986 20.3613 48.3827 20.3613 47.4988V42.6594H23.3998V47.4988C23.3998 48.3827 24.1157 49.0986 24.9997 49.0986C25.8836 49.0986 26.5995 48.3827 26.5995 47.4988V42.6594H29.6381V47.4988C29.6381 48.3827 30.3547 49.0986 31.2388 49.0986C32.1219 49.0986 32.8387 48.3827 32.8387 47.4988V42.6594H35.8763V47.4988C35.8763 48.3827 36.5922 49.0986 37.4762 49.0986C38.3602 49.0986 39.077 48.3827 39.077 47.4988V42.4207C40.7259 41.9165 42.0137 40.656 42.4748 39.0766H48.3995C49.2826 39.0766 50.0003 38.3607 50.0003 37.4768C50 36.5928 49.2832 35.877 48.3993 35.877Z" fill="#EA4722"/>
<path d="M48.3992 29.6387H45.2967C44.4127 29.6387 43.6968 30.3546 43.6968 31.2385C43.6968 32.1225 44.4127 32.8384 45.2967 32.8384H48.3992C49.2823 32.8384 50 32.1225 50 31.2385C50 30.3546 49.2832 29.6387 48.3992 29.6387Z" fill="#EA4722"/>
<path d="M48.3992 23.3997H45.2967C44.4127 23.3997 43.6968 24.1156 43.6968 24.9995C43.6968 25.8835 44.4127 26.5994 45.2967 26.5994H48.3992C49.2823 26.5994 50 25.8835 50 24.9995C50 24.1156 49.2832 23.3997 48.3992 23.3997Z" fill="#EA4722"/>
<path d="M48.3992 17.1615H45.2967C44.4127 17.1615 43.6968 17.8774 43.6968 18.7614C43.6968 19.6453 44.4127 20.3612 45.2967 20.3612H48.3992C49.2823 20.3612 50 19.6453 50 18.7614C50 17.8774 49.2832 17.1615 48.3992 17.1615Z" fill="#EA4722"/>
<path d="M1.59987 32.8384H4.70334C5.58643 32.8384 6.30321 32.1225 6.30321 31.2385C6.30321 30.3546 5.5873 29.6387 4.70334 29.6387H1.59987C0.716687 29.6387 0 30.3555 0 31.2385C0 32.1216 0.716687 32.8384 1.59987 32.8384Z" fill="#EA4722"/>
<path d="M1.59987 26.5994H4.70334C5.58643 26.5994 6.30321 25.8844 6.30321 25.0004C6.30321 24.1164 5.5873 23.4005 4.70334 23.4005H1.59987C0.716687 23.4005 0 24.1172 0 25.0004C0 25.8835 0.716687 26.5994 1.59987 26.5994Z" fill="#EA4722"/>
<path d="M1.59987 20.3612H4.70334C5.58643 20.3612 6.30321 19.6453 6.30321 18.7614C6.30321 17.8774 5.5873 17.1615 4.70334 17.1615H1.59987C0.716687 17.1615 0 17.8774 0 18.7614C0 19.6453 0.716687 20.3612 1.59987 20.3612Z" fill="#EA4722"/>
<path d="M19.8317 16.6277C19.1721 16.6277 18.5802 17.0316 18.341 17.646L13.0588 31.191C12.7381 32.0152 13.1446 32.9425 13.9679 33.2631C14.7921 33.5838 15.7194 33.1765 16.04 32.354L16.8782 30.2047H22.7851L23.6233 32.354C23.8694 32.9867 24.4735 33.3732 25.1139 33.3732C25.3072 33.3732 25.5039 33.3376 25.6954 33.2631C26.5179 32.9424 26.9261 32.0143 26.6046 31.191L21.3224 17.646C21.0822 17.0316 20.4912 16.6277 19.8317 16.6277ZM18.1259 27.005L19.8317 22.631L21.5374 27.005H18.1259Z" fill="#EA4722"/>
<path d="M34.0544 19.8274C34.9375 19.8274 35.6551 19.1115 35.6551 18.2276C35.6551 17.3436 34.9384 16.6277 34.0544 16.6277H29.5747C28.6907 16.6277 27.9748 17.3436 27.9748 18.2276C27.9748 19.1115 28.6907 19.8274 29.5747 19.8274H30.2143V30.1735H29.5747C28.6907 30.1735 27.9748 30.8894 27.9748 31.7734C27.9748 32.6574 28.6907 33.3733 29.5747 33.3733H34.0544C34.9375 33.3733 35.6551 32.6574 35.6551 31.7734C35.6551 30.8894 34.9384 30.1735 34.0544 30.1735H33.4156V19.8274H34.0544Z" fill="#EA4722"/>
</g>
<defs>
<clipPath id="clip0_25_5250">
<rect width="50" height="50" fill="white"/>
</clipPath>
</defs>
</svg>
