<svg width="673" height="540" viewBox="0 0 673 540" fill="none" xmlns="http://www.w3.org/2000/svg">
<path d="M69.4536 318.52C69.4155 318.52 69.3838 318.526 69.3457 318.52C67.8222 318.361 66.305 318.094 64.8259 317.713C64.553 317.643 64.3816 317.313 64.4387 316.976C64.4958 316.639 64.7561 316.417 65.0291 316.487C66.4637 316.855 67.9492 317.116 69.4282 317.268C69.7012 317.294 69.9107 317.599 69.8853 317.942C69.8662 318.24 69.6822 318.475 69.4536 318.513V318.52Z" fill="#EA4722"/>
<path d="M56.5227 314.149C56.4275 314.168 56.3322 314.149 56.237 314.092C53.5455 312.465 50.9809 310.394 48.6258 307.948C48.4099 307.726 48.3845 307.332 48.5623 307.065C48.74 306.798 49.0511 306.76 49.2669 306.982C51.5649 309.365 54.0533 311.372 56.675 312.961C56.9226 313.113 57.0305 313.488 56.9099 313.799C56.8337 313.996 56.6877 314.123 56.529 314.149H56.5227ZM42.811 300.032C42.6396 300.064 42.4619 299.981 42.3476 299.797C40.5257 296.849 38.9133 293.615 37.5676 290.184C37.4469 289.873 37.5485 289.498 37.7961 289.346C38.0437 289.193 38.342 289.32 38.469 289.632C39.7894 292.986 41.3573 296.144 43.1411 299.028C43.3125 299.301 43.2681 299.695 43.0522 299.905C42.9824 299.975 42.8999 300.013 42.811 300.032ZM34.9204 280.051C34.6729 280.095 34.438 279.905 34.3682 279.594C33.8476 277.198 33.4477 274.752 33.1811 272.319C33.0414 271.023 32.9335 269.714 32.8637 268.425C32.8446 268.075 33.0859 267.77 33.3334 267.757C33.6064 267.732 33.8476 267.999 33.8667 268.342C33.9302 269.6 34.0381 270.883 34.1777 272.148C34.438 274.524 34.8252 276.912 35.3394 279.263C35.4092 279.6 35.2569 279.943 34.9903 280.032C34.9712 280.038 34.9458 280.045 34.9268 280.051H34.9204ZM54.3961 256.334C52.4473 256.671 50.5111 256.677 48.6321 256.36C48.3591 256.315 48.1624 255.998 48.2005 255.654C48.2385 255.311 48.4925 255.07 48.7654 255.121C51.5649 255.591 54.504 255.299 57.4241 254.25C57.6717 254.168 57.9637 254.346 58.0398 254.682C58.116 255.013 57.9637 255.362 57.6971 255.458C56.5989 255.851 55.488 256.144 54.3961 256.334ZM33.8349 257.827C33.7841 257.834 33.7397 257.834 33.6889 257.827C33.416 257.77 33.2319 257.452 33.2763 257.109C33.7334 253.609 34.4951 250.292 35.5552 247.236C34.9204 246.283 34.3237 245.261 33.7841 244.174C33.6381 243.882 33.708 243.494 33.9428 243.31C34.1714 243.126 34.4888 243.215 34.6348 243.507C35.0791 244.384 35.5552 245.222 36.0631 246.017C36.2091 245.871 36.4122 245.839 36.5836 245.94C36.8375 246.087 36.9391 246.461 36.8248 246.773C36.7931 246.855 36.7677 246.938 36.736 247.014C37.904 248.66 39.218 250.095 40.6717 251.309C40.9003 251.499 40.9637 251.887 40.8114 252.179C40.659 252.465 40.348 252.548 40.1195 252.357C38.7165 251.195 37.4406 249.835 36.298 248.278C35.3711 251.087 34.6856 254.117 34.2729 257.306C34.2349 257.586 34.0571 257.789 33.8476 257.827H33.8349ZM65.613 250.546C65.448 250.572 65.2766 250.502 65.1623 250.33C64.9846 250.064 65.0099 249.67 65.2194 249.447C67.5238 247.001 68.8124 243.698 68.8441 240.153C68.8441 239.81 69.0727 239.524 69.352 239.53C69.6313 239.53 69.8535 239.816 69.8471 240.165C69.8154 244.085 68.3998 247.719 65.8669 250.407C65.7908 250.489 65.7019 250.534 65.613 250.546ZM41.4652 237.923C41.3192 237.948 41.1669 237.891 41.0463 237.751C40.8495 237.51 40.8431 237.116 41.0336 236.862C43.1284 234.149 45.6041 231.9 48.3782 230.178C48.6258 230.026 48.9241 230.153 49.0511 230.458C49.1717 230.769 49.0701 231.144 48.8226 231.296C46.15 232.954 43.7759 235.121 41.7572 237.732C41.6747 237.834 41.5731 237.897 41.4652 237.916V237.923ZM65.6574 231.036C65.5305 231.055 65.3908 231.017 65.2829 230.909C63.169 228.844 60.3632 227.91 57.1765 228.209C56.9036 228.234 56.6623 227.973 56.6433 227.63C56.6242 227.287 56.8147 226.957 57.1067 226.957C60.5473 226.639 63.588 227.662 65.905 229.918C66.1208 230.134 66.1653 230.527 65.9939 230.801C65.9114 230.934 65.7908 231.017 65.6638 231.036H65.6574ZM31.0291 234.079C30.7689 234.123 30.5213 233.907 30.4705 233.577C30.3753 232.961 30.2928 232.338 30.2229 231.703C29.8865 228.641 29.8738 225.451 30.1848 222.217C30.2166 221.874 30.4641 221.627 30.7435 221.671C31.0164 221.709 31.2132 222.027 31.1815 222.37C30.8831 225.496 30.8958 228.577 31.2196 231.531C31.2894 232.141 31.3656 232.745 31.4608 233.336C31.5116 233.672 31.3338 234.003 31.0672 234.073C31.0609 234.073 31.0482 234.073 31.0418 234.073L31.0291 234.079ZM32.978 212.084C32.8954 212.097 32.8066 212.084 32.724 212.046C32.4638 211.919 32.3368 211.557 32.4384 211.233C33.4985 207.853 34.9014 204.473 36.609 201.188C36.7614 200.896 37.0724 200.813 37.3009 201.004C37.5358 201.195 37.5993 201.582 37.4469 201.868C35.7774 205.083 34.4063 208.386 33.3715 211.69C33.3017 211.912 33.1493 212.052 32.9716 212.084H32.978ZM42.5761 193.291C42.4365 193.316 42.2841 193.266 42.1762 193.139C41.9731 192.91 41.954 192.51 42.1381 192.256C44.0869 189.536 46.258 186.881 48.575 184.358C48.7845 184.136 49.1019 184.161 49.2796 184.422C49.4574 184.682 49.4383 185.076 49.2288 185.305C46.9435 187.796 44.8043 190.413 42.8808 193.094C42.7983 193.208 42.6904 193.278 42.5761 193.297V193.291ZM375.052 130.337L372.901 130.699C372.628 130.743 372.374 130.502 372.336 130.159C372.297 129.816 372.488 129.505 372.761 129.454L374.906 129.092C377.173 128.704 379.414 128.297 381.623 127.872C381.623 127.872 381.623 127.872 381.629 127.872C381.902 127.827 382.15 128.056 382.194 128.399C382.238 128.742 382.048 129.06 381.775 129.111C379.56 129.536 377.319 129.943 375.046 130.33L375.052 130.337ZM364.013 132.078C364.013 132.078 364.007 132.078 364.001 132.078C361.081 132.497 358.078 132.897 355.082 133.266C354.809 133.297 354.561 133.05 354.536 132.7C354.51 132.357 354.694 132.078 354.986 132.014C357.976 131.646 360.973 131.245 363.886 130.832C364.159 130.794 364.407 131.042 364.439 131.385C364.47 131.722 364.28 132.033 364.007 132.078H364.013ZM390.618 127.306C390.351 127.351 390.104 127.128 390.059 126.792C390.015 126.449 390.192 126.125 390.465 126.067C393.462 125.407 396.426 124.708 399.257 123.99C399.511 123.901 399.791 124.142 399.848 124.479C399.905 124.816 399.727 125.146 399.454 125.216C396.61 125.934 393.646 126.633 390.637 127.3C390.637 127.3 390.624 127.3 390.618 127.3V127.306ZM346.182 134.276C346.182 134.276 346.163 134.276 346.156 134.276C343.211 134.587 340.227 134.873 337.218 135.134C336.945 135.159 336.704 134.898 336.685 134.549C336.666 134.2 336.914 133.888 337.149 133.882C340.158 133.621 343.128 133.336 346.074 133.024C346.347 132.993 346.594 133.253 346.613 133.596C346.639 133.926 346.448 134.225 346.182 134.269V134.276ZM408.176 122.846C407.922 122.891 407.681 122.688 407.624 122.37C407.561 122.033 407.732 121.696 407.999 121.614C410.995 120.737 413.909 119.816 416.67 118.876C416.93 118.787 417.21 118.984 417.286 119.314C417.356 119.651 417.203 119.994 416.937 120.083C414.162 121.023 411.236 121.951 408.233 122.827C408.214 122.827 408.202 122.834 408.189 122.84L408.176 122.846ZM328.312 135.845C328.312 135.845 328.287 135.845 328.274 135.845C325.316 136.055 322.332 136.245 319.323 136.417C319.044 136.43 318.816 136.163 318.803 135.82C318.79 135.477 319.012 135.197 319.279 135.165C322.282 135 325.265 134.81 328.223 134.6C328.503 134.581 328.737 134.841 328.75 135.191C328.763 135.521 328.572 135.801 328.319 135.845H328.312ZM310.411 136.849C310.411 136.849 310.373 136.849 310.36 136.849C307.389 136.976 304.406 137.078 301.397 137.16C301.117 137.167 300.889 136.893 300.883 136.55C300.876 136.201 301.111 135.921 301.371 135.909C304.374 135.826 307.357 135.724 310.322 135.597C310.601 135.585 310.83 135.858 310.836 136.201C310.842 136.525 310.658 136.798 310.404 136.843L310.411 136.849ZM425.456 116.932C425.221 116.97 424.986 116.798 424.91 116.499C424.827 116.169 424.973 115.82 425.233 115.712C428.185 114.53 431.023 113.285 433.657 112.014C433.917 111.887 434.209 112.052 434.305 112.376C434.406 112.7 434.273 113.062 434.019 113.183C431.366 114.466 428.509 115.718 425.538 116.906C425.513 116.919 425.481 116.925 425.456 116.932ZM56.0339 178.571C55.8561 178.602 55.6657 178.507 55.5578 178.31C55.3991 178.024 55.4562 177.637 55.6784 177.433C58.0525 175.356 60.6108 173.329 63.2769 171.404C63.5118 171.226 63.8229 171.334 63.9625 171.633C64.1022 171.932 64.0197 172.319 63.7784 172.491C61.1377 174.397 58.6048 176.404 56.2561 178.463C56.1862 178.52 56.1164 178.558 56.0339 178.571ZM292.497 137.351C292.497 137.351 292.452 137.351 292.433 137.351C289.456 137.395 286.466 137.421 283.464 137.427C283.184 137.427 282.962 137.148 282.962 136.804C282.962 136.455 283.191 136.175 283.464 136.175C286.466 136.175 289.45 136.144 292.421 136.099C292.7 136.099 292.922 136.372 292.928 136.715C292.928 137.033 292.744 137.3 292.497 137.344V137.351ZM442.151 108.812C441.941 108.85 441.725 108.71 441.63 108.463C441.51 108.151 441.618 107.776 441.865 107.624C444.715 105.921 447.343 104.136 449.686 102.313C449.921 102.135 450.232 102.217 450.378 102.516C450.524 102.808 450.454 103.196 450.219 103.38C447.845 105.229 445.185 107.033 442.297 108.755C442.252 108.78 442.202 108.799 442.151 108.812ZM274.57 137.383C274.57 137.383 274.519 137.383 274.494 137.389C271.764 137.357 269.022 137.313 266.273 137.256L265.531 137.236C265.251 137.23 265.035 136.944 265.042 136.595C265.042 136.245 265.283 135.972 265.55 135.979L266.292 135.998C269.035 136.055 271.777 136.099 274.507 136.131C274.786 136.131 275.008 136.417 275.002 136.766C275.002 137.084 274.811 137.338 274.57 137.383ZM256.65 137.065C256.65 137.065 256.599 137.065 256.573 137.065C253.647 137.014 250.663 136.97 247.616 136.938C247.337 136.938 247.115 136.652 247.121 136.303C247.121 135.953 247.35 135.686 247.629 135.68C250.676 135.712 253.666 135.756 256.592 135.807C256.865 135.807 257.088 136.099 257.088 136.442C257.088 136.754 256.897 137.014 256.656 137.052L256.65 137.065ZM71.523 167.344C71.3135 167.383 71.0977 167.249 71.0025 166.995C70.8818 166.684 70.9834 166.309 71.2373 166.156C73.8464 164.581 76.6141 163.043 79.4516 161.595C79.7056 161.461 79.9976 161.62 80.1055 161.938C80.2071 162.256 80.0864 162.624 79.8325 162.757C77.014 164.2 74.2653 165.724 71.669 167.287C71.6182 167.319 71.5674 167.338 71.523 167.344ZM238.729 136.874C238.729 136.874 238.685 136.874 238.659 136.874C235.714 136.868 232.73 136.874 229.702 136.887C229.423 136.887 229.201 136.607 229.201 136.264C229.201 135.915 229.429 135.635 229.702 135.635C232.73 135.616 235.72 135.616 238.666 135.623C238.945 135.623 239.167 135.902 239.167 136.252C239.167 136.569 238.977 136.83 238.736 136.868L238.729 136.874ZM457.215 96.8108C457.056 96.8362 456.891 96.7663 456.777 96.6075C456.592 96.347 456.612 95.9531 456.815 95.7244C459.195 93.056 461.106 90.2479 462.509 87.3826C462.655 87.084 462.966 86.995 463.201 87.1729C463.436 87.3508 463.512 87.7384 463.366 88.037C461.918 91.0103 459.938 93.9074 457.488 96.6583C457.411 96.7473 457.316 96.7981 457.221 96.8108H457.215ZM220.815 136.982C220.815 136.982 220.771 136.982 220.752 136.982C217.794 137.033 214.804 137.097 211.795 137.179C211.515 137.186 211.287 136.912 211.281 136.569C211.281 136.22 211.503 135.94 211.769 135.928C214.785 135.845 217.768 135.775 220.733 135.731C221.012 135.731 221.234 136.004 221.241 136.347C221.241 136.665 221.056 136.932 220.809 136.976L220.815 136.982ZM88.0976 158.831C87.8691 158.869 87.6342 158.704 87.558 158.418C87.4692 158.094 87.6025 157.732 87.8691 157.618C90.6178 156.417 93.4871 155.254 96.4135 154.161C96.6738 154.073 96.9594 154.25 97.0356 154.581C97.1118 154.911 96.9658 155.261 96.6992 155.362C93.7918 156.449 90.9288 157.611 88.1992 158.799C88.1674 158.812 88.1357 158.825 88.104 158.831H88.0976ZM202.901 137.491C202.901 137.491 202.863 137.491 202.85 137.491C199.886 137.611 196.896 137.757 193.9 137.923C193.62 137.935 193.392 137.668 193.379 137.325C193.366 136.976 193.589 136.69 193.855 136.671C196.858 136.506 199.841 136.366 202.812 136.239C203.085 136.226 203.32 136.499 203.326 136.843C203.333 137.167 203.149 137.44 202.895 137.484L202.901 137.491ZM105.25 152.383C105.002 152.427 104.761 152.23 104.698 151.919C104.628 151.582 104.793 151.239 105.059 151.156C107.878 150.248 110.817 149.365 113.788 148.533C114.042 148.469 114.321 148.666 114.385 149.009C114.448 149.346 114.277 149.682 114.004 149.759C111.046 150.585 108.119 151.461 105.307 152.37C105.288 152.37 105.269 152.383 105.25 152.383ZM184.993 138.488C184.993 138.488 184.968 138.488 184.955 138.488C181.984 138.698 179.001 138.933 176.017 139.2C175.744 139.225 175.503 138.965 175.484 138.615C175.465 138.266 175.687 137.973 175.948 137.948C178.931 137.688 181.921 137.446 184.898 137.236C185.178 137.217 185.412 137.478 185.425 137.827C185.438 138.158 185.247 138.437 184.993 138.482V138.488ZM167.117 140.064C167.117 140.064 167.098 140.064 167.092 140.064C164.051 140.388 161.055 140.743 158.179 141.112C157.907 141.144 157.659 140.896 157.627 140.553C157.602 140.216 157.792 139.911 158.059 139.867C158.059 139.867 158.072 139.867 158.078 139.867C160.96 139.498 163.963 139.142 167.003 138.818C167.276 138.787 167.524 139.047 167.543 139.39C167.568 139.727 167.378 140.019 167.111 140.064H167.117ZM122.739 147.491C122.478 147.535 122.231 147.319 122.18 146.989C122.129 146.652 122.307 146.322 122.58 146.258C125.443 145.566 128.414 144.905 131.41 144.282C131.677 144.193 131.943 144.454 131.988 144.797C132.032 145.14 131.848 145.464 131.575 145.515C128.585 146.131 125.621 146.798 122.77 147.484C122.764 147.484 122.751 147.484 122.745 147.484L122.739 147.491ZM149.292 142.357C149.292 142.357 149.292 142.357 149.286 142.357C146.963 142.713 144.646 143.081 142.335 143.482L140.411 143.818C140.138 143.863 139.885 143.628 139.846 143.285C139.808 142.942 139.999 142.624 140.272 142.573L142.195 142.236C144.506 141.836 146.829 141.468 149.159 141.112C149.432 141.074 149.686 141.315 149.718 141.658C149.749 142.001 149.559 142.306 149.286 142.357H149.292ZM465.943 77.8718C465.905 77.8781 465.861 77.8781 465.816 77.8718C465.543 77.8337 465.346 77.5224 465.372 77.1793C465.55 75.2288 465.524 73.2149 465.302 71.1945C465.131 69.6253 464.832 68.0116 464.426 66.3978C464.343 66.0675 464.489 65.718 464.75 65.61C465.004 65.4957 465.296 65.6863 465.378 66.0166C465.81 67.6939 466.115 69.3839 466.299 71.023C466.533 73.145 466.559 75.2669 466.375 77.319C466.349 77.6113 466.165 77.8337 465.943 77.8718ZM461.049 56.7854C460.865 56.8171 460.668 56.7155 460.56 56.5058C459.747 54.9429 458.814 53.3292 457.786 51.7155C456.942 50.3877 456.028 49.0725 455.069 47.8082C454.879 47.5541 454.885 47.1602 455.088 46.9251C455.285 46.6901 455.602 46.6964 455.793 46.9506C456.77 48.2403 457.703 49.5872 458.567 50.9404C459.614 52.5859 460.56 54.225 461.392 55.826C461.544 56.1183 461.474 56.5058 461.246 56.6964C461.182 56.7473 461.112 56.779 461.042 56.7917L461.049 56.7854ZM448.816 40.5656C448.689 40.5846 448.556 40.5465 448.448 40.4448C446.169 38.2974 443.662 36.2644 440.989 34.4093C440.748 34.2377 440.659 33.8565 440.792 33.5579C440.926 33.253 441.23 33.145 441.472 33.3165C444.176 35.1971 446.728 37.2619 449.045 39.4474C449.267 39.657 449.311 40.0509 449.14 40.3241C449.057 40.4639 448.937 40.5465 448.81 40.5656H448.816ZM433.232 29.6126C433.143 29.6253 433.054 29.6126 432.972 29.5681C430.324 28.1894 427.506 26.9124 424.586 25.7689C424.319 25.6672 424.173 25.3114 424.256 24.9811C424.338 24.6507 424.618 24.4664 424.884 24.5681C427.83 25.7244 430.68 27.0141 433.359 28.4055C433.613 28.5389 433.733 28.9074 433.625 29.225C433.556 29.441 433.403 29.5744 433.232 29.6062V29.6126ZM416.149 22.8718C416.092 22.8845 416.029 22.8781 415.972 22.8591C413.153 22.0459 410.208 21.3216 407.205 20.7053C406.932 20.6481 406.748 20.3305 406.792 19.9874C406.837 19.6443 407.091 19.4093 407.364 19.4728C410.385 20.0891 413.356 20.8197 416.194 21.6393C416.46 21.7155 416.632 22.0522 416.568 22.3889C416.518 22.6494 416.346 22.8337 416.149 22.8718ZM398.47 19.225C398.432 19.2314 398.394 19.2314 398.35 19.225C395.423 18.8375 392.427 18.5452 389.437 18.3483C389.158 18.3292 388.948 18.037 388.961 17.6875C388.974 17.3381 389.209 17.0776 389.488 17.0967C392.49 17.2936 395.506 17.5859 398.451 17.9734C398.724 18.0116 398.927 18.3165 398.896 18.6596C398.87 18.9518 398.692 19.1742 398.464 19.2187L398.47 19.225Z" fill="#EA4722"/>
<path d="M380.449 18.0687C380.449 18.0687 380.404 18.0687 380.385 18.0751C377.579 18.0878 375.922 18.2085 375.91 18.2085C375.63 18.2276 375.396 17.9671 375.383 17.6176C375.37 17.2682 375.599 16.976 375.853 16.9569C375.872 16.9569 377.547 16.8362 380.385 16.8171C380.664 16.8171 380.887 17.0967 380.887 17.4398C380.887 17.7574 380.696 18.0243 380.455 18.0624L380.449 18.0687Z" fill="#EA4722"/>
<path d="M383.241 18.6023L369.669 19.7395L373.707 11.0864L383.241 18.6023Z" fill="#EA4722"/>
<path d="M370.742 22.4524L353.019 16.0865L374.938 14.657L370.742 22.4524Z" fill="#EA4722"/>
<path d="M353 16.0546L380.169 0L376.322 7.92884L353 16.0546Z" fill="#EA4722"/>
<path d="M353.019 16.0864L374.989 14.7268L383.241 18.6023L376.322 7.80176L353.019 16.0864Z" fill="#EA4722"/>
<path d="M337.186 540C517.351 540 663.404 531.467 663.404 520.94C663.404 510.414 517.351 501.881 337.186 501.881C157.022 501.881 10.9692 510.414 10.9692 520.94C10.9692 531.467 157.022 540 337.186 540Z" fill="#E8E8E8"/>
<path d="M632.133 215.775C624.154 215.775 616.549 218.545 610.493 223.609L632.489 246.76L659.95 230.394C657.106 226.264 653.355 222.789 649 220.273C643.903 217.332 638.069 215.775 632.14 215.775H632.133Z" fill="#EDAA1E"/>
<path d="M634.165 251.379V282.846C651.127 281.836 664.743 268.272 665.765 251.379H634.165Z" fill="#EDAA1E"/>
<path d="M645.813 246.169H672.056C671.77 241.474 670.501 236.9 668.336 232.745L645.813 246.169Z" fill="#EDAA1E"/>
<path d="M607.529 226.404C601.651 232.637 598.438 240.712 598.438 249.346C598.438 267.173 612.461 281.798 630.102 282.853V250.159L607.535 226.404H607.529Z" fill="#EDAA1E"/>
<path d="M109.09 102.363L106.392 102.414C105.561 98.9262 104.215 95.6352 102.444 92.6365L104.64 90.3557C107.922 86.9503 107.827 81.5183 104.424 78.2337C101.022 74.9491 95.5944 75.0444 92.3125 78.4497L90.4335 80.4002C87.4563 78.5641 84.1998 77.1664 80.7401 76.2769L80.683 73.1066C80.6005 68.3735 76.6964 64.606 71.9672 64.6886C67.2379 64.7712 63.4736 68.6784 63.5561 73.4116L63.6069 76.1117C60.1218 76.944 56.8336 78.2909 53.8373 80.0634L51.5584 77.8652C48.1558 74.5806 42.7283 74.6759 39.4464 78.0812C36.1645 81.4866 36.2597 86.9186 39.6622 90.2032L41.6047 92.0838C39.7701 95.0634 38.3736 98.3226 37.4849 101.785L34.3236 101.842C29.5943 101.925 25.8299 105.832 25.9125 110.565C25.995 115.298 29.899 119.066 34.6283 118.983L37.3262 118.933C38.1578 122.42 39.5035 125.718 41.2746 128.71L39.0782 130.991C35.7963 134.396 35.8915 139.828 39.294 143.113C42.6966 146.398 48.1241 146.302 51.406 142.897L53.2787 140.959C56.2559 142.789 59.5188 144.187 62.9784 145.082L63.0356 148.24C63.1181 152.973 67.0221 156.741 71.7514 156.658C76.4806 156.576 80.245 152.668 80.1625 147.935L80.1117 145.235C83.5967 144.403 86.8913 143.056 89.8812 141.283L92.1602 143.481C95.5627 146.766 100.99 146.671 104.272 143.265C107.554 139.86 107.459 134.428 104.056 131.143L102.114 129.269C103.942 126.29 105.339 123.024 106.234 119.555L109.395 119.498C114.124 119.415 117.889 115.508 117.806 110.775C117.724 106.042 113.82 102.274 109.09 102.357V102.363ZM97.3592 110.216C97.6131 124.307 86.3962 135.94 72.3163 136.194C58.2365 136.448 46.6133 125.222 46.3594 111.131C46.1054 97.0329 57.3224 85.4065 71.4022 85.1524C85.4821 84.8982 97.1053 96.1181 97.3592 110.216Z" fill="#EA4722"/>
<path d="M55.7416 110.966C55.9003 119.873 63.2449 126.969 72.1448 126.804C81.0447 126.645 88.1418 119.295 87.9831 110.387C87.8244 101.48 80.467 94.3772 71.5672 94.5361C62.6673 94.6949 55.5765 102.058 55.7416 110.966Z" fill="#EA4722"/>
<path d="M156.415 65.3939H154.758C154.288 63.2466 153.501 61.2135 152.447 59.3584L153.818 57.9861C155.869 55.934 155.869 52.6049 153.818 50.5528C151.768 48.5007 148.442 48.5007 146.391 50.5528L145.217 51.7281C143.414 50.5718 141.433 49.676 139.319 49.0915V47.1474C139.319 44.244 136.971 41.8933 134.07 41.8933C131.169 41.8933 128.82 44.244 128.82 47.1474V48.8056C126.674 49.2758 124.643 50.0636 122.789 51.1182L121.418 49.7459C119.368 47.6938 116.041 47.6938 113.991 49.7459C111.941 51.798 111.941 55.1271 113.991 57.1792L115.165 58.3546C114.01 60.1589 113.115 62.1411 112.531 64.2567H110.588C107.687 64.2567 105.339 66.6074 105.339 69.5108C105.339 72.4143 107.687 74.765 110.588 74.765H112.245C112.715 76.9124 113.502 78.9454 114.556 80.8006L113.185 82.1729C111.134 84.2249 111.134 87.554 113.185 89.6061C115.235 91.6582 118.561 91.6582 120.612 89.6061L121.78 88.4371C123.583 89.5934 125.57 90.4829 127.684 91.0737V93.0115C127.684 95.9149 130.032 98.2656 132.933 98.2656C135.834 98.2656 138.183 95.9149 138.183 93.0115V91.3533C140.329 90.8831 142.36 90.0953 144.214 89.0407L145.585 90.413C147.635 92.4651 150.962 92.4651 153.012 90.413C155.062 88.3609 155.062 85.0318 153.012 82.9797L151.844 81.8107C152.999 80.0064 153.888 78.0178 154.478 75.9022H156.415C159.316 75.9022 161.664 73.5515 161.664 70.6481C161.664 67.7446 159.316 65.3939 156.415 65.3939ZM149.14 70.0763C149.14 78.7167 142.138 85.7243 133.505 85.7243C124.871 85.7243 117.87 78.7167 117.87 70.0763C117.87 61.4359 124.871 54.4283 133.505 54.4283C142.138 54.4283 149.14 61.4295 149.14 70.0763Z" fill="#EA4722"/>
<path d="M123.627 70.0827C123.627 75.5465 128.052 79.9747 133.511 79.9747C138.97 79.9747 143.395 75.5465 143.395 70.0827C143.395 64.6189 138.964 60.1907 133.511 60.1907C128.058 60.1907 123.627 64.6252 123.627 70.0827Z" fill="#EA4722"/>
<path d="M204.926 63.939H190.827V79.5044H204.926V63.939Z" fill="#EDAA1E"/>
<path d="M230.083 51.4485H215.984V79.5044H230.083V51.4485Z" fill="#EDAA1E"/>
<path d="M255.24 39.8665H241.141V79.5043H255.24V39.8665Z" fill="#EDAA1E"/>
<path d="M280.404 30.4128H266.305V79.5043H280.404V30.4128Z" fill="#EDAA1E"/>
<path d="M6.36704 262.833C2.8566 262.833 0 259.975 0 256.461C0 252.948 2.8566 250.089 6.36704 250.089C9.87748 250.089 12.7341 252.948 12.7341 256.461C12.7341 259.975 9.87748 262.833 6.36704 262.833ZM6.36704 252.077C3.9548 252.077 1.99327 254.041 1.99327 256.455C1.99327 258.869 3.9548 260.832 6.36704 260.832C8.77928 260.832 10.7408 258.869 10.7408 256.455C10.7408 254.041 8.77928 252.077 6.36704 252.077Z" fill="#EA4722"/>
<path d="M183.762 36.925C180.251 36.925 177.395 34.0661 177.395 30.5527C177.395 27.0394 180.251 24.1804 183.762 24.1804C187.272 24.1804 190.129 27.0394 190.129 30.5527C190.129 34.0661 187.272 36.925 183.762 36.925ZM183.762 26.169C181.35 26.169 179.388 28.1321 179.388 30.5464C179.388 32.9606 181.35 34.9237 183.762 34.9237C186.174 34.9237 188.136 32.9606 188.136 30.5464C188.136 28.1321 186.174 26.169 183.762 26.169Z" fill="#EA4722"/>
<path d="M412.817 46.385C409.306 46.385 406.45 43.526 406.45 40.0127C406.45 36.4993 409.306 33.6404 412.817 33.6404C416.327 33.6404 419.184 36.4993 419.184 40.0127C419.184 43.526 416.327 46.385 412.817 46.385ZM412.817 35.6289C410.404 35.6289 408.443 37.5921 408.443 40.0063C408.443 42.4206 410.404 44.3837 412.817 44.3837C415.229 44.3837 417.191 42.4206 417.191 40.0063C417.191 37.5921 415.229 35.6289 412.817 35.6289Z" fill="#EA4722"/>
<path d="M583.451 97.0076H103.371V403.977H583.451V97.0076Z" fill="white"/>
<path d="M381.915 411.328H299.359V506.861H381.915V411.328Z" fill="black"/>
<path d="M381.921 411.328V506.861H370.774C371.561 497.312 372.45 468.558 357.361 446.525C343.382 426.137 313.344 423.793 299.365 423.971V411.334H381.921V411.328Z" fill="#2B2B2B"/>
<path d="M423.5 492.319H257.773C244.106 492.319 233.022 503.412 233.022 517.09H448.251C448.251 503.412 437.167 492.319 423.5 492.319Z" fill="#4D4D4D"/>
<path d="M423.5 492.319H257.773C244.106 492.319 233.022 503.412 233.022 517.09H448.251C448.251 503.412 437.167 492.319 423.5 492.319Z" fill="black"/>
<path d="M579.775 87.5667H101.498C97.5624 87.5667 94.3757 90.7623 94.3757 94.695V409.06C94.3757 412.999 97.5688 416.188 101.498 416.188H579.769C583.705 416.188 586.891 412.992 586.891 409.06V94.695C586.891 90.7623 583.705 87.5667 579.769 87.5667H579.775ZM575.021 381.722C575.021 385.921 571.631 389.326 567.448 389.326H110.95C106.767 389.326 103.371 385.921 103.371 381.722V105.057C103.371 100.858 106.767 97.4523 110.95 97.4523H567.454C571.637 97.4523 575.027 100.858 575.027 105.057V381.728L575.021 381.722Z" fill="black"/>
<path d="M375.719 403.087H356.421C354.878 403.087 353.628 401.836 353.628 400.292C353.628 398.748 354.878 397.497 356.421 397.497H375.719C377.262 397.497 378.512 398.748 378.512 400.292C378.512 401.836 377.262 403.087 375.719 403.087Z" fill="white"/>
<path d="M377.039 397.878C377.255 398.278 377.414 398.71 377.414 399.199C377.414 400.743 376.163 401.995 374.621 401.995H355.323C354.834 401.995 354.396 401.836 354.002 401.614C354.479 402.478 355.361 403.088 356.415 403.088H375.713C377.255 403.088 378.506 401.836 378.506 400.292C378.506 399.238 377.896 398.354 377.033 397.878H377.039Z" fill="white"/>
<path d="M348.207 403.087H337.104C335.562 403.087 334.311 401.836 334.311 400.292C334.311 398.748 335.562 397.497 337.104 397.497H348.207C349.749 397.497 351 398.748 351 400.292C351 401.836 349.749 403.087 348.207 403.087Z" fill="white"/>
<path d="M348.988 397.656C349.375 398.132 349.635 398.717 349.635 399.384C349.635 400.927 348.385 402.179 346.842 402.179H335.739C335.466 402.179 335.212 402.096 334.965 402.02C335.479 402.656 336.228 403.088 337.104 403.088H348.207C349.749 403.088 351 401.836 351 400.292C351 399.028 350.143 397.999 348.988 397.656Z" fill="white"/>
<path d="M328.128 403.234H317.025C315.482 403.234 314.232 401.982 314.232 400.438C314.232 398.894 315.482 397.643 317.025 397.643H328.128C329.67 397.643 330.921 398.894 330.921 400.438C330.921 401.982 329.67 403.234 328.128 403.234Z" fill="white"/>
<path d="M328.128 397.643H327.709C328.045 398.1 328.28 398.64 328.28 399.257C328.28 400.8 327.029 402.052 325.487 402.052H314.803C315.311 402.751 316.092 403.234 317.025 403.234H328.128C329.67 403.234 330.921 401.982 330.921 400.438C330.921 398.894 329.67 397.643 328.128 397.643Z" fill="white"/>
<path d="M302.247 400.292C302.247 397.922 304.171 395.997 306.538 395.997C308.906 395.997 310.83 397.922 310.83 400.292C310.83 402.662 308.906 404.587 306.538 404.587C304.171 404.587 302.247 402.662 302.247 400.292Z" fill="white"/>
<path d="M308.855 396.684C309.287 397.351 309.541 398.145 309.541 399.003C309.541 401.372 307.617 403.297 305.25 403.297C304.393 403.297 303.606 403.043 302.933 402.611C303.694 403.799 305.021 404.587 306.538 404.587C308.906 404.587 310.83 402.662 310.83 400.292C310.83 398.774 310.036 397.446 308.849 396.684H308.855Z" fill="white"/>
<path d="M423.5 492.319H257.773C250.079 492.319 243.211 495.832 238.672 501.34C241.668 500.051 244.963 499.333 248.435 499.333H414.163C425.398 499.333 434.87 506.83 437.891 517.09H448.258C448.258 503.412 437.174 492.319 423.507 492.319H423.5Z" fill="#2B2B2B"/>
<path d="M529.582 114.263H122.472V128.475H529.582V114.263Z" fill="#9B9B9B"/>
<path d="M564.534 114.263H536.482V117.363H564.534V114.263Z" fill="#9B9B9B"/>
<path d="M564.534 119.822H536.482V122.922H564.534V119.822Z" fill="#9B9B9B"/>
<path d="M564.534 125.381H536.482V128.481H564.534V125.381Z" fill="#9B9B9B"/>
<path d="M253.583 372.325C246.988 372.325 241.624 366.957 241.624 360.356C241.624 353.755 246.988 348.386 253.583 348.386H433.346C439.942 348.386 445.306 353.755 445.306 360.356C445.306 366.957 439.942 372.325 433.346 372.325H253.583Z" fill="#326AB3"/>
<path d="M253.583 370.87C247.794 370.87 243.077 366.156 243.077 360.356C243.077 354.555 247.788 349.841 253.583 349.841H433.346C439.135 349.841 443.852 354.555 443.852 360.356C443.852 366.156 439.142 370.87 433.346 370.87H253.583Z" fill="white"/>
<path d="M433.346 351.753H253.583C248.835 351.753 244.988 355.604 244.988 360.356C244.988 365.108 248.835 368.958 253.583 368.958H433.346C438.094 368.958 441.941 365.108 441.941 360.356C441.941 355.604 438.094 351.753 433.346 351.753Z" fill="#A5210C"/>
<path d="M406.919 351.753V368.958H253.577C251.203 368.958 249.057 367.999 247.502 366.442C245.947 364.886 244.988 362.732 244.988 360.356C244.988 355.61 248.835 351.753 253.583 351.753H406.926H406.919Z" fill="#EA4722"/>
<path d="M204.806 374.473H218.905V358.907H204.806V374.473Z" fill="#9B9B9B"/>
<path d="M179.642 374.473H193.741V346.417H179.642V374.473Z" fill="#9B9B9B"/>
<path d="M154.491 374.473H168.59V334.835H154.491V374.473Z" fill="#9B9B9B"/>
<path d="M129.328 374.466H143.427V325.375H129.328V374.466Z" fill="#9B9B9B"/>
<path d="M263.404 202.656L207.51 202.783C206.875 204.994 204.704 206.626 202.152 206.633C199.067 206.639 196.559 204.301 196.553 201.41C196.547 198.513 199.041 196.163 202.127 196.163C204.691 196.156 206.849 197.77 207.503 199.987L263.397 199.854C264.794 199.854 265.93 200.476 265.93 201.252C265.937 202.02 264.807 202.649 263.41 202.662L263.404 202.656Z" fill="#9B9B9B"/>
<path d="M338.488 152.16C336.393 152.16 334.584 153.475 333.759 155.375H286.644C286.015 152.668 283.724 150.654 280.994 150.654C277.782 150.654 275.179 153.443 275.179 156.861C275.179 160.279 277.788 163.081 280.994 163.081C283.717 163.081 286.015 161.067 286.644 158.361H333.289C333.568 161.156 335.796 163.335 338.494 163.335C341.389 163.335 343.731 160.832 343.731 157.745C343.731 154.657 341.389 152.154 338.494 152.154L338.488 152.16ZM280.988 160.089C279.324 160.089 277.966 158.64 277.966 156.861C277.966 155.082 279.324 153.64 280.988 153.64C282.651 153.64 284.009 155.089 284.009 156.861C284.009 158.634 282.657 160.089 280.988 160.089Z" fill="#9B9B9B"/>
<path d="M285.66 311.537C283.565 311.537 281.756 312.853 280.931 314.752H233.816C233.187 312.046 230.889 310.032 228.166 310.032C224.954 310.032 222.345 312.821 222.345 316.252C222.345 319.682 224.96 322.459 228.166 322.459C230.896 322.459 233.187 320.445 233.816 317.738H280.461C280.74 320.534 282.968 322.713 285.666 322.713C288.555 322.713 290.903 320.21 290.903 317.122C290.903 314.034 288.555 311.531 285.666 311.531L285.66 311.537ZM228.16 319.466C226.497 319.466 225.138 318.024 225.138 316.245C225.138 314.466 226.497 313.018 228.16 313.018C229.823 313.018 231.181 314.466 231.181 316.245C231.181 318.024 229.823 319.466 228.16 319.466Z" fill="#9B9B9B"/>
<path d="M328.928 178.266H289.792L246.144 294.485H282.791L288.447 275.292H329.175L334.99 294.485H372.564L328.928 178.266ZM296.236 250.165L308.919 208.38L321.742 250.165H296.242H296.236Z" fill="#24252B"/>
<path d="M421.361 178.266H385.399V294.485H421.361V178.266Z" fill="#24252B"/>
<path d="M382.061 143.132C382.067 142.363 382.74 141.741 383.565 141.747L417.324 142.027L430.255 154.352L472.964 154.714C473.04 154.714 473.104 154.72 473.173 154.733C473.834 152.522 476.011 150.915 478.576 150.94C481.661 150.966 484.143 153.323 484.117 156.22C484.092 159.111 481.572 161.436 478.493 161.41C475.909 161.385 473.751 159.733 473.142 157.497C473.078 157.516 473.008 157.516 472.945 157.516L428.998 157.154L416.079 144.816L383.552 144.543C382.727 144.536 382.061 143.907 382.073 143.126L382.061 143.132Z" fill="#9B9B9B"/>
<path d="M482.505 336.125C482.505 338.685 480.563 340.762 478.163 340.762C476.22 340.762 474.57 339.39 474.024 337.503H429.912L418.105 324.892H354.244C353.596 324.892 353.076 324.339 353.076 323.66C353.076 322.98 353.596 322.421 354.244 322.421H419.063L430.877 335.032H473.954C474.411 333.005 476.119 331.499 478.157 331.499C480.556 331.499 482.499 333.577 482.499 336.137L482.505 336.125Z" fill="#9B9B9B"/>
<path d="M551.425 200.35C554.707 200.35 557.367 196.083 557.367 190.82C557.367 185.556 554.707 181.29 551.425 181.29C548.144 181.29 545.483 185.556 545.483 190.82C545.483 196.083 548.144 200.35 551.425 200.35Z" fill="#24252B"/>
<path d="M487.044 200.35C490.325 200.35 492.985 196.083 492.985 190.82C492.985 185.556 490.325 181.29 487.044 181.29C483.762 181.29 481.102 185.556 481.102 190.82C481.102 196.083 483.762 200.35 487.044 200.35Z" fill="#24252B"/>
<path d="M540.716 412.173C546.048 412.637 551.108 410.908 556.402 411.48C554.161 386.906 556.764 396.677 547.407 373.1C541.928 375.311 535.783 375.4 530.502 377.992C538.913 401.531 538.583 385.902 540.716 412.173Z" fill="#24252B"/>
<path d="M522.377 424.949V437.039C522.377 441.366 524.408 445.222 527.551 447.713C529.131 448.964 530.547 450.413 531.74 452.008C532.051 452.433 532.362 452.878 532.635 453.329C534.032 455.546 535.022 458.011 535.479 460.654C537.041 469.587 538.596 478.507 540.145 487.44H570.025V424.956C570.025 417.135 563.696 410.801 555.882 410.801H536.52C536.45 410.801 536.374 410.801 536.304 410.813C535.511 410.813 534.743 410.896 533.987 411.029C527.392 412.224 522.377 417.999 522.377 424.956V424.949Z" fill="#EA4722"/>
<path d="M544.004 478.253C542.874 471.747 541.738 465.248 540.602 458.742L539.999 455.273C539.446 452.097 538.272 449.072 536.514 446.283C536.234 445.826 535.879 445.299 535.447 444.708C533.981 442.751 532.292 441.017 530.401 439.517C528.223 437.789 526.973 435.21 526.973 432.446V420.356C526.973 415.724 530.267 411.773 534.806 410.947C535.346 410.851 535.834 410.801 536.304 410.801H536.672L536.742 410.788H555.881C561.15 410.788 565.435 415.076 565.435 420.349V478.24H544.004V478.253Z" fill="#EA4722"/>
<path d="M571.986 487.433C561.296 487.503 550.612 487.567 539.922 487.637L539.967 490.572L539.237 520.997C557.678 521.156 576.119 521.309 594.56 521.468C595.144 521.576 598.4 522.09 600.889 518.863C603.498 515.489 604.196 509.409 602.406 504.047C599.962 500.801 596.464 496.874 591.811 493.64C583.724 488.011 576.265 487.332 571.992 487.433H571.986Z" fill="#EA4722"/>
<path d="M549.121 514.028L549.755 487.573C546.48 487.592 543.198 487.611 539.916 487.637L539.96 490.572L539.23 520.997C557.671 521.156 576.112 521.309 594.553 521.468C595.137 521.576 598.394 522.09 600.882 518.863C601.79 517.687 602.45 516.169 602.869 514.485C584.955 514.333 567.035 514.18 549.121 514.028Z" fill="#EDAA1E"/>
<path d="M501.219 412.173C495.886 412.637 490.827 410.908 485.533 411.48C487.774 386.906 485.171 396.677 494.528 373.1C500.006 375.311 506.151 375.4 511.433 377.992C503.021 401.531 503.352 385.902 501.219 412.173Z" fill="#24252B"/>
<path d="M519.565 424.949V437.039C519.565 441.366 517.533 445.222 514.391 447.713C512.81 448.964 511.395 450.413 510.208 452.008C509.897 452.433 509.586 452.878 509.313 453.329C507.916 455.546 506.926 458.011 506.469 460.654C504.907 469.587 503.352 478.507 501.803 487.44H471.923V424.956C471.923 417.135 478.252 410.801 486.066 410.801H505.428C505.497 410.801 505.574 410.801 505.643 410.813C506.437 410.813 507.205 410.896 507.96 411.029C514.556 412.224 519.571 417.999 519.571 424.956L519.565 424.949Z" fill="#EA4722"/>
<path d="M497.937 478.253C499.067 471.747 500.203 465.248 501.339 458.742L501.942 455.273C502.495 452.097 503.669 449.072 505.427 446.283C505.707 445.826 506.062 445.299 506.494 444.708C507.96 442.751 509.649 441.017 511.54 439.517C513.718 437.789 514.968 435.21 514.968 432.446V420.356C514.968 415.724 511.674 411.773 507.135 410.947C506.595 410.851 506.107 410.801 505.637 410.801H505.269L505.199 410.788H486.06C480.791 410.788 476.506 415.076 476.506 420.349V478.24H497.937V478.253Z" fill="#EA4722"/>
<path d="M469.955 487.433C480.645 487.503 491.329 487.567 502.019 487.637L501.974 490.572L502.704 520.997C484.264 521.156 465.823 521.309 447.382 521.468C446.798 521.576 443.541 522.09 441.053 518.863C438.444 515.489 437.745 509.409 439.536 504.047C441.98 500.801 445.477 496.874 450.13 493.64C458.218 488.011 465.677 487.332 469.949 487.433H469.955Z" fill="#EA4722"/>
<path d="M492.82 514.028L492.185 487.573C495.461 487.592 498.743 487.611 502.025 487.637L501.98 490.572L502.71 520.997C484.27 521.156 465.829 521.309 447.388 521.468C446.804 521.576 443.547 522.09 441.059 518.863C440.151 517.687 439.491 516.169 439.072 514.485C456.986 514.333 474.906 514.18 492.82 514.028Z" fill="#EDAA1E"/>
<path d="M538.253 334.002H504.056V347.446H538.253V334.002Z" fill="#24252B"/>
<path d="M479.515 343.685H562.788C565.187 343.685 567.136 345.635 567.136 348.037V386.468C567.136 395.222 560.033 402.332 551.285 402.332H491.017C482.27 402.332 475.167 395.222 475.167 386.468V348.037C475.167 345.635 477.115 343.685 479.515 343.685Z" fill="#EA4722"/>
<path d="M571.758 258.075V309.924C571.758 319.924 566.178 328.621 557.97 333.081C557.513 333.323 557.056 333.551 556.586 333.767C556.414 333.856 556.237 333.933 556.053 334.015C555.583 334.225 555.107 334.415 554.618 334.593C551.768 335.648 548.689 336.232 545.47 336.232H494.42C491.601 336.232 488.891 335.788 486.339 334.962C486.041 334.866 485.742 334.771 485.456 334.657C485.361 334.631 485.272 334.587 485.171 334.555C484.904 334.46 484.638 334.352 484.377 334.244C484.092 334.13 483.812 334.002 483.533 333.869C483.444 333.825 483.349 333.786 483.26 333.742C474.316 329.549 468.133 320.451 468.133 309.924V258.075C468.133 243.545 479.908 231.766 494.42 231.766H545.47C555.158 231.766 563.626 237.014 568.184 244.822C569.567 247.185 570.596 249.784 571.18 252.548C571.561 254.333 571.758 256.182 571.758 258.075Z" fill="#EA4722"/>
<path d="M532.946 223.062H506.938V233.285H532.946V223.062Z" fill="#24252B"/>
<path d="M502.279 231.76H537.612V238.412C537.612 241.455 535.142 243.926 532.102 243.926H507.783C504.742 243.926 502.272 241.455 502.272 238.412V231.76H502.279Z" fill="#24252B"/>
<path d="M580.569 244.771V252.497H571.18C570.596 249.733 569.561 247.135 568.184 244.771H580.569Z" fill="#24252B"/>
<path d="M590.719 340.47C588.288 340.051 585.825 339.911 583.394 339.523C587.698 305.896 588.294 293.177 583.254 259.504C585.679 259.034 588.142 258.863 590.58 258.456C595.518 292.579 595.137 306.359 590.726 340.476L590.719 340.47Z" fill="#24252B"/>
<path d="M606.088 248.234C606.088 251.976 604.571 255.362 602.121 257.821C600.108 259.822 597.48 261.207 594.541 261.645V234.809C601.073 235.781 606.088 241.417 606.088 248.234Z" fill="#EA4722"/>
<path d="M594.573 234.816V261.652C593.919 261.741 593.246 261.798 592.56 261.798H577.503V234.676H592.56C593.24 234.676 593.919 234.733 594.573 234.822V234.816Z" fill="#EA4722"/>
<path d="M598.07 236.957C598.356 236.703 599.499 237.554 600.14 238.037C604.387 241.22 605.713 246.912 605.034 247.268C604.044 247.789 597.239 237.706 598.07 236.957Z" fill="#EDAA1E"/>
<path d="M594.211 277.37H586.123C584.276 277.37 582.778 278.869 582.778 280.718V298.805C582.778 300.655 584.276 302.154 586.123 302.154H594.211C596.058 302.154 597.556 300.655 597.556 298.805V280.718C597.556 278.869 596.058 277.37 594.211 277.37Z" fill="#EA4722"/>
<path d="M595.074 297.452V282.077C595.074 280.849 594.079 279.854 592.852 279.854H587.482C586.255 279.854 585.26 280.849 585.26 282.077V297.452C585.26 298.68 586.255 299.676 587.482 299.676H592.852C594.079 299.676 595.074 298.68 595.074 297.452Z" fill="#EDAA1E"/>
<path d="M590.675 319.581C585.958 318.482 581.248 321.417 580.15 326.137L576.481 341.919C575.383 346.639 578.315 351.353 583.032 352.452C587.749 353.551 592.459 350.616 593.557 345.896L597.226 330.114C598.324 325.394 595.392 320.68 590.675 319.581Z" fill="#EA4722"/>
<path d="M584.905 348.666L583.064 348.24C578.855 347.262 576.24 343.049 577.217 338.837L580.48 324.816C580.442 324.949 580.397 325.076 580.366 325.216L576.265 342.84C575.287 347.052 577.903 351.258 582.111 352.243L583.952 352.668C588.161 353.647 592.363 351.029 593.347 346.817L594.185 343.208C593.036 347.185 588.98 349.612 584.905 348.659V348.666Z" fill="#24252B"/>
<path d="M459.379 244.771V252.497H468.768C469.352 249.733 470.387 247.135 471.764 244.771H459.379Z" fill="#24252B"/>
<path d="M449.228 340.47C451.66 340.051 454.123 339.911 456.554 339.523C452.25 305.896 451.653 293.177 456.694 259.504C454.269 259.034 451.806 258.863 449.368 258.456C444.429 292.579 444.81 306.359 449.222 340.476L449.228 340.47Z" fill="#24252B"/>
<path d="M433.86 248.234C433.86 251.976 435.378 255.362 437.828 257.821C439.84 259.822 442.468 261.207 445.407 261.645V234.809C438.875 235.781 433.86 241.417 433.86 248.234Z" fill="#EA4722"/>
<path d="M445.375 234.816V261.652C446.029 261.741 446.702 261.798 447.388 261.798H462.445V234.676H447.388C446.709 234.676 446.029 234.733 445.375 234.822V234.816Z" fill="#EA4722"/>
<path d="M441.878 236.957C441.592 236.703 440.449 237.554 439.808 238.037C435.561 241.22 434.235 246.912 434.914 247.268C435.904 247.789 442.709 237.706 441.878 236.957Z" fill="#EDAA1E"/>
<path d="M445.737 302.154H453.825C455.672 302.154 457.17 300.655 457.17 298.806V280.718C457.17 278.869 455.672 277.37 453.825 277.37H445.737C443.89 277.37 442.392 278.869 442.392 280.718V298.806C442.392 300.655 443.89 302.154 445.737 302.154Z" fill="#EA4722"/>
<path d="M454.688 297.452V282.077C454.688 280.849 453.693 279.854 452.466 279.854H447.096C445.869 279.854 444.874 280.849 444.874 282.077V297.452C444.874 298.68 445.869 299.676 447.096 299.676H452.466C453.693 299.676 454.688 298.68 454.688 297.452Z" fill="#EDAA1E"/>
<path d="M449.273 319.581C453.99 318.482 458.7 321.417 459.798 326.137L463.467 341.919C464.566 346.639 461.633 351.353 456.916 352.452C452.2 353.551 447.489 350.616 446.391 345.896L442.722 330.114C441.624 325.394 444.557 320.68 449.273 319.581Z" fill="#EA4722"/>
<path d="M455.043 348.666L456.884 348.24C461.093 347.262 463.708 343.049 462.731 338.837L459.468 324.816C459.506 324.949 459.551 325.076 459.582 325.216L463.683 342.84C464.661 347.052 462.045 351.258 457.837 352.243L455.996 352.668C451.787 353.647 447.585 351.029 446.601 346.817L445.763 343.208C446.912 347.185 450.968 349.612 455.043 348.659V348.666Z" fill="#24252B"/>
<path d="M455.57 326.843C455.57 329.13 453.717 330.991 451.425 330.991C449.133 330.991 447.28 329.136 447.28 326.843C447.28 324.549 449.133 322.694 451.425 322.694C453.717 322.694 455.57 324.549 455.57 326.843Z" fill="#24252B"/>
<path d="M451.425 329.606C449.901 329.606 448.664 328.367 448.664 326.843C448.664 325.318 449.901 324.079 451.425 324.079C452.948 324.079 454.186 325.318 454.186 326.843C454.186 328.367 452.948 329.606 451.425 329.606Z" fill="#EDAA1E"/>
<path d="M592.712 326.843C592.712 329.13 590.859 330.991 588.567 330.991C586.275 330.991 584.422 329.136 584.422 326.843C584.422 324.549 586.275 322.694 588.567 322.694C590.859 322.694 592.712 324.549 592.712 326.843Z" fill="#24252B"/>
<path d="M588.573 329.606C590.098 329.606 591.335 328.369 591.335 326.843C591.335 325.316 590.098 324.079 588.573 324.079C587.048 324.079 585.812 325.316 585.812 326.843C585.812 328.369 587.048 329.606 588.573 329.606Z" fill="#EDAA1E"/>
<path d="M552.206 169.371V210.807C552.206 218.901 545.642 225.47 537.555 225.47H502.197C494.109 225.47 487.545 218.901 487.545 210.807V169.371C487.545 163.901 491.983 159.46 497.448 159.46H542.31C547.775 159.46 552.212 163.901 552.212 169.371H552.206Z" fill="#EA4722"/>
<path d="M502.108 168.45H537.644C540.729 168.45 543.23 170.953 543.23 174.041V205.896C543.23 211.741 538.488 216.487 532.648 216.487H507.11C501.27 216.487 496.528 211.741 496.528 205.896V174.041C496.528 170.953 499.029 168.45 502.114 168.45H502.108Z" fill="#24252B"/>
<path d="M533.708 178.609H506.049C505.026 178.609 504.196 179.439 504.196 180.464V184.93C504.196 185.955 505.026 186.785 506.049 186.785H533.708C534.731 186.785 535.561 185.955 535.561 184.93V180.464C535.561 179.439 534.731 178.609 533.708 178.609Z" fill="#EDAA1E"/>
<path d="M510.239 184.841C511.424 184.841 512.385 183.88 512.385 182.694C512.385 181.508 511.424 180.546 510.239 180.546C509.054 180.546 508.094 181.508 508.094 182.694C508.094 183.88 509.054 184.841 510.239 184.841Z" fill="white"/>
<path d="M529.093 184.841C530.278 184.841 531.239 183.88 531.239 182.694C531.239 181.508 530.278 180.546 529.093 180.546C527.908 180.546 526.947 181.508 526.947 182.694C526.947 183.88 527.908 184.841 529.093 184.841Z" fill="white"/>
<path d="M528.572 200.496C528.572 204.727 524.681 208.17 519.888 208.17C515.095 208.17 511.204 204.733 511.204 200.496H528.579H528.572Z" fill="#EDAA1E"/>
<path d="M194.795 351.887C193.957 350.248 192.548 348.977 190.815 348.361C188.231 347.452 185.552 347.707 182.886 348.056C182.772 348.069 182.772 348.247 182.886 348.234C185.108 348.018 187.399 347.776 189.589 348.348C191.405 348.825 193.227 350.064 193.919 351.868C194.516 353.418 194.712 355.089 194.477 356.735C194.217 358.558 193.386 360.261 192.586 361.9C191.602 363.92 189.774 365.515 188.282 367.16C188.231 367.217 188.307 367.294 188.364 367.243C189.177 366.487 189.964 365.705 190.719 364.892C191.468 364.085 192.135 363.202 192.884 362.402C194.262 360.915 195.15 359.136 195.455 357.135C195.728 355.381 195.607 353.494 194.788 351.893L194.795 351.887Z" fill="#353640"/>
<path d="M147.451 475.553C147.851 473.679 119.971 475.159 111.179 480.889C110.646 481.239 174.919 509.879 174.919 509.879L236.482 480.934C227.582 477.846 217.501 475.394 206.742 473.291L147.451 475.553Z" fill="#353640"/>
<path d="M159.906 519.822C159.741 519.822 159.576 519.822 159.424 519.822C159.322 519.822 159.221 519.822 159.125 519.822C150.879 519.917 145.49 519.714 145.49 519.714C145.49 519.714 145.096 519.803 144.373 519.949C137.32 521.41 99.3019 528.666 102.539 514.326C105.377 501.734 128.192 503.304 137.339 504.46C137.377 504.46 137.403 504.46 137.428 504.473C139.713 504.765 141.116 505.019 141.116 505.019C141.116 505.019 145.655 503.068 152.816 500.286C153.108 500.171 153.412 500.044 153.717 499.93C177.312 490.762 226.941 473.392 239.789 483.831C239.929 483.945 240.069 484.066 240.202 484.187C240.208 484.187 240.221 484.187 240.227 484.206C240.367 484.333 240.494 484.466 240.621 484.6C240.735 484.708 240.843 484.828 240.945 484.968C240.989 485.006 241.027 485.057 241.065 485.108C241.205 485.286 241.345 485.476 241.472 485.661C241.472 485.667 241.472 485.667 241.472 485.667C241.605 485.87 241.732 486.086 241.853 486.302C241.967 486.512 242.062 486.722 242.151 486.944C242.36 487.414 242.519 487.916 242.633 488.45C242.748 488.99 242.843 489.511 242.906 490.032C243.027 490.959 243.071 491.861 243.033 492.744C241.999 515.902 186.79 519.453 159.906 519.809V519.822Z" fill="#FFC0B8"/>
<path d="M243.649 499.981C234.857 514.002 195.176 518.551 169.2 520.241C160.865 520.781 153.945 521.029 149.908 521.194C148.289 521.258 146.759 520.711 145.566 519.72C144.823 519.098 144.214 518.31 143.801 517.395C142.202 513.875 141.453 510.21 141.389 506.423C141.376 505.877 141.44 505.343 141.56 504.835C142.049 502.789 143.522 501.067 145.547 500.305C147.451 499.587 149.527 498.837 151.736 498.069C160.725 494.924 171.986 491.429 183.419 488.354C186.327 487.573 189.234 486.823 192.122 486.112C203.022 483.418 213.591 481.302 221.977 480.438C229.169 479.701 234.762 479.886 237.587 481.423C240.818 483.189 243.351 486.734 243.858 487.808C246.106 492.509 245.814 496.537 243.655 499.981H243.649Z" fill="#24252B"/>
<path d="M145.42 519.803C144.925 519.943 141.04 521.023 135.644 522.173C120.866 525.311 94.7694 528.933 96.2167 514.873C96.5214 511.855 97.9624 509.568 100.152 507.859C110.468 499.771 137.403 504.409 140.761 505.019C138.64 504.676 127.462 503.291 126.643 513.011C125.735 523.774 144.303 520.032 145.426 519.797L145.42 519.803Z" fill="#353640"/>
<path d="M135.644 522.173C120.866 525.311 94.7694 528.933 96.2167 514.873C96.5214 511.855 97.9624 509.568 100.152 507.859C100.152 507.859 97.1752 516.347 100.603 518.774C104.025 521.201 107.929 518.666 111.566 521.41C115.204 524.155 135.644 522.166 135.644 522.166V522.173Z" fill="#24252B"/>
<path d="M221.977 480.432C221.977 480.546 221.964 480.667 221.926 480.807C221.837 481.182 221.602 481.665 221.133 482.262C219.228 484.689 215.115 483.107 211.744 484.905C208.373 486.696 204.469 485.75 199.518 486.175C197.861 486.315 196.007 486.309 194.287 486.239C193.532 486.201 192.808 486.156 192.129 486.112C203.028 483.418 213.598 481.303 221.983 480.438L221.977 480.432Z" fill="#353640"/>
<path d="M243.649 499.981C234.857 514.003 195.176 518.551 169.2 520.241C168.679 520.032 168.184 519.828 167.714 519.638C163.944 518.069 161.385 516.811 160.973 516.144C159.576 513.875 155.977 506.69 152.822 500.292C152.454 499.536 152.092 498.793 151.736 498.069C160.725 494.924 171.986 491.429 183.419 488.354C183.991 488.482 184.6 488.653 185.235 488.882C186.701 489.415 188.282 490.26 189.812 491.588C194.782 495.902 204.971 493.45 206.723 496.404C208.475 499.358 209.846 500.165 212.69 500.604C215.54 501.048 229.245 498.018 234.095 499.797C236.209 500.572 238.177 501.01 239.954 500.966C241.3 500.94 242.544 500.629 243.649 499.981Z" fill="#353640"/>
<path d="M247.528 512.732C250.943 527.306 212.163 520.241 204.971 518.812C204.234 518.666 203.828 518.583 203.828 518.583C203.828 518.583 198.21 518.844 189.64 518.812C189.475 518.812 189.304 518.812 189.139 518.812C176.697 518.748 158.288 518.069 141.796 515.121C121.564 511.512 104.196 504.517 104.228 491.105C104.228 491.074 104.228 491.055 104.228 491.036C104.228 490.489 104.266 489.936 104.33 489.371C104.33 489.358 104.33 489.352 104.33 489.339C104.399 488.755 104.495 488.17 104.622 487.567C104.736 487.027 104.895 486.512 105.104 486.029C105.193 485.807 105.295 485.591 105.402 485.375C105.523 485.152 105.65 484.937 105.783 484.727C105.783 484.727 105.79 484.727 105.783 484.72C105.91 484.524 106.05 484.333 106.19 484.149C106.228 484.098 106.266 484.047 106.31 484.009C106.412 483.869 106.52 483.742 106.634 483.634C106.761 483.494 106.894 483.361 107.034 483.227C107.034 483.215 107.047 483.202 107.059 483.208C108.627 481.747 110.817 480.762 113.509 480.159C132.007 476.042 173.993 490.445 195.271 498.513C195.582 498.628 195.887 498.748 196.191 498.869C203.511 501.645 208.151 503.596 208.151 503.596C208.151 503.596 209.579 503.323 211.903 503.005C211.928 503.005 211.96 503.005 211.992 502.992C221.298 501.741 244.512 499.956 247.515 512.751L247.528 512.732Z" fill="#FFC0B8"/>
<path d="M205.396 515.261C205.314 515.47 205.237 515.68 205.142 515.89C203.733 519.2 201.232 521.665 197.08 521.709C183.787 521.41 159.525 520.178 146.169 517.7C124.294 513.412 98.8385 503.577 103.32 489.371C103.796 487.865 104.603 486.315 105.79 484.708C109.751 479.358 116.822 477.579 125.602 477.916C142.83 478.577 166.603 487.408 186.282 493.431C191.684 495.083 196.775 496.518 201.333 497.522C204.387 498.361 206.393 501.315 206.634 504.473C206.888 507.776 206.653 511.887 205.396 515.254V515.261Z" fill="#24252B"/>
<path d="M248.442 513.183C248.309 528.977 220.612 523.24 208.938 520.127C205.815 519.288 203.841 518.647 203.841 518.647C203.841 518.647 222.275 522.313 221.907 510.978C221.653 503.113 208.17 503.64 208.17 503.64C210.252 502.764 226.11 499.867 237.295 502.357C243.649 503.774 248.486 506.931 248.436 513.189L248.442 513.183Z" fill="#353640"/>
<path d="M205.142 515.896C203.733 519.206 201.232 521.671 197.08 521.715C183.787 521.417 159.525 520.184 146.169 517.707C124.294 513.418 98.8385 503.583 103.32 489.377C103.447 489.892 106.132 501.277 112.836 503.151C119.692 505.064 123.685 506.626 129.391 510.87C135.098 515.114 145.211 514.46 150.587 515.724C155.964 516.989 186.847 519.917 190.307 519.174C193.576 518.469 193.081 515.654 192.554 513.685C192.719 513.825 194.306 517.166 194.909 519.136C195.684 521.677 203.904 518.723 205.142 515.902V515.896Z" fill="#353640"/>
<path d="M186.282 493.437C182.708 493.285 178.944 492.376 176.735 492.605C171.568 493.132 161.55 484.479 158.916 487.433C156.282 490.388 150.797 490.807 150.797 490.807C153.431 488.799 155.437 486.061 151.959 485.426C148.48 484.797 138.145 484.689 129.601 482.052C125.449 480.775 124.986 479.206 125.602 477.923C142.83 478.583 166.603 487.414 186.282 493.437Z" fill="#353640"/>
<path d="M248.442 513.183C248.308 528.977 220.612 523.24 208.938 520.127C216.169 520.572 228.122 523.596 232.058 519.937C236.228 516.061 244.988 517.91 246.258 512.554C247.509 507.281 237.555 502.529 237.295 502.351C243.649 503.761 248.486 506.919 248.435 513.177L248.442 513.183Z" fill="#24252B"/>
<path d="M191.862 334.257C187.348 328.437 179.229 324.644 172.481 327.586C170.583 328.412 168.908 329.72 166.921 330.318C165.473 330.756 163.937 330.788 162.426 330.978C156.777 331.677 151.432 334.606 147.813 339.009C144.188 343.405 142.335 349.219 142.735 354.905C142.786 355.604 142.862 356.334 142.646 357.008C142.43 357.675 141.954 358.215 141.484 358.729C136.234 364.46 129.88 370.222 129.131 377.967C128.852 380.902 129.429 383.945 128.566 386.773C126.833 392.503 120.218 394.936 115.965 399.155C111.725 403.361 109.839 409.803 111.134 415.635C111.528 417.389 112.302 419.219 113.877 420.07C115.699 421.055 117.914 420.413 119.945 420.032C120.72 419.879 121.507 419.778 122.307 419.733C123.608 419.663 124.916 419.752 126.147 420.095C126.909 420.299 127.633 420.604 128.312 421.016C131.638 423.05 133.168 427.344 136.177 429.625C136.679 430.013 137.225 430.337 137.821 430.591C139.612 431.334 141.484 431.245 143.293 430.648C143.427 430.61 143.56 430.559 143.687 430.515C145.153 429.975 146.575 429.111 147.87 428.1C148.099 427.929 148.327 427.745 148.55 427.56C149.095 427.103 149.616 426.626 150.111 426.137C152.987 423.291 155.532 420.108 157.684 416.684C159.354 414.022 160.852 411.137 163.321 409.187C166.781 406.455 171.485 406.055 175.884 405.775C178.912 402.757 185.108 395.705 187.374 384.854C187.38 384.803 187.393 384.759 187.406 384.708C188.523 379.257 188.307 374.517 187.863 371.131C189.183 365.762 191.03 361.15 193.068 357.217C195.125 353.253 196.432 352.363 196.68 349.67C197.182 344.187 195.233 338.64 191.868 334.295L191.862 334.257ZM138.012 364.759C144.607 356.989 144.677 357.211 145.28 356.105C148.042 351.08 145.128 349.504 147.661 344.187C150.219 338.812 155.234 336.137 157.316 335.025C161.341 332.878 165.13 332.281 165.213 332.516C165.334 332.846 158.167 334.06 152.803 339.917C151.679 341.144 149.337 343.774 148.162 347.821C146.893 352.217 148.207 354.187 146.283 357.732C145.966 358.323 145.629 358.825 141.649 362.751C137.713 366.633 134.584 369.72 134.381 369.523C134.209 369.371 135.98 367.154 138.018 364.759H138.012ZM115.445 404.187C114.689 405.54 113.02 408.64 113.312 412.535C113.559 415.794 115.077 418.119 115.007 418.145C114.905 418.145 112.747 415.267 112.563 411.277C112.36 406.83 114.734 403.621 116.041 401.868C119.596 397.077 124.402 395.222 124.503 395.375C124.618 395.54 118.873 398.024 115.445 404.187Z" fill="#353640"/>
<path d="M203.498 431.944C195.239 443.552 202.628 475.311 202.628 475.311H147.204C148.734 473.139 153.05 445.762 143.332 430.674C127.646 406.328 144.544 387.402 144.544 387.402L167.594 383.208L169.066 375.864L170.076 370.807L170.311 369.632H180.677L181.051 371.836L181.864 376.646L183.064 383.736L204.253 388.342C204.253 388.342 222.402 405.369 203.492 431.951L203.498 431.944Z" fill="#FFC0B8"/>
<path d="M203.498 431.95C195.239 443.551 202.635 475.311 202.635 475.311H147.204C148.505 473.462 151.825 453.323 146.779 438.081C145.896 435.413 144.76 432.91 143.325 430.667C127.639 406.328 144.538 387.401 144.538 387.401L167.6 383.202C165.905 394.911 182.569 397.44 183.07 383.736L204.253 388.348C204.253 388.348 222.409 405.362 203.498 431.963V431.95Z" fill="#32A981"/>
<path d="M147.204 475.311C148.505 473.463 151.825 453.323 146.779 438.081C157.71 434.905 155.863 465.267 174.069 475.311H147.204Z" fill="#C4626E"/>
<path d="M233.645 456.086C233.067 459.682 230.54 463.577 226.795 467.433C217.216 477.274 197.715 476.836 184.333 480.413L182.937 473.278C182.937 473.278 206.824 466.537 211.96 458.151C212.506 457.255 212.887 456.423 213.039 455.68C214.778 447.325 205.117 436.874 205.117 436.874L204.088 388.361C204.088 388.361 236.558 437.814 233.651 456.093L233.645 456.086Z" fill="#FFC0B8"/>
<path d="M233.962 456.086C233.34 459.466 231.315 463.717 227.944 467.421C227.588 467.808 226.998 467.878 226.56 467.592L222.453 464.924L211.693 457.942C212.239 457.052 212.518 456.15 212.671 455.407C214.41 447.052 198.927 434.13 198.927 434.13L202.647 388.062C207.637 387.84 215.832 399.231 222.637 413.202C222.637 413.202 222.643 413.221 222.656 413.253C230.02 428.367 235.733 446.468 233.968 456.093L233.962 456.086Z" fill="#32A981"/>
<path d="M166.686 473.399L166.927 478.145C167.352 477.999 167.321 477.376 166.876 477.281C154.948 474.816 135.352 478.228 125.811 470.114C119.933 465.108 116.721 458.952 115.965 454.2C113.058 435.928 144.728 387.433 144.728 387.433L143.56 435.883C143.56 435.883 133.892 446.334 135.638 454.689C135.942 456.175 137.123 458.011 138.837 460.013C145.991 468.412 166.692 473.399 166.692 473.399H166.686Z" fill="#FFC0B8"/>
<path d="M135.625 454.695C135.93 456.182 137.955 457.484 139.662 459.485L129.664 467.808L125.646 471.15C119.768 466.144 116.315 459.74 115.02 455.108C113.02 447.98 115.864 435.801 120.663 423.71C120.682 423.647 120.695 423.609 120.695 423.609C127.931 405.362 139.58 387.344 145.668 387.198L149.178 436.366C149.178 436.366 133.879 446.347 135.625 454.701V454.695Z" fill="#32A981"/>
<path d="M209.23 428.069H139.529C137.078 428.069 135.092 430.057 135.092 432.51V478.037C135.092 480.489 137.078 482.478 139.529 482.478H209.23C211.681 482.478 213.667 480.489 213.667 478.037V432.51C213.667 430.057 211.681 428.069 209.23 428.069Z" fill="white"/>
<path d="M174.38 462.224C178.215 462.224 181.324 459.112 181.324 455.273C181.324 451.435 178.215 448.323 174.38 448.323C170.544 448.323 167.435 451.435 167.435 455.273C167.435 459.112 170.544 462.224 174.38 462.224Z" fill="#D7E0FA"/>
<g style="mix-blend-mode:multiply">
<path d="M181.87 376.639C180.48 377.414 178.88 378.774 176.57 378.831C173.237 378.914 169.073 375.858 169.073 375.858L170.082 370.801H173.7L179.947 371.169L181.064 371.83L181.877 376.639H181.87Z" fill="#CCCCCC"/>
</g>
<path d="M213.667 432.51V478.043C213.667 480.496 211.68 482.484 209.23 482.484H139.523C137.072 482.484 135.085 480.496 135.085 478.043C205.586 481.283 213.661 470.934 209.23 428.075C211.68 428.075 213.667 430.064 213.667 432.516V432.51Z" fill="#D7E0FA"/>
<g style="mix-blend-mode:multiply">
<path d="M129.671 467.802L125.652 471.144C119.774 466.137 116.321 459.733 115.026 455.102C113.026 447.973 115.87 435.794 120.669 423.704C120.187 425.127 113.978 442.573 118.384 453.246C122.282 462.713 128.242 466.429 129.671 467.802Z" fill="#CCCCCC"/>
</g>
<g style="mix-blend-mode:multiply">
<path d="M233.962 456.086C233.34 459.466 231.315 463.717 227.944 467.421C227.588 467.808 226.998 467.878 226.56 467.592L222.453 464.924C224.611 461.182 227.792 458.208 229.29 452.408C233.289 436.893 223.202 414.587 222.65 413.247C230.013 428.361 235.727 446.461 233.962 456.086Z" fill="#CCCCCC"/>
</g>
<path d="M187.526 363.78C185.711 372.783 180.556 376.652 175.478 376.36C168.66 375.978 162.147 363.05 162.147 363.05C162.147 363.05 155.964 359.975 157.253 357.262C158.897 353.774 160.103 355.254 164.324 355.273C170.736 355.318 175.884 343.609 175.935 340.769C178.595 347.173 182.429 351.563 188.085 352.77C188.377 357.059 188.142 360.718 187.526 363.774V363.78Z" fill="#FFC0B8"/>
</svg>
