<svg width="673" height="403" viewBox="0 0 673 403" fill="none" xmlns="http://www.w3.org/2000/svg">
<g clip-path="url(#clip0_13_4613)">
<path d="M368.106 402.993C485.241 402.993 580.198 397.457 580.198 390.628C580.198 383.799 485.241 378.262 368.106 378.262C250.97 378.262 156.013 383.799 156.013 390.628C156.013 397.457 250.97 402.993 368.106 402.993Z" fill="#E8E8E8"/>
<path d="M166.742 373.866H9.09965C4.07015 373.866 0 369.794 0 364.777V128.943C0 123.934 4.0631 119.869 9.07848 119.854L167.977 119.432C173.034 119.418 177.133 123.525 177.105 128.57L175.842 364.826C175.814 369.829 171.751 373.866 166.742 373.866Z" fill="#32A981"/>
<path d="M159.018 131.064L18.0651 131.931C12.9721 131.959 8.85962 136.109 8.88784 141.196L9.86834 352.863C9.88951 357.872 13.9173 361.952 18.9327 362.043L155.886 364.538C161 364.629 165.218 360.55 165.289 355.441L168.308 140.414C168.379 135.249 164.188 131.029 159.018 131.057V131.064Z" fill="#32A981"/>
<path d="M150.525 140.16H41.9219C40.3947 140.16 39.1567 141.397 39.1567 142.922V143.887C39.1567 145.413 40.3947 146.649 41.9219 146.649H150.525C152.052 146.649 153.29 145.413 153.29 143.887V142.922C153.29 141.397 152.052 140.16 150.525 140.16Z" fill="white"/>
<path d="M141.164 155.132C141.087 156.577 139.902 157.718 138.456 157.739L43.4737 159.465C41.9289 159.493 40.6592 158.253 40.6592 156.703V156.478C40.6592 154.97 41.8725 153.744 43.375 153.716L138.357 152.215C139.958 152.187 141.249 153.526 141.157 155.125L141.164 155.132Z" fill="white"/>
<path d="M150.765 357.309L22.2978 355.766C20.1816 355.737 18.2135 354.892 16.7393 353.377C15.265 351.862 14.482 349.868 14.5173 347.755L17.8256 173.684C17.8679 171.584 18.7214 169.625 20.238 168.167C21.7546 166.708 23.7227 165.94 25.846 165.969L154.087 168.463C158.419 168.547 161.882 172.134 161.805 176.467L158.722 349.579C158.644 353.856 155.124 357.302 150.85 357.302C150.822 357.302 150.786 357.302 150.758 357.302L150.765 357.309ZM22.058 170.055C21.0492 171.027 20.4779 172.331 20.4497 173.733L17.1413 347.804C17.1131 349.213 17.6422 350.545 18.6227 351.559C19.6032 352.574 20.9223 353.138 22.3331 353.152L150.8 354.695C153.685 354.758 156.063 352.419 156.112 349.544L159.195 176.431C159.244 173.543 156.937 171.147 154.045 171.091L25.8036 168.597C25.8036 168.597 25.7331 168.597 25.6978 168.597C24.3364 168.597 23.0455 169.118 22.058 170.062V170.055Z" fill="white"/>
<path d="M18.9331 186.006H158.842C159.569 186.006 160.154 185.422 160.154 184.696C160.154 183.97 159.569 183.385 158.842 183.385H18.9331C18.2066 183.385 17.6211 183.97 17.6211 184.696C17.6211 185.422 18.2066 186.006 18.9331 186.006Z" fill="white"/>
<path d="M330.324 278.77L320.794 364.122H431.338L416.94 278.77H330.324Z" fill="#24252B"/>
<path d="M98.4385 26.1819V260.98C98.4385 280.292 113.851 296.089 133.179 296.589C219.041 298.801 519.343 304.163 601.078 302.958C615.122 302.754 626.507 291.523 626.909 277.495C628.482 222.947 631.043 91.7774 621.569 30.8814C619.573 18.0582 608.738 8.469 595.752 8.05331C523.815 5.75641 205.476 -1.54294 123.783 0.288943C109.697 0.606 98.4455 12.0975 98.4455 26.1749L98.4385 26.1819Z" fill="#24252B"/>
<path d="M113.196 25.0405V248.114C113.196 259.395 122.26 268.582 133.546 268.751L589.319 274.374C600.513 274.543 609.684 265.545 609.726 254.364L610.488 33.2839C610.516 25.2871 604.139 18.7416 596.14 18.5443L129.511 9.12423C120.56 8.90582 113.188 16.0924 113.188 25.0334L113.196 25.0405Z" fill="white"/>
<path d="M368.105 293.975C364.854 293.975 362.201 291.333 362.201 288.078C362.201 284.823 364.846 282.18 368.105 282.18C371.364 282.18 374.01 284.823 374.01 288.078C374.01 291.333 371.364 293.975 368.105 293.975ZM368.105 283.583C365.622 283.583 363.605 285.598 363.605 288.078C363.605 290.558 365.622 292.573 368.105 292.573C370.588 292.573 372.606 290.558 372.606 288.078C372.606 285.598 370.588 283.583 368.105 283.583Z" fill="white"/>
<path d="M455.152 381.588H293.361C288.967 381.588 285.665 378.46 286.512 375.106L288.586 366.905C289.214 364.439 291.929 362.628 295.153 362.53L451.124 357.668C454.496 357.562 457.479 359.352 458.213 361.917L461.959 374.979C462.932 378.375 459.617 381.595 455.152 381.595V381.588Z" fill="#24252B"/>
<path d="M380.457 364.918C380.076 364.918 379.766 364.615 379.759 364.228C379.759 363.84 380.062 363.523 380.45 363.516L387.13 363.417C387.497 363.425 387.836 363.72 387.843 364.108C387.843 364.496 387.539 364.813 387.151 364.82L380.471 364.918H380.464H380.457Z" fill="white"/>
<path d="M292.508 377.234C292.473 377.234 292.437 377.234 292.395 377.227C292.014 377.163 291.753 376.811 291.817 376.431L292.769 370.463C293.291 367.173 296.091 364.756 299.428 364.707L370.313 363.671C370.708 363.671 371.019 363.974 371.026 364.361C371.026 364.749 370.723 365.066 370.335 365.073L299.449 366.109C296.797 366.151 294.568 368.074 294.152 370.688L293.199 376.656C293.143 377.001 292.847 377.241 292.508 377.241V377.234Z" fill="white"/>
<path opacity="0.52" d="M398.72 65.5884H141.475C137.482 65.5884 134.237 68.6321 134.237 72.3804V138.392C134.237 142.14 137.475 145.184 141.475 145.184H398.713C402.705 145.184 405.95 142.14 405.95 138.392V72.3804C405.95 68.6321 402.712 65.5884 398.713 65.5884H398.72Z" fill="#EDAA1E"/>
<path d="M65.6022 372.711H223.245C228.274 372.711 232.344 369.702 232.344 365.996V253.681C232.344 249.982 228.281 246.973 223.266 246.966L64.3678 246.649C59.31 246.642 55.2117 249.672 55.2399 253.399L56.5026 366.031C56.5308 369.723 60.5939 372.711 65.6022 372.711Z" fill="#EDAA1E"/>
<path d="M73.3261 255.238L214.279 255.879C219.372 255.9 223.484 258.965 223.456 262.727L222.476 357.189C222.455 360.895 218.427 363.904 213.411 363.974L76.4581 365.82C71.344 365.89 67.1257 362.875 67.0551 359.098L64.036 262.149C63.9655 258.331 68.1556 255.217 73.3261 255.238Z" fill="#EDAA1E"/>
<path d="M79.0542 264.003V264.721C79.0542 265.848 80.2886 266.757 81.8194 266.757H190.423C191.946 266.757 193.188 265.841 193.188 264.721V264.003C193.188 262.875 191.953 261.966 190.423 261.966H81.8194C80.2957 261.966 79.0542 262.882 79.0542 264.003Z" fill="white"/>
<path d="M91.1729 273.021C91.2504 274.085 92.4355 274.93 93.8816 274.952L188.864 276.227C190.408 276.248 191.678 275.332 191.678 274.191V274.022C191.678 272.908 190.465 271.999 188.962 271.985L93.9803 270.872C92.3791 270.851 91.0882 271.837 91.1799 273.021H91.1729Z" fill="white"/>
<path d="M73.6086 354.815L70.526 288.832C70.526 288.832 70.526 288.811 70.526 288.803C70.4907 287.423 71.055 286.063 72.099 284.978C73.5592 283.463 75.8024 282.575 78.2501 282.54L206.492 280.701C206.541 280.701 206.59 280.701 206.64 280.701C210.907 280.701 214.42 283.378 214.505 286.697L217.813 353.42C217.849 354.808 217.284 356.174 216.233 357.267C214.759 358.788 212.502 359.676 210.04 359.697L81.5725 360.832C81.5725 360.832 81.509 360.832 81.4808 360.832C77.1426 360.832 73.6932 358.197 73.6156 354.829L73.6086 354.815ZM206.527 283.308L78.2854 285.147C76.5571 285.175 74.9488 285.781 73.9824 286.781C73.5874 287.19 73.1218 287.859 73.1359 288.719L76.2185 354.716C76.2679 356.611 78.6592 358.197 81.4738 358.197C81.4949 358.197 81.5161 358.197 81.5372 358.197L210.005 357.062C211.747 357.048 213.369 356.435 214.343 355.428C214.745 355.012 215.217 354.343 215.196 353.497L211.888 286.774C211.839 284.872 209.447 283.301 206.633 283.301C206.597 283.301 206.562 283.301 206.527 283.301V283.308Z" fill="white"/>
<path d="M73.5025 296.173H213.411C214.138 296.173 214.723 295.588 214.723 294.863C214.723 294.137 214.138 293.552 213.411 293.552H73.5025C72.7759 293.552 72.1904 294.137 72.1904 294.863C72.1904 295.588 72.7759 296.173 73.5025 296.173Z" fill="white"/>
<path d="M469.605 132.058L622.677 133.319C631.12 133.389 638.033 140.055 638.393 148.481L647.86 370.245C648.142 376.839 642.901 382.356 636.291 382.42L460.823 384.16C454.616 384.223 449.558 379.186 449.614 372.978L451.455 149.883C451.54 139.956 459.666 131.973 469.605 132.051V132.058Z" fill="#EA4722"/>
<path opacity="0.7" d="M486.493 380.686L466.861 380.271C460.252 380.13 454.926 374.648 454.975 368.046L455.222 338.44C455.222 338.166 455.448 337.94 455.723 337.947C456.005 337.961 456.224 338.173 456.217 338.447L455.97 368.053C455.921 374.113 460.809 379.143 466.876 379.27L486.507 379.686C486.782 379.686 487.001 379.918 486.994 380.193C486.994 380.468 486.761 380.686 486.486 380.679L486.493 380.686Z" fill="white"/>
<path opacity="0.7" d="M455.794 329.774C455.518 329.774 455.3 329.542 455.3 329.274L455.342 324.483C455.342 324.208 455.568 323.983 455.843 323.99C456.118 323.99 456.337 324.222 456.337 324.49L456.294 329.281C456.294 329.556 456.069 329.781 455.794 329.774Z" fill="white"/>
<path d="M472.286 136.06C492.383 138.948 561.484 147.946 618.713 144.035C621.323 143.859 623.573 145.846 623.686 148.46L633.314 362.825C633.448 365.763 631.177 368.258 628.235 368.406C604.167 369.632 505.059 374.31 469.753 370.322C467.602 370.082 465.987 368.258 465.994 366.095L466.53 141.02C466.537 137.962 469.246 135.616 472.279 136.052L472.286 136.06Z" fill="white"/>
<path d="M617.09 162.847C617.817 162.847 618.381 162.263 618.339 161.537L618.311 161.1C618.268 160.374 617.64 159.768 616.907 159.754L486.648 157.655C485.921 157.641 485.688 158.106 486.14 158.676L487.762 160.748C488.214 161.318 489.18 161.797 489.907 161.805L617.09 162.854V162.847Z" fill="#D8D8D8"/>
<path d="M486.584 166.215C485.858 166.201 485.625 166.666 486.076 167.237L487.699 169.308C488.15 169.879 489.117 170.358 489.843 170.365L617.027 171.415C617.753 171.415 618.318 170.83 618.275 170.104L618.247 169.668C618.205 168.942 617.577 168.336 616.843 168.322L486.584 166.222V166.215Z" fill="#D8D8D8"/>
<path d="M508.508 244.232C508.508 244.232 508.48 244.232 508.459 244.232L491.233 244.479C488.75 244.514 486.662 242.858 486.373 240.625L484.511 226.23C484.398 225.371 484.645 224.518 485.202 223.821C485.823 223.046 486.782 222.538 487.833 222.447C489.286 222.313 491.282 222.095 493.476 221.855C498.259 221.334 503.683 220.735 506.872 220.622C506.893 220.622 506.921 220.622 506.942 220.622C509.228 220.566 511.224 221.911 511.817 223.905C512.797 227.203 512.868 233.48 512.861 240.167C512.861 242.358 510.907 244.176 508.501 244.232H508.508ZM487.967 223.842C487.297 223.905 486.69 224.215 486.302 224.702C485.985 225.096 485.844 225.575 485.907 226.054L487.77 240.449C487.967 241.978 489.448 243.105 491.219 243.077L508.445 242.83C508.445 242.83 508.466 242.83 508.48 242.83C510.124 242.788 511.464 241.604 511.464 240.167C511.471 233.586 511.407 227.421 510.476 224.307C510.067 222.926 508.544 221.933 506.928 222.031C503.789 222.144 498.16 222.764 493.631 223.257C491.424 223.497 489.42 223.715 487.967 223.856V223.842Z" fill="white"/>
<path d="M489.85 225.251C493.462 224.92 501.306 223.926 505.038 223.793C506.618 223.736 508.029 224.652 508.431 226.012C509.214 228.654 509.249 233.952 509.242 238.849C509.242 240.315 507.923 241.519 506.279 241.541L492.51 241.738C490.817 241.759 489.385 240.646 489.187 239.145L487.699 227.639C487.544 226.449 488.51 225.371 489.85 225.244V225.251Z" fill="#D8D8D8"/>
<path d="M523.18 228.894C522.454 228.894 522.016 229.464 522.221 230.169L523.963 236.165C524.168 236.862 524.93 237.426 525.656 237.405L612.547 235.312C613.274 235.298 613.845 234.685 613.81 233.96L613.633 230.197C613.598 229.471 612.977 228.873 612.244 228.873L523.166 228.901L523.18 228.894Z" fill="#D8D8D8"/>
<path d="M490.64 227.492C491.903 226.709 493.561 227.118 494.309 228.393L497.85 234.396C498.202 234.995 499.091 234.939 499.366 234.298L507.337 215.359C507.732 214.415 509.136 214.697 509.143 215.718C509.192 221.453 507.937 232.381 498.985 241.724C498.985 241.724 493.885 239.885 489.604 231.057C488.983 229.781 489.427 228.238 490.633 227.492H490.64Z" fill="#EA4722"/>
<path d="M509.178 205.594C509.178 205.594 509.15 205.594 509.129 205.594L491.903 205.84C489.42 205.875 487.332 204.22 487.043 201.986L485.181 187.592C485.068 186.732 485.315 185.88 485.872 185.182C486.493 184.407 487.452 183.9 488.503 183.808C489.956 183.674 491.952 183.456 494.146 183.216C498.929 182.695 504.353 182.096 507.542 181.983C507.563 181.983 507.591 181.983 507.612 181.983C509.898 181.927 511.894 183.273 512.487 185.267C513.467 188.564 513.538 194.842 513.531 201.528C513.531 203.719 511.577 205.537 509.171 205.594H509.178ZM488.637 185.203C487.967 185.267 487.36 185.577 486.972 186.063C486.655 186.457 486.514 186.937 486.577 187.416L488.439 201.81C488.637 203.339 490.118 204.466 491.889 204.438L509.115 204.191C509.115 204.191 509.136 204.191 509.15 204.191C510.794 204.149 512.134 202.965 512.134 201.528C512.141 194.947 512.077 188.782 511.146 185.668C510.737 184.287 509.214 183.294 507.598 183.393C504.459 183.505 498.83 184.125 494.301 184.618C492.093 184.858 490.09 185.076 488.637 185.217V185.203Z" fill="white"/>
<path d="M490.52 186.605C494.132 186.274 501.976 185.281 505.708 185.147C507.288 185.091 508.698 186.007 509.101 187.366C509.884 190.009 509.919 195.307 509.912 200.204C509.912 201.669 508.593 202.874 506.949 202.895L493.18 203.092C491.487 203.114 490.055 202 489.857 200.5L488.369 188.994C488.214 187.803 489.18 186.725 490.52 186.598V186.605Z" fill="#D8D8D8"/>
<path d="M523.851 190.248C523.124 190.248 522.687 190.819 522.891 191.523L524.634 197.519C524.838 198.217 525.6 198.78 526.327 198.759L613.218 196.667C613.944 196.652 614.515 196.04 614.48 195.314L614.304 191.551C614.269 190.826 613.648 190.227 612.914 190.227L523.836 190.255L523.851 190.248Z" fill="#D8D8D8"/>
<path d="M491.31 188.853C492.573 188.071 494.224 188.479 494.978 189.755L498.52 195.758C498.872 196.357 499.761 196.3 500.036 195.659L508.007 176.72C508.402 175.776 509.806 176.058 509.813 177.079C509.862 182.815 508.607 193.743 499.655 203.085C499.655 203.085 494.555 201.246 490.273 192.418C489.653 191.143 490.097 189.6 491.303 188.853H491.31Z" fill="#EA4722"/>
<path d="M509.397 281.102H509.348L492.122 281.356C489.639 281.391 487.551 279.735 487.262 277.502L485.399 263.108C485.286 262.248 485.533 261.396 486.091 260.698C486.711 259.923 487.671 259.416 488.722 259.324C490.175 259.19 492.171 258.972 494.365 258.732C499.148 258.211 504.572 257.619 507.76 257.499C507.782 257.499 507.81 257.499 507.831 257.499C510.116 257.443 512.113 258.789 512.705 260.783C513.686 264.08 513.756 270.358 513.749 277.044C513.749 279.235 511.795 281.053 509.39 281.109L509.397 281.102ZM488.856 260.712C488.186 260.776 487.579 261.086 487.191 261.572C486.874 261.966 486.732 262.445 486.796 262.924L488.658 277.319C488.856 278.848 490.337 279.975 492.108 279.947L509.333 279.7C509.333 279.7 509.355 279.7 509.369 279.7C511.012 279.658 512.353 278.474 512.353 277.037C512.36 270.456 512.296 264.291 511.365 261.177C510.956 259.796 509.432 258.817 507.817 258.901C504.678 259.014 499.049 259.634 494.52 260.127C492.312 260.367 490.309 260.585 488.856 260.726V260.712Z" fill="white"/>
<path d="M490.739 262.121C494.351 261.79 502.195 260.796 505.926 260.663C507.506 260.606 508.917 261.522 509.319 262.882C510.102 265.524 510.138 270.823 510.131 275.719C510.131 277.185 508.811 278.39 507.168 278.411L493.398 278.608C491.706 278.629 490.274 277.516 490.076 276.015L488.588 264.51C488.432 263.319 489.399 262.241 490.739 262.114V262.121Z" fill="#D8D8D8"/>
<path d="M524.069 265.764C523.343 265.764 522.905 266.335 523.11 267.039L524.852 273.035C525.057 273.732 525.819 274.296 526.545 274.275L613.436 272.182C614.163 272.168 614.734 271.555 614.699 270.83L614.523 267.067C614.487 266.342 613.867 265.743 613.133 265.743L524.055 265.771L524.069 265.764Z" fill="#D8D8D8"/>
<path d="M491.529 264.362C492.792 263.58 494.442 263.988 495.197 265.264L498.738 271.267C499.091 271.866 499.98 271.809 500.255 271.161L508.226 252.222C508.621 251.278 510.025 251.56 510.032 252.581C510.081 258.317 508.826 269.245 499.874 278.587C499.874 278.587 494.774 276.748 490.492 267.92C489.871 266.645 490.316 265.102 491.522 264.355L491.529 264.362Z" fill="#EA4722"/>
<path d="M508.642 316.542C508.642 316.542 508.614 316.542 508.6 316.542L491.374 316.789C488.891 316.824 486.803 315.168 486.514 312.935L484.652 298.54C484.539 297.681 484.786 296.828 485.343 296.131C485.964 295.356 486.923 294.848 487.974 294.75C489.42 294.616 491.417 294.398 493.61 294.158C498.16 293.658 503.825 293.038 507.013 292.925C509.277 292.862 511.358 294.193 511.958 296.208C512.938 299.506 513.009 305.783 513.002 312.47C513.002 314.661 511.048 316.479 508.642 316.535V316.542ZM488.101 296.152C487.431 296.215 486.824 296.525 486.436 297.012C486.119 297.406 485.978 297.885 486.041 298.364L487.904 312.759C488.101 314.288 489.582 315.415 491.353 315.387L508.579 315.14C510.201 315.07 511.598 313.921 511.598 312.47C511.605 305.889 511.542 299.724 510.61 296.61C510.201 295.229 508.678 294.271 507.062 294.334C503.923 294.447 498.287 295.067 493.758 295.56C491.558 295.8 489.554 296.018 488.094 296.152H488.101Z" fill="white"/>
<path d="M489.984 297.561C493.596 297.23 501.44 296.243 505.171 296.103C506.752 296.046 508.162 296.962 508.564 298.322C509.347 300.964 509.383 306.262 509.376 311.159C509.376 312.625 508.057 313.83 506.413 313.851L492.644 314.048C490.951 314.069 489.519 312.956 489.321 311.455L487.833 299.95C487.678 298.759 488.644 297.681 489.984 297.554V297.561Z" fill="#D8D8D8"/>
<path d="M523.314 301.204C522.588 301.204 522.151 301.774 522.355 302.479L524.097 308.475C524.302 309.172 525.064 309.736 525.79 309.715L612.681 307.622C613.408 307.608 613.979 306.995 613.944 306.27L613.768 302.5C613.732 301.774 613.112 301.176 612.378 301.176L523.3 301.204H523.314Z" fill="#D8D8D8"/>
<path d="M490.774 299.809C492.037 299.027 493.688 299.435 494.442 300.71L497.983 306.713C498.336 307.312 499.225 307.256 499.5 306.608L507.471 287.669C507.866 286.725 509.27 287.007 509.277 288.028C509.326 293.763 508.071 304.691 499.119 314.034C499.119 314.034 494.019 312.195 489.737 303.367C489.117 302.091 489.561 300.548 490.767 299.802L490.774 299.809Z" fill="#EA4722"/>
<path d="M507.57 353.102C507.57 353.102 507.542 353.102 507.52 353.102L490.295 353.349C487.812 353.384 485.724 351.728 485.434 349.495L483.572 335.101C483.459 334.241 483.706 333.388 484.263 332.691C484.884 331.916 485.844 331.409 486.895 331.317C488.348 331.183 490.344 330.965 492.538 330.725C497.32 330.204 502.745 329.605 505.933 329.492C508.275 329.464 510.279 330.76 510.878 332.775C511.859 336.073 511.929 342.351 511.922 349.037C511.922 351.228 509.968 353.046 507.563 353.102H507.57ZM487.029 332.712C486.358 332.775 485.752 333.085 485.364 333.572C485.046 333.966 484.905 334.445 484.969 334.924L486.831 349.319C487.029 350.848 488.51 351.975 490.28 351.947L507.506 351.7C507.506 351.7 507.527 351.7 507.542 351.7C509.185 351.658 510.525 350.474 510.525 349.037C510.532 342.456 510.469 336.291 509.538 333.177C509.129 331.796 507.605 330.852 505.99 330.901C502.851 331.014 497.222 331.634 492.693 332.127C490.485 332.367 488.482 332.585 487.029 332.726V332.712Z" fill="white"/>
<path d="M488.912 334.114C492.524 333.783 500.368 332.797 504.099 332.656C505.679 332.599 507.09 333.515 507.492 334.875C508.275 337.517 508.31 342.816 508.303 347.712C508.303 349.178 506.984 350.383 505.341 350.404L491.571 350.601C489.878 350.622 488.446 349.509 488.249 348.008L486.761 336.503C486.605 335.312 487.572 334.234 488.912 334.107V334.114Z" fill="#D8D8D8"/>
<path d="M522.235 337.757C521.509 337.757 521.071 338.327 521.276 339.032L523.018 345.028C523.223 345.725 523.985 346.289 524.711 346.268L611.602 344.175C612.329 344.161 612.9 343.548 612.865 342.823L612.689 339.06C612.653 338.334 612.033 337.736 611.299 337.736L522.221 337.764L522.235 337.757Z" fill="#D8D8D8"/>
<path d="M489.702 336.362C490.965 335.58 492.622 335.988 493.37 337.264L496.911 343.267C497.264 343.866 498.153 343.809 498.428 343.161L506.399 324.222C506.794 323.278 508.198 323.56 508.205 324.581C508.254 330.317 506.998 341.245 498.047 350.587C498.047 350.587 492.947 348.748 488.665 339.92C488.044 338.645 488.489 337.102 489.695 336.355L489.702 336.362Z" fill="#EA4722"/>
<path d="M555.89 102.543C550.395 98.6539 545.584 98.6892 542.191 99.6615C539.094 100.549 537.07 103.508 537.338 106.714L538.664 122.637L556.017 124.321C556.017 124.321 566.668 110.174 555.883 102.543H555.89ZM548.144 115.317C545.753 115.296 543.827 113.344 543.849 110.956C543.87 108.567 545.824 106.644 548.215 106.665C550.606 106.686 552.532 108.638 552.511 111.026C552.49 113.415 550.536 115.338 548.144 115.317Z" fill="#24252B"/>
<path d="M540.159 116.346C539.856 116.233 539.63 115.951 539.602 115.613L539.39 113.077C539.348 112.604 539.701 112.189 540.173 112.146C540.646 112.104 541.062 112.457 541.104 112.929L541.316 115.465C541.358 115.937 541.006 116.353 540.533 116.395C540.399 116.409 540.272 116.388 540.159 116.346ZM539.743 111.379C539.44 111.266 539.214 110.984 539.186 110.646L539.023 108.722C538.748 105.46 540.829 102.445 543.968 101.55C546.113 100.937 548.321 100.866 550.528 101.331C550.987 101.437 551.29 101.888 551.192 102.353C551.093 102.818 550.634 103.114 550.169 103.015C548.243 102.607 546.31 102.67 544.441 103.198C542.092 103.868 540.533 106.129 540.737 108.581L540.9 110.505C540.942 110.977 540.589 111.393 540.117 111.435C539.983 111.449 539.856 111.428 539.743 111.386V111.379Z" fill="#BDD0FB"/>
<path d="M514.878 132.727L514.941 124.73C514.963 121.968 517.276 119.777 520.034 119.89L575.239 122.236C577.687 122.342 579.655 124.286 579.782 126.738L580.177 134.432L514.864 132.734L514.878 132.727Z" fill="#24252B"/>
<path d="M533.169 123.088C532.893 123.088 532.675 122.856 532.675 122.588C532.675 122.313 532.901 122.088 533.176 122.095L535.553 122.116C535.842 122.116 536.054 122.341 536.047 122.616C536.047 122.891 535.821 123.117 535.546 123.109L533.169 123.088Z" fill="#BDD0FB"/>
<path d="M517.587 130.62C517.255 130.501 517.029 130.176 517.029 129.81L517.057 126.576C517.072 125.244 517.594 124.004 518.546 123.067C519.491 122.137 520.747 121.63 522.08 121.637L530.813 121.707C531.285 121.707 531.666 122.102 531.666 122.574C531.666 123.046 531.271 123.427 530.799 123.427L522.066 123.356C520.267 123.342 518.793 124.794 518.779 126.583L518.75 129.817C518.75 130.289 518.355 130.67 517.883 130.67C517.777 130.67 517.678 130.648 517.587 130.613V130.62Z" fill="#BDD0FB"/>
<path d="M497.596 129.655L594.165 130.451C597.635 130.479 600.584 133.002 601.148 136.419L601.226 136.891C601.847 140.639 598.933 144.042 595.124 144.007L496.051 143.19C493.772 143.169 491.974 141.252 492.108 138.983L492.354 134.559C492.51 131.79 494.816 129.634 497.596 129.655Z" fill="#24252B"/>
<path d="M351.888 145.649C364.212 157.739 374.856 170.309 384.146 183.259C397.986 151.736 412.743 122.454 428.713 96.1456L467.877 83.1111C440.896 118.248 412.136 170.605 387.553 223.123C369.777 198.097 352.015 173.127 339.198 164.263L351.888 145.656V145.649Z" fill="#EA4722"/>
<path d="M256.116 393.883C259.89 394.207 266.443 394.736 271.606 394.968C274.71 395.102 276.502 394.799 277.532 394.39C277.532 394.503 277.532 394.616 277.525 394.714C277.504 395.257 277.059 395.694 276.509 395.722C266.746 396.265 258.987 395.912 256.222 395.743C255.65 395.708 255.312 395.088 255.601 394.602C255.749 394.355 255.925 394.123 256.116 393.883Z" fill="#24252B"/>
<path d="M271.614 394.961C266.45 394.736 259.897 394.207 256.123 393.876C259.833 389.325 271.614 386.26 271.614 386.26H274.943C277.229 389.557 277.56 392.693 277.539 394.376C276.509 394.785 274.724 395.095 271.614 394.954V394.961Z" fill="#24252B"/>
<path d="M275.5 380.842L275.19 386.999C275.155 387.669 274.654 388.225 273.991 388.324C273.328 388.416 272.439 388.43 271.494 388.12C270.915 387.929 270.485 387.436 270.372 386.844L269.293 380.856H275.5V380.842Z" fill="url(#paint0_linear_13_4613)"/>
<path d="M318.713 394.919C320.35 394.693 321.09 393.841 321.401 392.932C321.401 392.939 321.401 392.946 321.401 392.953C321.64 393.911 321.083 394.905 319.969 395.377C318.621 395.947 317.147 396.046 315.997 395.997C314.77 395.947 313.641 395.44 313.021 394.623V394.609C314.248 395.222 315.976 395.292 318.706 394.912L318.713 394.919Z" fill="#24252B"/>
<path d="M310.996 380.799H313.74C317.923 380.715 320.547 389.522 321.401 392.932C321.09 393.841 320.35 394.686 318.713 394.919C315.983 395.299 314.248 395.229 313.021 394.616C310.763 391.65 309.642 387.302 309.106 384.766C308.492 381.877 310.996 380.806 310.996 380.806V380.799Z" fill="#24252B"/>
<path d="M313.388 375.085L314.911 381.137C315.095 381.877 314.742 382.645 314.058 382.998C313.204 383.434 312.005 383.892 310.905 383.758C310.383 383.695 309.952 383.329 309.783 382.843L307.547 376.473L313.395 375.078L313.388 375.085Z" fill="url(#paint1_linear_13_4613)"/>
<path d="M315.207 376.839C313.31 378.516 307.145 378.742 307.145 378.742C284.932 325.497 275.846 317.93 275.846 317.93C279.056 338.025 276.361 382.525 276.361 382.525C272.693 384.139 267.967 382.525 267.967 382.525C267.671 349.622 262.606 320.925 256.624 298.308C271.635 297.97 279.62 292.841 282.223 290.783C294.737 310.934 315.193 376.846 315.193 376.846L315.207 376.839Z" fill="#24252B"/>
<path d="M278.421 229.535C281.263 243.69 280.241 269.033 279.577 280.588C279.387 283.836 281.658 288.338 283.492 291.41C283.782 291.889 283.605 292.509 283.104 292.763C280.029 294.341 269.624 299.231 257.562 299.837C256.758 299.879 256.038 299.33 255.834 298.555C246.889 265.186 236.492 243.859 236.492 243.859C247.969 225.554 278.428 229.535 278.428 229.535H278.421Z" fill="#EA4722"/>
<path d="M274.329 316.669C274.456 316.669 274.583 316.634 274.696 316.564C275.035 316.359 275.141 315.922 274.936 315.591C274.816 315.394 271.945 310.758 266.133 307.954C265.78 307.785 265.357 307.933 265.18 308.285C265.011 308.637 265.159 309.06 265.512 309.236C270.929 311.85 273.695 316.289 273.723 316.331C273.857 316.549 274.09 316.669 274.329 316.669Z" fill="#24252B"/>
<path d="M296.246 270.167C295.337 276.762 292.635 283.956 287.246 291.593L285.193 289.924C285.193 289.924 287.563 280.327 286.216 269.442C289.545 268.794 293.474 269.463 296.246 270.16V270.167Z" fill="url(#paint2_linear_13_4613)"/>
<path d="M275.247 247.008L278.421 229.542C278.421 229.542 299.625 245.733 296.246 270.175C293.474 269.47 289.538 268.808 286.216 269.456C285.249 261.614 282.35 253.096 275.254 247.015L275.247 247.008Z" fill="#EA4722"/>
<path d="M236.485 243.866L244.668 261.473C243.341 272.105 237.628 276.699 231.462 278.46C231.075 273.613 229.854 269.703 228.711 266.997C236.591 258.873 236.478 243.866 236.478 243.866H236.485Z" fill="#EA4722"/>
<path d="M228.718 266.997C229.854 269.703 231.082 273.62 231.469 278.46C215.02 284.837 210.674 272.472 210.674 272.472L213.715 271.936C220.578 272.662 225.375 270.449 228.725 266.99L228.718 266.997Z" fill="url(#paint3_linear_13_4613)"/>
<path d="M244.026 222.123L247.976 236.63C248.42 238.258 250.184 239.138 251.757 238.511C253.45 237.835 255.601 236.912 257.449 235.911C259.424 234.847 260.045 232.311 258.79 230.444L250.572 218.206L244.019 222.116L244.026 222.123Z" fill="url(#paint4_linear_13_4613)"/>
<path d="M203.134 262.762L304.387 299.569C308.633 301.112 310.665 305.946 308.795 310.053L308.485 310.73C306.827 314.365 302.524 315.957 298.899 314.281L200.58 268.85L203.134 262.755V262.762Z" fill="#24252B"/>
<path d="M100.971 240.618C100.971 270.745 125.871 295.173 156.591 295.173C187.312 295.173 212.212 270.752 212.212 240.618C212.212 210.483 187.312 186.063 156.591 186.063C125.871 186.063 100.971 210.483 100.971 240.618ZM109.139 240.618C109.139 214.915 130.386 194.081 156.591 194.081C182.797 194.081 204.044 214.915 204.044 240.618C204.044 266.321 182.797 287.155 156.591 287.155C130.386 287.155 109.139 266.321 109.139 240.618Z" fill="#24252B"/>
<path d="M207.98 247.163C207.98 247.163 207.966 247.163 207.959 247.163C207.867 247.149 207.81 247.072 207.817 246.98C207.98 245.705 208.093 244.401 208.163 243.112C208.163 243.02 208.234 242.943 208.332 242.957C208.424 242.957 208.488 243.035 208.488 243.126C208.424 244.43 208.304 245.733 208.142 247.022C208.135 247.1 208.064 247.163 207.98 247.163ZM207.599 231.909C207.521 231.909 207.458 231.853 207.444 231.775C206.823 228.302 205.821 224.892 204.474 221.63C200.658 212.386 194.196 204.509 185.788 198.844C177.175 193.045 167.081 189.98 156.591 189.98C146.73 189.98 137.136 192.714 128.862 197.893C128.785 197.942 128.686 197.914 128.643 197.843C128.594 197.766 128.622 197.667 128.693 197.625C137.024 192.418 146.666 189.663 156.591 189.663C167.144 189.663 177.302 192.749 185.964 198.583C194.429 204.283 200.933 212.21 204.77 221.51C206.125 224.793 207.133 228.232 207.761 231.726C207.775 231.811 207.719 231.895 207.634 231.909C207.627 231.909 207.613 231.909 207.606 231.909H207.599Z" fill="#91B3FA"/>
<path d="M286.032 289.635L276.46 288.853L272.312 292.672C272.312 292.672 273.293 294.024 276.361 293.249C279.429 292.474 283.627 292.277 283.627 292.277C283.627 292.277 287.859 294.186 287.908 290.614L286.025 289.628L286.032 289.635Z" fill="url(#paint5_linear_13_4613)"/>
<path d="M211.888 274.733C211.062 275.381 208.227 274.029 206.491 273.099C205.645 272.648 205.236 271.654 205.525 270.745C205.941 269.428 206.639 267.73 207.493 267.518C208.918 267.166 215.295 272.077 211.888 274.74V274.733Z" fill="url(#paint6_linear_13_4613)"/>
<path d="M302.39 312.66C302.327 312.66 302.263 312.618 302.235 312.554C302.207 312.47 302.249 312.378 302.334 312.35C305.282 311.336 306.827 309.673 306.926 307.411C307.025 305.128 305.586 303.008 303.335 302.134L291.181 297.399C291.097 297.364 291.054 297.272 291.09 297.188C291.125 297.103 291.217 297.061 291.301 297.096L303.455 301.831C305.832 302.754 307.356 305.001 307.25 307.418C307.145 309.821 305.529 311.582 302.447 312.646C302.432 312.646 302.411 312.653 302.397 312.653L302.39 312.66Z" fill="#91B3FA"/>
<path d="M287.492 295.948C287.492 295.948 287.45 295.948 287.436 295.934L285.863 295.321C285.778 295.286 285.736 295.194 285.771 295.109C285.807 295.025 285.898 294.983 285.983 295.018L287.556 295.631C287.641 295.666 287.683 295.758 287.648 295.842C287.619 295.906 287.563 295.948 287.499 295.948H287.492Z" fill="#91B3FA"/>
<path d="M243.173 207.883C243.173 207.883 239.899 215.387 239.681 219.326C239.462 223.264 238.609 225.822 243.173 226.611C247.729 227.407 251.574 225.138 253.655 221.214C253.655 221.214 256.914 215.169 256.187 212.689C255.453 210.216 243.173 207.876 243.173 207.876V207.883Z" fill="url(#paint7_linear_13_4613)"/>
<path d="M252.096 218.396H251.517C251.517 218.396 253.894 213.527 251.806 212.674C249.718 211.822 241.451 210.138 239.666 207.207C237.945 204.382 239.483 200.732 241.776 199.71C241.924 199.647 242.093 199.71 242.164 199.851L242.354 200.211C242.481 200.457 242.848 200.422 242.925 200.154C242.996 199.901 243.342 199.844 243.483 200.07C244.026 200.943 245.507 202.374 249.472 203.099C255.101 204.135 258.818 206.411 258.91 210.293C258.91 210.54 259.178 210.673 259.389 210.547C259.806 210.293 260.469 210.173 261.357 210.92C262.902 212.217 262.267 215.584 258.882 218.353C258.719 218.487 258.719 218.734 258.896 218.847C259.509 219.248 260.426 220.192 258.056 221.46C255.63 222.757 254.198 222.616 253.655 222.475C253.506 222.44 253.408 222.306 253.422 222.158L253.633 218.72C253.647 218.544 253.499 218.389 253.323 218.389H252.096V218.396Z" fill="#24252B"/>
<path d="M251.955 219.114C251.955 219.114 253.203 214.323 255.355 215.662C257.506 217.008 254.24 221.031 252.505 221.214L251.955 219.114Z" fill="url(#paint8_linear_13_4613)"/>
<path d="M132.671 232.191L151.597 246.903L187.925 217.156L197.3 227.844L151.597 275.614L122.309 243.57L132.671 232.191Z" fill="#32A981"/>
<path d="M592.183 32.1637C566.908 31.4873 441.89 27.5065 416.228 26.6892C413.695 26.6117 411.622 30.3177 411.622 34.9186V56.1966C411.622 60.7411 413.646 64.433 416.15 64.433H592.112C594.616 64.433 596.641 60.7481 596.641 56.1966V40.3931C596.641 35.8909 594.658 32.2271 592.183 32.1566V32.1637Z" fill="#24252B"/>
<path d="M424.869 59.3036L431.401 55.8864C431.909 55.6187 432.516 55.6187 433.023 55.8864L439.541 59.3247C440.818 60.0011 442.314 58.916 442.074 57.4928L440.839 50.2357C440.74 49.6721 440.931 49.0943 441.34 48.6998L446.631 43.5705C447.667 42.563 447.096 40.8086 445.671 40.6043L438.377 39.5333C437.813 39.4488 437.319 39.0965 437.065 38.5821L433.813 31.9733C433.179 30.6769 431.33 30.6769 430.689 31.9733L427.415 38.5751C427.162 39.0894 426.668 39.4417 426.103 39.5263L418.81 40.5761C417.378 40.7804 416.806 42.5348 417.836 43.5423L423.106 48.6927C423.515 49.0943 423.705 49.6721 423.606 50.2357L422.351 57.4928C422.104 58.916 423.599 60.0011 424.876 59.3317L424.869 59.3036Z" fill="#32A981"/>
<path d="M458.566 60.2618L465.098 56.8446C465.606 56.5769 466.212 56.5769 466.72 56.8446L473.238 60.2829C474.515 60.9593 476.01 59.8743 475.77 58.4511L474.536 51.194C474.437 50.6303 474.628 50.0526 475.037 49.658L480.327 44.5288C481.364 43.5212 480.793 41.7668 479.368 41.5625L472.074 40.4916C471.51 40.407 471.016 40.0547 470.762 39.5404L467.51 32.9315C466.875 31.6351 465.027 31.6351 464.385 32.9315L461.112 39.5334C460.858 40.0477 460.365 40.4 459.8 40.4845L452.506 41.5343C451.074 41.7387 450.503 43.493 451.533 44.5006L456.802 49.651C457.211 50.0526 457.402 50.6303 457.303 51.194L456.048 58.4511C455.801 59.8743 457.296 60.9593 458.573 60.29L458.566 60.2618Z" fill="#32A981"/>
<path d="M492.552 60.452L499.084 57.0348C499.592 56.7671 500.198 56.7671 500.706 57.0348L507.224 60.4731C508.501 61.1495 509.996 60.0645 509.756 58.6413L508.522 51.3842C508.423 50.8205 508.614 50.2428 509.023 49.8482L514.313 44.7189C515.35 43.7114 514.779 41.957 513.354 41.7527L506.06 40.6818C505.496 40.5972 505.002 40.2449 504.748 39.7306L501.496 33.1217C500.861 31.8253 499.013 31.8253 498.371 33.1217L495.098 39.7235C494.844 40.2379 494.35 40.5902 493.786 40.6747L486.492 41.7245C485.06 41.9288 484.489 43.6832 485.519 44.6908L490.788 49.8412C491.197 50.2428 491.388 50.8205 491.289 51.3842L490.033 58.6413C489.786 60.0645 491.282 61.1495 492.559 60.4802L492.552 60.452Z" fill="#32A981"/>
<path d="M525.551 60.8397L532.083 57.4225C532.591 57.1548 533.197 57.1548 533.705 57.4225L540.223 60.8608C541.5 61.5372 542.995 60.4522 542.755 59.0289L541.521 51.7719C541.422 51.2082 541.613 50.6305 542.022 50.2359L547.312 45.1066C548.349 44.0991 547.778 42.3447 546.353 42.1404L539.059 41.0695C538.495 40.9849 538.001 40.6326 537.747 40.1183L534.495 33.5094C533.86 32.213 532.012 32.213 531.37 33.5094L528.097 40.1112C527.843 40.6256 527.349 40.9779 526.785 41.0624L519.491 42.1122C518.059 42.3165 517.488 44.0709 518.518 45.0785L523.787 50.2289C524.196 50.6305 524.387 51.2082 524.288 51.7719L523.032 59.0289C522.785 60.4522 524.281 61.5372 525.558 60.8679L525.551 60.8397Z" fill="#32A981"/>
<path d="M561.561 398.695C562.563 398.695 563.444 398.054 563.614 397.145L596.027 225.758C596.217 224.744 595.455 223.786 594.32 223.617C593.184 223.447 592.112 224.131 591.921 225.138L559.508 396.525C559.318 397.54 560.08 398.498 561.215 398.667C561.335 398.681 561.448 398.695 561.568 398.695H561.561Z" fill="#24252B"/>
<path d="M670.912 398.695C671.046 398.695 671.187 398.681 671.328 398.66C672.457 398.456 673.183 397.476 672.957 396.469L634.746 227.316C634.52 226.308 633.42 225.653 632.291 225.857C631.163 226.061 630.436 227.041 630.662 228.048L668.873 397.202C669.071 398.082 669.945 398.695 670.912 398.695Z" fill="#24252B"/>
<path d="M586.292 268.11H641.687C642.837 268.11 643.768 267.279 643.768 266.25C643.768 265.221 642.837 264.39 641.687 264.39H586.292C585.143 264.39 584.211 265.221 584.211 266.25C584.211 267.279 585.143 268.11 586.292 268.11Z" fill="#24252B"/>
<path d="M587.301 268.11H640.686C641.793 268.11 642.696 267.279 642.696 266.25C642.696 265.221 641.8 264.39 640.686 264.39H587.301C586.193 264.39 585.291 265.221 585.291 266.25C585.291 267.279 586.186 268.11 587.301 268.11Z" fill="#24252B"/>
<path d="M586.292 299.097H641.687C642.837 299.097 643.768 298.266 643.768 297.237C643.768 296.208 642.837 295.377 641.687 295.377H586.292C585.143 295.377 584.211 296.208 584.211 297.237C584.211 298.266 585.143 299.097 586.292 299.097Z" fill="#24252B"/>
<path d="M581.263 299.097H648.417C649.566 299.097 650.497 298.266 650.497 297.237C650.497 296.208 649.566 295.377 648.417 295.377H581.263C580.113 295.377 579.182 296.208 579.182 297.237C579.182 298.266 580.113 299.097 581.263 299.097Z" fill="#24252B"/>
<path d="M586.292 330.091H641.687C642.837 330.091 643.768 329.26 643.768 328.231C643.768 327.202 642.837 326.371 641.687 326.371H586.292C585.143 326.371 584.211 327.202 584.211 328.231C584.211 329.26 585.143 330.091 586.292 330.091Z" fill="#24252B"/>
<path d="M574.85 330.091H655.238C656.388 330.091 657.319 329.26 657.319 328.231C657.319 327.202 656.388 326.371 655.238 326.371H574.85C573.701 326.371 572.77 327.202 572.77 328.231C572.77 329.26 573.701 330.091 574.85 330.091Z" fill="#24252B"/>
<path d="M586.292 361.078H661.692C662.842 361.078 663.773 360.247 663.773 359.218C663.773 358.189 662.842 357.358 661.692 357.358H586.292C585.143 357.358 584.211 358.189 584.211 359.218C584.211 360.247 585.143 361.078 586.292 361.078Z" fill="#24252B"/>
<path d="M569.659 361.078H661.692C662.842 361.078 663.773 360.247 663.773 359.218C663.773 358.189 662.842 357.358 661.692 357.358H569.659C568.509 357.358 567.578 358.189 567.578 359.218C567.578 360.247 568.509 361.078 569.659 361.078Z" fill="#24252B"/>
<path d="M176.322 126.231L173.937 115.761H163.117L160.732 126.231H153.008L163.293 84.5764H173.775L184.088 126.231H176.336H176.322ZM172.484 108.919L170.269 99.2737C170.135 98.689 169.839 97.2164 169.374 94.8631C168.908 92.5099 168.633 90.9316 168.534 90.1355C168.287 91.763 167.977 93.5526 167.596 95.5113C167.215 97.47 166.235 101.937 164.64 108.919H172.484Z" fill="#24252B"/>
<path d="M210.378 97.5124C210.378 101.923 209.264 105.298 207.042 107.658C204.813 110.011 201.603 111.188 197.399 111.188H195.466V126.224H187.742V84.7385H198.281C206.351 84.7385 210.385 88.9941 210.385 97.5053L210.378 97.5124ZM195.466 104.495H196.941C198.831 104.495 200.249 103.973 201.173 102.931C202.097 101.888 202.563 100.19 202.563 97.8224C202.563 95.6453 202.139 94.0318 201.286 92.982C200.432 91.9322 199.12 91.4038 197.336 91.4038H195.459V104.488L195.466 104.495Z" fill="#24252B"/>
<path d="M238.249 97.5124C238.249 101.923 237.134 105.298 234.912 107.658C232.683 110.011 229.473 111.188 225.269 111.188H223.336V126.224H215.612V84.7385H226.151C234.221 84.7385 238.256 88.9941 238.256 97.5053L238.249 97.5124ZM223.336 104.495H224.811C226.701 104.495 228.112 103.973 229.043 102.931C229.967 101.888 230.433 100.19 230.433 97.8224C230.433 95.6453 230.009 94.0318 229.156 92.982C228.302 91.9322 226.99 91.4038 225.206 91.4038H223.329V104.488L223.336 104.495Z" fill="#24252B"/>
<path d="M251.207 110.082V126.231H243.483V84.7456H253.598C257.88 84.7456 261.033 85.7602 263.072 87.7823C265.11 89.8044 266.126 92.8975 266.126 97.0615C266.126 102.303 264.356 105.96 260.815 108.046L268.8 126.238H260.532L253.972 110.089H251.214L251.207 110.082ZM251.207 103.445H253.196C255.016 103.445 256.321 102.931 257.118 101.902C257.915 100.873 258.31 99.3373 258.31 97.294C258.31 95.2507 257.887 93.6655 257.048 92.7707C256.208 91.8759 254.903 91.4249 253.14 91.4249H251.207V103.459V103.445Z" fill="#24252B"/>
<path d="M301.149 105.432C301.149 112.301 299.858 117.579 297.284 121.263C294.709 124.955 291.027 126.794 286.23 126.794C281.433 126.794 277.723 124.955 275.148 121.278C272.574 117.6 271.283 112.294 271.283 105.375C271.283 98.4565 272.574 93.2427 275.148 89.586C277.723 85.9222 281.433 84.0974 286.287 84.0974C291.14 84.0974 294.751 85.9363 297.312 89.6142C299.865 93.2921 301.149 98.5693 301.149 105.432ZM279.19 105.432C279.19 110.159 279.79 113.767 280.982 116.24C282.174 118.72 283.923 119.96 286.237 119.96C290.893 119.96 293.228 115.12 293.228 105.432C293.228 95.744 290.914 90.9036 286.294 90.9036C283.945 90.9036 282.174 92.1366 280.982 94.6096C279.79 97.0756 279.19 100.69 279.19 105.432Z" fill="#24252B"/>
<path d="M325.069 84.7456H332.857L323.087 126.231H313.261L303.547 84.7456H311.328L316.752 110.082C317.246 112.238 317.726 115.331 318.198 119.361C318.594 115.937 319.094 112.844 319.701 110.082L325.069 84.7456Z" fill="#24252B"/>
<path d="M355.239 126.231H336.518V84.7456H355.239V91.4108H344.242V101.289H354.442V107.982H344.242V119.474H355.239V126.231Z" fill="#24252B"/>
<path d="M387.708 105.087C387.708 111.935 386.312 117.17 383.518 120.791C380.725 124.413 376.704 126.224 371.456 126.224H361.284V84.7385H372.394C377.226 84.7385 380.986 86.5211 383.674 90.0862C386.361 93.6513 387.708 98.6538 387.708 105.079V105.087ZM379.78 105.312C379.78 96.0398 377.226 91.4108 372.112 91.4108H369.015V119.474H371.512C374.334 119.474 376.415 118.297 377.762 115.944C379.11 113.591 379.78 110.047 379.78 105.319V105.312Z" fill="#24252B"/>
<path d="M295.323 209.56C294.61 209.645 293.905 209.314 293.517 208.708L291.281 205.213C289.327 205.157 287.394 204.854 285.51 204.311L282.308 206.953C281.687 207.468 280.813 207.531 280.121 207.108L275.049 204.015C274.358 203.6 274.012 202.789 274.189 202L275.078 197.949C273.73 196.526 272.581 194.948 271.635 193.242L267.502 192.855C266.697 192.777 266.034 192.2 265.844 191.425L264.447 185.654C264.257 184.872 264.588 184.055 265.266 183.625L268.764 181.392C268.821 179.44 269.124 177.509 269.667 175.635L267.022 172.437C266.507 171.817 266.444 170.943 266.867 170.252L269.963 165.186C270.38 164.503 271.191 164.151 271.981 164.327L276.037 165.215C277.462 163.869 279.042 162.721 280.749 161.776L281.137 157.648C281.215 156.844 281.793 156.182 282.569 155.992L288.346 154.597C289.136 154.407 289.94 154.731 290.378 155.407L292.621 158.902C294.575 158.958 296.508 159.261 298.384 159.804L301.587 157.161C302.207 156.654 303.082 156.584 303.766 156.999L308.845 160.092C309.529 160.508 309.875 161.318 309.706 162.1L308.817 166.159C310.164 167.582 311.314 169.16 312.259 170.865L316.393 171.253C317.197 171.33 317.86 171.908 318.051 172.683L319.447 178.454C319.638 179.236 319.306 180.053 318.629 180.483L315.13 182.716C315.074 184.668 314.77 186.598 314.227 188.473L316.873 191.671C317.387 192.291 317.444 193.172 317.028 193.855L313.931 198.921C313.515 199.605 312.704 199.95 311.921 199.781L307.858 198.893C306.433 200.239 304.853 201.387 303.145 202.331L302.758 206.46C302.68 207.263 302.101 207.926 301.326 208.116L295.548 209.511C295.471 209.532 295.4 209.546 295.323 209.553V209.56ZM284.869 201L285.645 201.253C287.732 201.937 289.898 202.275 292.078 202.261H292.896L295.598 206.46L299.887 205.424L300.359 200.45L301.086 200.084C303.04 199.097 304.803 197.808 306.348 196.244L306.919 195.659L311.808 196.73L314.107 192.968L310.919 189.114L311.173 188.339C311.857 186.26 312.196 184.097 312.182 181.913V181.096L316.386 178.397L315.349 174.113L310.369 173.641L310.002 172.916C309.014 170.964 307.723 169.203 306.158 167.66L305.572 167.089L306.644 162.206L302.877 159.909L299.019 163.094L298.243 162.84C296.162 162.157 293.996 161.819 291.81 161.833H290.991L288.29 157.634L284.001 158.669L283.528 163.643L282.802 164.01C280.848 164.996 279.084 166.286 277.539 167.85L276.968 168.435L272.08 167.364L269.78 171.126L272.968 174.98L272.715 175.755C272.03 177.834 271.692 179.997 271.706 182.181V182.998L267.502 185.697L268.539 189.98L273.519 190.452L273.886 191.178C274.873 193.13 276.164 194.891 277.73 196.434L278.315 197.005L277.243 201.888L281.01 204.184L284.869 201ZM293.651 197.688C290.159 198.097 286.646 197.336 283.592 195.476C279.987 193.278 277.448 189.804 276.453 185.704C274.4 177.235 279.627 168.674 288.106 166.624C292.212 165.63 296.465 166.293 300.07 168.491C303.682 170.689 306.214 174.163 307.209 178.263C307.477 179.355 307.625 180.476 307.653 181.596C307.674 182.413 307.032 183.09 306.207 183.111C305.389 183.132 304.711 182.484 304.69 181.666C304.669 180.757 304.549 179.842 304.331 178.954C303.519 175.621 301.46 172.796 298.525 171.013C295.591 169.224 292.134 168.688 288.798 169.491C281.906 171.161 277.652 178.115 279.324 184.999C280.135 188.332 282.195 191.157 285.13 192.94C288.064 194.729 291.52 195.265 294.857 194.461C297.121 193.912 299.195 192.763 300.846 191.143C301.424 190.572 302.362 190.572 302.941 191.157C303.512 191.742 303.505 192.672 302.927 193.25C300.895 195.251 298.349 196.667 295.555 197.336C294.921 197.491 294.286 197.604 293.644 197.681L293.651 197.688Z" fill="#32A981"/>
<path d="M292.734 188.754C291.81 188.86 290.864 188.776 289.947 188.494C288.226 187.958 286.808 186.789 285.969 185.189C285.129 183.597 284.96 181.765 285.489 180.046C286.025 178.327 287.196 176.911 288.797 176.072C290.392 175.234 292.226 175.065 293.947 175.593C295.668 176.129 297.086 177.298 297.925 178.897C299.661 182.188 298.391 186.281 295.097 188.015C294.349 188.409 293.552 188.656 292.734 188.747V188.754ZM291.506 178.277C291.048 178.334 290.596 178.468 290.18 178.693C289.284 179.165 288.621 179.961 288.325 180.927C288.022 181.892 288.12 182.921 288.593 183.815C289.066 184.71 289.863 185.372 290.829 185.668C291.795 185.971 292.825 185.873 293.721 185.401C295.576 184.428 296.289 182.124 295.308 180.278C294.836 179.384 294.039 178.721 293.072 178.425C292.557 178.263 292.028 178.221 291.506 178.277Z" fill="#32A981"/>
<path d="M248.71 176.389C248.554 176.41 248.392 176.396 248.23 176.354L245.465 175.642C244.929 175.501 244.534 175.036 244.491 174.487L244.35 172.697C243.631 172.275 242.968 171.774 242.361 171.204L240.612 171.556C240.061 171.669 239.511 171.422 239.229 170.943L237.776 168.477C237.494 167.998 237.543 167.392 237.91 166.969L239.067 165.609C238.862 164.806 238.749 163.982 238.721 163.15L237.226 162.164C236.76 161.854 236.541 161.283 236.683 160.748L237.395 157.986C237.536 157.443 238.016 157.056 238.559 157.014L240.344 156.873C240.767 156.154 241.268 155.492 241.839 154.886L241.479 153.138C241.373 152.589 241.62 152.032 242.1 151.75L244.562 150.299C245.049 150.017 245.655 150.074 246.078 150.433L247.433 151.588C248.237 151.384 249.062 151.271 249.895 151.243L250.882 149.749C251.193 149.284 251.757 149.066 252.3 149.207L255.065 149.919C255.601 150.052 255.996 150.517 256.039 151.074L256.18 152.864C256.899 153.286 257.562 153.787 258.169 154.357L259.918 154.005C260.462 153.892 261.026 154.139 261.308 154.625L262.754 157.077C263.036 157.556 262.987 158.155 262.627 158.585L261.463 159.945C261.668 160.748 261.781 161.572 261.809 162.403L263.304 163.39C263.77 163.7 263.989 164.271 263.847 164.806L263.135 167.568C262.994 168.103 262.528 168.491 261.978 168.54L260.186 168.681C259.763 169.4 259.262 170.062 258.691 170.668L259.044 172.422C259.157 172.965 258.91 173.522 258.43 173.803L255.968 175.255C255.488 175.537 254.875 175.487 254.452 175.121L253.097 173.965C252.293 174.17 251.468 174.283 250.635 174.311L249.648 175.804C249.436 176.129 249.083 176.333 248.71 176.382V176.389ZM246.643 173.648L248.145 174.036L249.443 172.084L250.057 172.098C251.073 172.12 252.067 171.986 253.034 171.683L253.619 171.499L255.404 173.021L256.744 172.232L256.279 169.935L256.723 169.513C257.449 168.815 258.056 168.012 258.529 167.117L258.811 166.575L261.146 166.391L261.534 164.891L259.58 163.594L259.594 162.981C259.615 161.974 259.474 160.973 259.178 160.008L258.994 159.423L260.518 157.641L259.728 156.302L257.435 156.767L257.012 156.323C256.314 155.597 255.51 154.991 254.614 154.519L254.071 154.238L253.887 151.905L252.385 151.518L251.087 153.47L250.473 153.455C249.464 153.434 248.463 153.575 247.496 153.871L246.911 154.054L245.126 152.532L243.786 153.322L244.251 155.611L243.807 156.034C243.08 156.732 242.474 157.535 242.001 158.43L241.719 158.972L239.384 159.155L238.996 160.656L240.95 161.946L240.936 162.558C240.915 163.566 241.056 164.567 241.352 165.532L241.536 166.117L240.012 167.899L240.802 169.238L243.095 168.773L243.518 169.217C244.216 169.942 245.02 170.548 245.916 171.02L246.459 171.302L246.643 173.634V173.648ZM259.389 155.745C259.389 155.745 259.389 155.745 259.389 155.752V155.745ZM251.136 170.696C250.163 170.809 249.168 170.746 248.195 170.492C246.121 169.956 244.385 168.646 243.299 166.807C242.213 164.968 241.91 162.812 242.446 160.748C242.982 158.676 244.294 156.943 246.135 155.858C249.937 153.617 254.861 154.893 257.097 158.69C257.386 159.184 257.626 159.705 257.802 160.24C257.993 160.825 257.675 161.452 257.097 161.643C256.518 161.833 255.891 161.523 255.693 160.938C255.566 160.55 255.397 160.17 255.185 159.818C253.563 157.07 250.008 156.154 247.264 157.774C245.93 158.557 244.985 159.811 244.597 161.311C244.209 162.805 244.428 164.362 245.211 165.694C245.994 167.025 247.249 167.97 248.752 168.357C250.247 168.745 251.806 168.526 253.139 167.744C254.042 167.216 254.783 166.448 255.284 165.532C255.573 164.989 256.25 164.792 256.793 165.088C257.33 165.384 257.534 166.053 257.238 166.589C256.547 167.857 255.524 168.914 254.268 169.654C253.295 170.224 252.23 170.584 251.143 170.71L251.136 170.696Z" fill="#32A981"/>
<path d="M568.03 79.8277L580.586 71.9929C581.559 71.3869 582.78 71.2953 583.831 71.7533L597.41 77.6435C600.069 78.799 602.898 76.4035 602.199 73.5922L598.623 59.2402C598.348 58.1269 598.637 56.9433 599.399 56.0837L609.204 45.0078C611.122 42.8378 609.719 39.4136 606.827 39.2092L592.056 38.1735C590.906 38.096 589.869 37.4548 589.29 36.4614L581.771 23.7228C580.297 21.2286 576.6 21.5034 575.514 24.1878L569.962 37.8987C569.532 38.9626 568.601 39.7517 567.479 39.9983L553.026 43.2041C550.197 43.8312 549.315 47.4316 551.537 49.2916L562.873 58.8033C563.755 59.5431 564.213 60.6704 564.108 61.8118L562.697 76.5303C562.422 79.412 565.575 81.3637 568.03 79.8277Z" fill="#32A981"/>
<path d="M598.771 70.2456C598.771 70.2456 578.181 96.5824 601.67 123.363L610.502 122.539C609.994 122.588 607.892 117.797 607.68 117.381C605.522 113.083 603.681 108.616 602.228 104.03C600.429 98.3368 599.208 92.3973 599.131 86.4155C599.089 83.3294 599.357 80.2505 600.02 77.2349C600.401 75.5087 601.042 74.1841 602.75 73.4796C604.605 72.7116 606.298 71.4222 607.229 69.6467C608.146 67.8923 608.238 65.7222 607.469 63.8904C606.806 62.3262 605.557 61.0932 604.033 60.3605C603.483 60.0998 599.23 59.1134 599.23 59.8391C599.23 61.523 600.274 62.9955 600.965 64.5315C602.249 67.4062 601.12 68.8083 598.764 70.2385L598.771 70.2456Z" fill="url(#paint9_linear_13_4613)"/>
<path d="M610.051 199.182C610.051 199.182 626.733 235.503 635.487 250.552C635.487 250.552 637.222 260.022 635.487 262.995L634.006 263.65L640.919 263.446C640.919 263.446 641.532 250.714 641.053 250.003C640.573 249.291 639.614 249.34 639.614 249.34C639.614 249.34 636.651 225.878 628.059 220.869L619.736 192.235L610.043 199.182H610.051Z" fill="url(#paint10_linear_13_4613)"/>
<path d="M631.057 265.433C631.05 265.602 636.461 265.524 639.395 265.468C640.481 265.447 641.406 264.686 641.638 263.629L643.86 251.982C644.072 250.876 643.367 249.798 642.266 249.552L641.025 249.27C641.025 249.27 639.254 251.693 639.811 253.969C640.369 256.252 640.862 262.156 639.459 262.84C638.055 263.53 634.006 263.65 634.006 263.65C634.006 263.65 631.142 263.932 631.05 265.433H631.057Z" fill="#24252B"/>
<path d="M594.235 265.644C593.685 265.954 593.911 266.792 594.546 266.785C599.462 266.736 610.488 266.581 611.461 266.172C612.724 265.644 611.003 261.107 609.183 259.571L599.159 262.84L594.235 265.644Z" fill="#24252B"/>
<path d="M591.125 196.864C591.125 196.864 601.91 248.967 604.957 259.127L597.741 263.65C597.741 263.65 601.36 263.037 604.04 262.84C606.721 262.642 609.19 259.571 609.19 259.571L608.322 258.197C608.322 258.197 605.62 206.383 606.276 200.499L591.125 196.864Z" fill="url(#paint11_linear_13_4613)"/>
<path d="M586.716 114.26C590.849 115.401 604.851 119.086 613.591 118.931L608.223 149.179L608.654 154.111L591.153 154.033C591.153 154.033 586.229 142.605 582.342 136.912C581.221 135.263 582.053 133.305 582.688 131.416L581.813 130.839C580.924 130.247 580.536 129.134 580.868 128.119L585.128 115.098C585.347 114.443 586.038 114.07 586.709 114.26H586.716Z" fill="#32A981"/>
<path d="M589.749 151.461L590.094 154.449C590.094 154.449 585.15 169.238 592.57 203.79C592.57 203.79 608.632 208.334 621.837 197.456C621.837 197.456 618.113 164.848 617.097 163.326C612.032 155.759 608.653 154.118 608.653 154.118L608.498 150.855C608.498 150.855 594.376 153.406 589.749 151.461Z" fill="#32A981"/>
<path d="M596.598 116.698C596.535 116.62 600.252 105.495 600.252 105.495L605.571 105.974L607.652 118.586C607.652 118.586 599.314 120.27 596.598 116.691V116.698Z" fill="url(#paint12_linear_13_4613)"/>
<path d="M604.301 87.9586C603.949 88.177 592.93 92.7285 595.301 104.15C595.442 104.826 595.893 105.397 596.521 105.679C598.136 106.397 601.614 107.63 605.776 107.207C611.546 106.623 615.327 96.5614 615.165 93.6374C615.002 90.7134 607.814 85.7744 604.301 87.9586Z" fill="url(#paint13_linear_13_4613)"/>
<path d="M607.652 83.5197C607.363 83.555 601.289 85.6687 604.301 90.0652C607.313 94.4617 608.442 97.0545 607.017 98.985C605.719 100.746 602.841 99.7389 603.095 103.403C603.144 104.135 602.827 104.847 602.22 105.256C599.512 107.088 592.895 112.731 599.448 120.77C599.977 121.426 600.09 122.327 599.681 123.06C597.762 126.499 593.734 136.567 608.322 142.154C622.74 147.671 627.946 138.258 629.399 134.495C629.717 133.678 630.514 133.185 631.389 133.227C632.976 133.305 635.219 133.037 635.113 130.923C635.05 129.641 634.245 128.485 633.3 127.562C632.362 126.646 632.545 125.047 633.688 124.406C634.549 123.92 635.311 123.152 635.635 121.968C636.51 118.734 634.767 109.06 625.484 107.426C624.708 107.292 623.897 106.566 623.784 105.784C623.784 105.77 623.784 105.763 623.784 105.749C623.657 104.995 623.911 104.227 624.532 103.776C626.013 102.691 627.911 100.507 626.373 96.9981C625.005 93.891 622.381 92.8412 620.427 92.503C619.284 92.3057 618.529 91.2277 618.769 90.0934C619.425 87.0003 618.854 82.0472 607.659 83.5127L607.652 83.5197Z" fill="#24252B"/>
<path d="M564.362 75.3395C564.362 75.3395 562.873 102.444 587.576 116.289L581.63 129.838C581.63 129.838 559.262 116.324 560.094 79.4753C560.115 78.4185 559.734 77.3898 559.043 76.5866L554.289 71.0769C552.476 68.9772 551.799 66.1308 552.476 63.4464L553.104 60.9451C553.315 60.1067 554.267 59.7051 555.015 60.1419L555.509 60.4308C557.089 61.3467 558.345 62.7418 559.092 64.4116L561.477 68.174C562.351 70.1187 562.549 70.9359 564.679 70.7528L568.636 70.795L564.362 75.3395Z" fill="url(#paint14_linear_13_4613)"/>
</g>
<defs>
<linearGradient id="paint0_linear_13_4613" x1="275.493" y1="384.604" x2="269.286" y2="384.604" gradientUnits="userSpaceOnUse">
<stop stop-color="#FF928E"/>
<stop offset="1" stop-color="#FEB3B1"/>
</linearGradient>
<linearGradient id="paint1_linear_13_4613" x1="314.961" y1="379.439" x2="307.54" y2="379.439" gradientUnits="userSpaceOnUse">
<stop stop-color="#FF928E"/>
<stop offset="1" stop-color="#FEB3B1"/>
</linearGradient>
<linearGradient id="paint2_linear_13_4613" x1="280.975" y1="271.429" x2="307.35" y2="294.816" gradientUnits="userSpaceOnUse">
<stop stop-color="#FF928E"/>
<stop offset="1" stop-color="#FEB3B1"/>
</linearGradient>
<linearGradient id="paint3_linear_13_4613" x1="231.462" y1="273.641" x2="210.667" y2="273.641" gradientUnits="userSpaceOnUse">
<stop stop-color="#FF928E"/>
<stop offset="1" stop-color="#FEB3B1"/>
</linearGradient>
<linearGradient id="paint4_linear_13_4613" x1="247.574" y1="213.267" x2="257.857" y2="248.635" gradientUnits="userSpaceOnUse">
<stop stop-color="#FF928E"/>
<stop offset="0.11" stop-color="#FF9592"/>
<stop offset="1" stop-color="#FEB3B1"/>
</linearGradient>
<linearGradient id="paint5_linear_13_4613" x1="270.541" y1="283.195" x2="296.924" y2="306.582" gradientUnits="userSpaceOnUse">
<stop stop-color="#FF928E"/>
<stop offset="1" stop-color="#FEB3B1"/>
</linearGradient>
<linearGradient id="paint6_linear_13_4613" x1="212.875" y1="271.203" x2="205.426" y2="271.203" gradientUnits="userSpaceOnUse">
<stop stop-color="#FF928E"/>
<stop offset="1" stop-color="#FEB3B1"/>
</linearGradient>
<linearGradient id="paint7_linear_13_4613" x1="1000.92" y1="1612.68" x2="987.752" y2="1588.23" gradientUnits="userSpaceOnUse">
<stop stop-color="#FF928E"/>
<stop offset="1" stop-color="#FEB3B1"/>
</linearGradient>
<linearGradient id="paint8_linear_13_4613" x1="1005.7" y1="1610.11" x2="992.528" y2="1585.66" gradientUnits="userSpaceOnUse">
<stop stop-color="#FF928E"/>
<stop offset="1" stop-color="#FEB3B1"/>
</linearGradient>
<linearGradient id="paint9_linear_13_4613" x1="586.744" y1="48.2207" x2="612.437" y2="121.543" gradientUnits="userSpaceOnUse">
<stop stop-color="#FF928E"/>
<stop offset="1" stop-color="#FEB3B1"/>
</linearGradient>
<linearGradient id="paint10_linear_13_4613" x1="536.837" y1="592.67" x2="560.599" y2="495.568" gradientUnits="userSpaceOnUse">
<stop stop-color="#FF928E"/>
<stop offset="1" stop-color="#FEB3B1"/>
</linearGradient>
<linearGradient id="paint11_linear_13_4613" x1="512.226" y1="586.646" x2="535.987" y2="489.543" gradientUnits="userSpaceOnUse">
<stop stop-color="#FF928E"/>
<stop offset="1" stop-color="#FEB3B1"/>
</linearGradient>
<linearGradient id="paint12_linear_13_4613" x1="596.598" y1="112.245" x2="607.652" y2="112.245" gradientUnits="userSpaceOnUse">
<stop stop-color="#F9B776"/>
<stop offset="1" stop-color="#F47960"/>
</linearGradient>
<linearGradient id="paint13_linear_13_4613" x1="598.962" y1="96.9418" x2="679.412" y2="102.422" gradientUnits="userSpaceOnUse">
<stop stop-color="#FF928E"/>
<stop offset="1" stop-color="#FEB3B1"/>
</linearGradient>
<linearGradient id="paint14_linear_13_4613" x1="391.758" y1="-412.921" x2="417.458" y2="-339.598" gradientUnits="userSpaceOnUse">
<stop stop-color="#FF928E"/>
<stop offset="1" stop-color="#FEB3B1"/>
</linearGradient>
<clipPath id="clip0_13_4613">
<rect width="673" height="403" fill="white"/>
</clipPath>
</defs>
</svg>
