<svg width="49" height="41" viewBox="0 0 49 41" fill="none" xmlns="http://www.w3.org/2000/svg">
<path d="M5.12075 39.7306C4.40174 39.7306 3.81879 39.1477 3.81879 38.4287V29.7251C3.81879 29.006 4.40174 28.4231 5.12075 28.4231C5.83975 28.4231 6.4227 29.006 6.4227 29.7251V38.4287C6.4227 39.1477 5.83975 39.7306 5.12075 39.7306Z" fill="#EA4722"/>
<path d="M5.12075 19.6258C4.40174 19.6258 3.81879 19.0429 3.81879 18.3239V9.62154C3.81879 8.90248 4.40174 8.31958 5.12075 8.31958C5.83975 8.31958 6.4227 8.90248 6.4227 9.62154V18.3239C6.4227 19.0429 5.83975 19.6258 5.12075 19.6258Z" fill="#EA4722"/>
<path d="M8.94003 31.0276H1.30196C0.582952 31.0276 0 30.4447 0 29.7257V18.3238C0 17.6048 0.582952 17.0219 1.30196 17.0219H8.94003C9.65904 17.0219 10.242 17.6048 10.242 18.3238V29.7257C10.242 30.4447 9.65904 31.0276 8.94003 31.0276ZM2.60392 28.4237H7.63807V19.6258H2.60392V28.4237Z" fill="#EA4722"/>
<path d="M43.6587 31.4111C42.9397 31.4111 42.3568 30.8282 42.3568 30.1091V25.3231C42.3568 24.604 42.9397 24.0211 43.6587 24.0211C44.3777 24.0211 44.9607 24.604 44.9607 25.3231V30.1091C44.9607 30.8282 44.3777 31.4111 43.6587 31.4111Z" fill="#EA4722"/>
<path d="M43.6587 7.38996C42.9397 7.38996 42.3568 6.80706 42.3568 6.088V1.30196C42.3568 0.5829 42.9397 0 43.6587 0C44.3777 0 44.9607 0.5829 44.9607 1.30196V6.088C44.9607 6.80706 44.3777 7.38996 43.6587 7.38996Z" fill="#EA4722"/>
<path d="M47.478 26.625H39.8399C39.1209 26.625 38.538 26.0421 38.538 25.3231V6.08797C38.538 5.36891 39.1209 4.78601 39.8399 4.78601H47.478C48.197 4.78601 48.78 5.36891 48.78 6.08797V25.3231C48.78 26.0421 48.197 26.625 47.478 26.625ZM41.1419 24.0211H46.176V7.38993H41.1419V24.0211Z" fill="#EA4722"/>
<path d="M30.8136 41C30.0945 41 29.5116 40.4171 29.5116 39.698V31.2418C29.5116 30.5227 30.0945 29.9398 30.8136 29.9398C31.5326 29.9398 32.1155 30.5227 32.1155 31.2418V39.698C32.1155 40.4171 31.5326 41 30.8136 41Z" fill="#EA4722"/>
<path d="M30.8136 24.9065C30.0945 24.9065 29.5116 24.3236 29.5116 23.6045V15.1483C29.5116 14.4292 30.0945 13.8463 30.8136 13.8463C31.5326 13.8463 32.1155 14.4292 32.1155 15.1483V23.6045C32.1155 24.3236 31.5326 24.9065 30.8136 24.9065Z" fill="#EA4722"/>
<path d="M34.6321 32.5442H26.9939C26.2749 32.5442 25.692 31.9613 25.692 31.2422V23.6041C25.692 22.885 26.2749 22.3021 26.9939 22.3021H34.6321C35.3511 22.3021 35.9341 22.885 35.9341 23.6041V31.2422C35.9341 31.9613 35.3511 32.5442 34.6321 32.5442ZM28.2959 29.9403H33.3302V24.906H28.2959V29.9403Z" fill="#EA4722"/>
<path d="M17.9671 36.619C17.2481 36.619 16.6652 36.0361 16.6652 35.3171V28.9101C16.6652 28.1911 17.2481 27.6082 17.9671 27.6082C18.6861 27.6082 19.2691 28.1911 19.2691 28.9101V35.3171C19.2691 36.0361 18.6861 36.619 17.9671 36.619Z" fill="#EA4722"/>
<path d="M17.9671 14.2186C17.2481 14.2186 16.6652 13.6357 16.6652 12.9167V6.50972C16.6652 5.79066 17.2481 5.20776 17.9671 5.20776C18.6861 5.20776 19.2691 5.79066 19.2691 6.50972V12.9167C19.2691 13.6357 18.6861 14.2186 17.9671 14.2186Z" fill="#EA4722"/>
<path d="M21.7861 30.2114H14.1479C13.4289 30.2114 12.8459 29.6285 12.8459 28.9094V12.9172C12.8459 12.1981 13.4289 11.6152 14.1479 11.6152H21.7861C22.5051 11.6152 23.0881 12.1981 23.0881 12.9172V28.9094C23.0881 29.6285 22.5051 30.2114 21.7861 30.2114ZM15.4499 27.6075H20.4841V14.2192H15.4499V27.6075Z" fill="#EA4722"/>
</svg>
