<svg width="47" height="47" viewBox="0 0 47 47" fill="none" xmlns="http://www.w3.org/2000/svg">
<path d="M6.41667 46.625H6.41652C4.94736 46.6232 3.53887 46.0388 2.50002 45C1.46116 43.9611 0.87676 42.5526 0.875 41.0835L0.875 41.0833L0.875 6.41667V6.41652C0.87676 4.94736 1.46116 3.53887 2.50002 2.50002C3.53887 1.46116 4.94736 0.87676 6.41652 0.875L6.41667 0.875L23.165 0.875H23.1651C23.903 0.875494 24.6335 1.02271 25.3141 1.30809C25.9946 1.59347 26.6116 2.01132 27.1292 2.53733L27.1295 2.53765L36.3789 12.0048C37.394 13.041 37.9612 14.4347 37.9583 15.8852M6.41667 46.625L37.9583 15.8852M6.41667 46.625H32.4164M6.41667 46.625L37.9583 15.8852M37.9583 15.8852V23.9558C37.9583 24.2763 37.831 24.5836 37.6044 24.8103C37.3778 25.0369 37.0705 25.1642 36.75 25.1642C36.4295 25.1642 36.1222 25.0369 35.8956 24.8103C35.669 24.5836 35.5417 24.2763 35.5417 23.9558V15.885V15.8849C35.5421 15.0672 35.222 14.2818 34.65 13.6974L34.6499 13.6974L25.3996 4.22924C25.1081 3.93235 24.7603 3.69653 24.3766 3.53555C23.993 3.37457 23.5811 3.29166 23.165 3.29167H6.41667C5.58787 3.29167 4.79301 3.62091 4.20696 4.20696C3.62091 4.79301 3.29167 5.58787 3.29167 6.41667V41.0833C3.29167 41.9121 3.62091 42.707 4.20696 43.293C4.79301 43.8791 5.58787 44.2083 6.41667 44.2083H32.4167H32.4172C32.8094 44.2099 33.198 44.1339 33.5608 43.9848M33.5608 43.9848L33.6083 44.1004L33.5608 43.9848C33.5608 43.9848 33.5608 43.9848 33.5608 43.9848ZM33.5608 43.9848C33.8572 43.8629 34.1899 43.8637 34.4858 43.9871C34.7816 44.1105 35.0163 44.3463 35.1382 44.6427C35.2602 44.9392 35.2593 45.2719 35.136 45.5677C35.0126 45.8636 34.7767 46.0982 34.4803 46.2202L34.4802 46.2202C33.8255 46.4891 33.1242 46.6267 32.4164 46.625M32.4164 46.625L32.4167 46.5V46.625H32.4164Z" fill="#EA4722" stroke="#EA4722" stroke-width="0.25"/>
<path d="M29.1665 15.2083H29.1667H36.3058C36.6263 15.2083 36.9336 15.081 37.1603 14.8544C37.3869 14.6278 37.5142 14.3205 37.5142 14C37.5142 13.6795 37.3869 13.3722 37.1603 13.1456C36.9336 12.919 36.6263 12.7916 36.3058 12.7916H29.1667C28.3379 12.7916 27.543 12.4624 26.957 11.8764C26.3709 11.2903 26.0417 10.4955 26.0417 9.66665V2.41915C26.0417 2.09868 25.9144 1.79133 25.6878 1.56473C25.4611 1.33812 25.1538 1.21082 24.8333 1.21082C24.5129 1.21082 24.2055 1.33812 23.9789 1.56473C23.7523 1.79133 23.625 2.09868 23.625 2.41915L23.625 9.66665L23.625 9.6668C23.6268 11.136 24.2112 12.5444 25.25 13.5833C26.2889 14.6222 27.6974 15.2066 29.1665 15.2083Z" fill="#EA4722" stroke="#EA4722" stroke-width="0.25"/>
<path d="M22.5417 28.287V28.2864C22.5439 27.771 22.7191 27.2713 23.0392 26.8673C23.3588 26.4638 23.8045 26.1792 24.3048 26.0589C27.5091 25.1729 30.5573 23.7976 33.3418 21.9813L33.3424 21.9809C33.7124 21.7426 34.1432 21.6158 34.5833 21.6158C35.0234 21.6158 35.4543 21.7426 35.8243 21.9809L35.8249 21.9813C38.6092 23.7978 41.6575 25.1732 44.8618 26.0589C45.3622 26.1792 45.8078 26.4638 46.1275 26.8673C46.4475 27.2713 46.6228 27.771 46.625 28.2864L46.625 28.287L46.625 30.1415V30.1417L22.5417 28.287ZM22.5417 28.287V30.1416M22.5417 28.287L29.8341 43.7625M34.5829 46.4668C35.0348 46.4685 35.4771 46.3361 35.8538 46.0863L35.8541 46.0862L39.3325 43.7668L34.5833 46.3418M34.5829 46.4668L34.5833 46.3418M34.5829 46.4668C34.5831 46.4668 34.5833 46.4668 34.5835 46.4668L34.5833 46.3418M34.5829 46.4668C34.1311 46.4672 33.6894 46.3336 33.3136 46.0829M34.5833 46.3418C34.1561 46.3423 33.7384 46.216 33.383 45.9789M33.3136 46.0829L33.3136 46.0829L33.383 45.9789M33.3136 46.0829L29.8341 43.7625M33.3136 46.0829L33.383 45.9789M33.383 45.9789L29.8341 43.7625M29.8341 43.7625C27.5893 42.2699 25.7486 40.245 24.4762 37.8684C23.2038 35.4918 22.5392 32.8374 22.5417 30.1416M29.8341 43.7625L29.834 43.7624L29.9033 43.6584C27.6757 42.1772 25.8491 40.1679 24.5864 37.8094C23.3237 35.451 22.6642 32.8168 22.6667 30.1417M29.8341 43.7625L22.6667 28.287M22.5417 30.1416C22.5417 30.1416 22.5417 30.1416 22.5417 30.1415L22.6667 30.1417M22.5417 30.1416V30.1417H22.6667M22.6667 30.1417V28.287M22.6667 28.287C22.6688 27.7996 22.8345 27.327 23.1372 26.9449C23.4399 26.5628 23.8621 26.2935 24.3361 26.1799C27.5535 25.2906 30.6142 23.9097 33.4101 22.086C33.7599 21.8607 34.1672 21.7408 34.5833 21.7408C34.9994 21.7408 35.4068 21.8607 35.7566 22.086L22.6667 28.287ZM34.5826 24.0556C37.5525 25.9789 40.7984 27.4379 44.2083 28.3822V30.1417V30.1418C44.2102 32.4395 43.6437 34.702 42.5592 36.7277C41.4747 38.7533 39.9059 40.4793 37.9927 41.7517L37.9926 41.7517L34.5833 44.025L31.174 41.756L31.174 41.756C29.2601 40.4832 27.691 38.7566 26.6064 36.7301C25.522 34.7038 24.9559 32.4408 24.9583 30.1426C24.9583 30.1423 24.9583 30.1421 24.9583 30.1418L24.983 28.3803C28.3843 27.4357 31.6214 25.9773 34.5826 24.0556Z" fill="#EA4722" stroke="#EA4722" stroke-width="0.25"/>
<path d="M33.5 33.958L32.1876 32.6457L32.1876 32.6457L32.1861 32.6442C31.9582 32.4241 31.653 32.3023 31.3361 32.305C31.0193 32.3078 30.7163 32.4348 30.4922 32.6589C30.2682 32.8829 30.1411 33.186 30.1384 33.5028C30.1356 33.8196 30.2574 34.1249 30.4775 34.3528L30.4775 34.3528L30.479 34.3543L32.6457 36.521C32.6457 36.521 32.6457 36.521 32.6457 36.521C32.8722 36.7476 33.1795 36.8749 33.5 36.875H33.5C33.8205 36.8749 34.1277 36.7476 34.3543 36.521C34.3543 36.521 34.3543 36.521 34.3543 36.521L38.6876 32.1876L38.6876 32.1876L38.6892 32.1861C38.9093 31.9582 39.0311 31.653 39.0283 31.3361C39.0256 31.0193 38.8985 30.7163 38.6744 30.4922C38.4504 30.2682 38.1473 30.1411 37.8305 30.1384C37.5137 30.1356 37.2085 30.2574 36.9806 30.4775L36.9806 30.4775L36.979 30.479L33.5 33.958Z" fill="#EA4722" stroke="#EA4722" stroke-width="0.25"/>
<path d="M8.58333 11.9583H17.25C17.5705 11.9583 17.8778 11.831 18.1044 11.6044C18.331 11.3778 18.4583 11.0704 18.4583 10.75C18.4583 10.4295 18.331 10.1221 18.1044 9.89554C17.8778 9.66893 17.5705 9.54163 17.25 9.54163H8.58333C8.26286 9.54163 7.95552 9.66893 7.72891 9.89554C7.50231 10.1221 7.375 10.4295 7.375 10.75C7.375 11.0704 7.50231 11.3778 7.72891 11.6044C7.95552 11.831 8.26286 11.9583 8.58333 11.9583Z" fill="#EA4722" stroke="#EA4722" stroke-width="0.25"/>
<path d="M8.58333 18.4583H23.75C24.0705 18.4583 24.3778 18.331 24.6044 18.1044C24.831 17.8778 24.9583 17.5704 24.9583 17.25C24.9583 16.9295 24.831 16.6221 24.6044 16.3955C24.3778 16.1689 24.0705 16.0416 23.75 16.0416H8.58333C8.26286 16.0416 7.95552 16.1689 7.72891 16.3955C7.50231 16.6221 7.375 16.9295 7.375 17.25C7.375 17.5704 7.50231 17.8778 7.72891 18.1044C7.95552 18.331 8.26286 18.4583 8.58333 18.4583Z" fill="#EA4722" stroke="#EA4722" stroke-width="0.25"/>
<path d="M8.58333 24.9583H25.9167C26.2371 24.9583 26.5445 24.831 26.7711 24.6044C26.9977 24.3778 27.125 24.0704 27.125 23.75C27.125 23.4295 26.9977 23.1221 26.7711 22.8955C26.5445 22.6689 26.2371 22.5416 25.9167 22.5416H8.58333C8.26286 22.5416 7.95552 22.6689 7.72891 22.8955C7.50231 23.1221 7.375 23.4295 7.375 23.75C7.375 24.0704 7.50231 24.3778 7.72891 24.6044C7.95552 24.831 8.26286 24.9583 8.58333 24.9583Z" fill="#EA4722" stroke="#EA4722" stroke-width="0.25"/>
<path d="M8.58333 31.4583H19.4167C19.7371 31.4583 20.0445 31.331 20.2711 31.1044C20.4977 30.8778 20.625 30.5704 20.625 30.25C20.625 29.9295 20.4977 29.6221 20.2711 29.3955C20.0445 29.1689 19.7371 29.0416 19.4167 29.0416H8.58333C8.26286 29.0416 7.95552 29.1689 7.72891 29.3955C7.50231 29.6221 7.375 29.9295 7.375 30.25C7.375 30.5704 7.50231 30.8778 7.72891 31.1044C7.95552 31.331 8.26286 31.4583 8.58333 31.4583Z" fill="#EA4722" stroke="#EA4722" stroke-width="0.25"/>
<path d="M8.58333 37.9583H19.4167C19.7371 37.9583 20.0445 37.831 20.2711 37.6044C20.4977 37.3778 20.625 37.0704 20.625 36.75C20.625 36.4295 20.4977 36.1221 20.2711 35.8955C20.0445 35.6689 19.7371 35.5416 19.4167 35.5416H8.58333C8.26286 35.5416 7.95552 35.6689 7.72891 35.8955C7.50231 36.1221 7.375 36.4295 7.375 36.75C7.375 37.0704 7.50231 37.3778 7.72891 37.6044C7.95552 37.831 8.26286 37.9583 8.58333 37.9583Z" fill="#EA4722" stroke="#EA4722" stroke-width="0.25"/>
</svg>
