<svg width="60" height="64" viewBox="0 0 60 64" fill="none" xmlns="http://www.w3.org/2000/svg">
<path d="M45.7188 34.6926V10.2651C45.7188 8.21813 44.0598 6.55908 42.0129 6.55908H32.1318" stroke="#EDAA1E" stroke-width="2" stroke-miterlimit="10" stroke-linecap="round" stroke-linejoin="round"/>
<path d="M35.8362 62.3956H42.0128C44.0598 62.3956 45.7188 60.7366 45.7188 58.6897V48.1448" stroke="#EDAA1E" stroke-width="2" stroke-miterlimit="10" stroke-linecap="round" stroke-linejoin="round"/>
<path d="M1 23.8535V58.6898C1 60.7367 2.65905 62.3957 4.70598 62.3957H31.5126" stroke="#EDAA1E" stroke-width="2" stroke-miterlimit="10" stroke-linecap="round" stroke-linejoin="round"/>
<path d="M14.587 6.55908H4.70598C2.65905 6.55908 1 8.21813 1 10.2651V19.53" stroke="#EDAA1E" stroke-width="2" stroke-miterlimit="10" stroke-linecap="round" stroke-linejoin="round"/>
<path d="M23.3903 46.3364H35.8362" stroke="#EDAA1E" stroke-width="2" stroke-miterlimit="10" stroke-linecap="round" stroke-linejoin="round"/>
<path d="M23.3903 51.8955H35.8362" stroke="#EDAA1E" stroke-width="2" stroke-miterlimit="10" stroke-linecap="round" stroke-linejoin="round"/>
<path d="M10.8826 51.1542V47.0776C10.8826 46.3271 11.491 45.7188 12.2414 45.7188H16.318C17.0685 45.7188 17.6769 46.3271 17.6769 47.0776V51.1542C17.6769 51.9047 17.0685 52.5131 16.318 52.5131H12.2414C11.491 52.5131 10.8826 51.9047 10.8826 51.1542Z" stroke="#EDAA1E" stroke-width="2" stroke-miterlimit="10" stroke-linecap="round" stroke-linejoin="round"/>
<path d="M23.3903 33.9832H35.8362" stroke="#EDAA1E" stroke-width="2" stroke-miterlimit="10" stroke-linecap="round" stroke-linejoin="round"/>
<path d="M23.3903 39.5422H35.8362" stroke="#EDAA1E" stroke-width="2" stroke-miterlimit="10" stroke-linecap="round" stroke-linejoin="round"/>
<path d="M10.8826 38.8012V34.7246C10.8826 33.9741 11.491 33.3657 12.2414 33.3657H16.318C17.0685 33.3657 17.6769 33.9741 17.6769 34.7246V38.8012C17.6769 39.5516 17.0685 40.16 16.318 40.16H12.2414C11.491 40.16 10.8826 39.5516 10.8826 38.8012Z" stroke="#EDAA1E" stroke-width="2" stroke-miterlimit="10" stroke-linecap="round" stroke-linejoin="round"/>
<path d="M10.8826 27.189H35.8362" stroke="#EDAA1E" stroke-width="2" stroke-miterlimit="10" stroke-linecap="round" stroke-linejoin="round"/>
<path d="M23.3594 20.3946C28.7151 20.3946 33.0568 16.053 33.0568 10.6973C33.0568 5.34164 28.7151 1 23.3594 1C18.0037 1 13.6621 5.34164 13.6621 10.6973C13.6621 16.053 18.0037 20.3946 23.3594 20.3946Z" stroke="#EDAA1E" stroke-width="2" stroke-miterlimit="10" stroke-linecap="round" stroke-linejoin="round"/>
<path d="M23.3594 5.94141V10.6974H27.1271" stroke="#EDAA1E" stroke-width="2" stroke-miterlimit="10" stroke-linecap="round" stroke-linejoin="round"/>
<path d="M41.137 43.2664L47.6741 46.7597L42.9282 50.1219C42.0976 50.7104 40.9516 50.098 40.9793 49.0804L41.137 43.2664Z" stroke="#EDAA1E" stroke-width="2" stroke-miterlimit="10" stroke-linecap="round" stroke-linejoin="round"/>
<path d="M55.9418 31.2885L49.4047 27.7952" stroke="#EDAA1E" stroke-width="2" stroke-miterlimit="10" stroke-linejoin="round"/>
<path d="M51.1514 24.5269L57.6885 28.0202" stroke="#EDAA1E" stroke-width="2" stroke-miterlimit="10" stroke-linejoin="round"/>
<path d="M41.137 43.2662L52.0248 22.8924C52.9894 21.0872 55.2349 20.4059 57.04 21.3706C58.8451 22.3352 59.5264 24.5807 58.5618 26.3857L47.6739 46.7596" stroke="#EDAA1E" stroke-width="2" stroke-miterlimit="10"/>
</svg>
