<svg width="44" height="52" viewBox="0 0 44 52" fill="none" xmlns="http://www.w3.org/2000/svg">
<path d="M34.2822 25.1035C35.5322 23.8536 35.5322 21.8267 34.2822 20.5767C33.0323 19.3268 31.0055 19.3268 29.7556 20.5767C28.3737 21.9595 26.6116 23.7207 25.2288 25.1035C23.9789 26.3534 23.9789 28.3802 25.2288 29.6301C26.4796 30.8801 28.5057 30.8801 29.7556 29.6301C31.1384 28.2475 32.9004 26.4862 34.2822 25.1035Z" stroke="#EA4722" stroke-width="3" stroke-miterlimit="10" stroke-linecap="round" stroke-linejoin="round"/>
<path d="M37.6775 30.7618C38.9274 29.5119 38.9274 27.485 37.6775 26.235C36.4276 24.9851 34.4008 24.9851 33.1509 26.235C32.0866 27.2993 30.8198 28.5661 29.7556 29.6303C28.5057 30.8802 28.5057 32.9062 29.7556 34.1569C31.0055 35.4068 33.0323 35.4068 34.2822 34.1569C35.3466 33.0919 36.6132 31.826 37.6775 30.7618Z" stroke="#EA4722" stroke-width="3" stroke-miterlimit="10" stroke-linecap="round" stroke-linejoin="round"/>
<path d="M41.0719 36.4199C41.6729 35.8197 42.0098 35.0051 42.0098 34.1569C42.0098 33.3079 41.6729 32.4933 41.0719 31.8931C40.4719 31.293 39.6581 30.9561 38.809 30.9561C37.96 30.9561 37.1462 31.293 36.546 31.8931C35.817 32.6214 35.0104 33.4279 34.2823 34.1569C33.6821 34.7571 33.3453 35.5709 33.3453 36.4199C33.3453 37.2688 33.6821 38.0826 34.2823 38.6828C34.8824 39.2837 35.697 39.6206 36.546 39.6206C37.3943 39.6206 38.2089 39.2837 38.809 38.6828C39.5373 37.9546 40.3438 37.148 41.0719 36.4199Z" stroke="#EA4722" stroke-width="3" stroke-miterlimit="10" stroke-linecap="round" stroke-linejoin="round"/>
<path d="M29.7556 20.5768C29.7556 20.5768 34.6768 15.6564 37.6775 12.6557C38.2777 12.0547 38.6146 11.2409 38.6146 10.3919C38.6146 9.54296 38.2777 8.72915 37.6775 8.12901C37.0773 7.52876 36.2627 7.19119 35.4138 7.19119C34.5648 7.19119 33.7509 7.52876 33.1508 8.12901L16.1763 25.1035C16.1763 25.1035 15.4617 22.0092 14.6886 18.6579C14.3046 16.9927 13.0467 15.6668 11.4031 15.1955C9.76037 14.7241 7.99111 15.1818 6.78275 16.391C6.78195 16.391 6.78195 16.3918 6.78195 16.3918L6.80117 35.5965L2 40.3977L11.6023 50H25.5041C26.7773 50 27.9983 49.4935 28.8985 48.5932C32.3714 45.1212 41.0719 36.4199 41.0719 36.4199" stroke="#EA4722" stroke-width="3" stroke-miterlimit="10" stroke-linecap="round" stroke-linejoin="round"/>
<path d="M16.1763 25.1035C16.1763 25.1035 16.6324 25.5596 17.3078 26.2349C20.4325 29.3597 20.4325 34.4265 17.3078 37.5513" stroke="#EA4722" stroke-width="3" stroke-miterlimit="10" stroke-linecap="round" stroke-linejoin="round"/>
<path d="M16.4035 8.38977V1.98817" stroke="#EA4722" stroke-width="3" stroke-miterlimit="10" stroke-linecap="round" stroke-linejoin="round"/>
<path d="M10.002 8.38977L8.40164 6.78945" stroke="#EA4722" stroke-width="3" stroke-miterlimit="10" stroke-linecap="round" stroke-linejoin="round"/>
<path d="M22.8051 8.38977L24.4054 6.78945" stroke="#EA4722" stroke-width="3" stroke-miterlimit="10" stroke-linecap="round" stroke-linejoin="round"/>
</svg>
