<svg width="64" height="64" viewBox="0 0 64 64" fill="none" xmlns="http://www.w3.org/2000/svg">
<path d="M33.0646 0.00439453C31.6857 0.00439453 30.5114 0.900121 30.0669 2.13343H3.19993C1.44569 2.13343 0.000144511 3.57892 0.000144511 5.33314V15.9991C-0.0203341 17.4417 2.15387 17.4417 2.13333 15.9991V5.33314C2.13333 4.72382 2.59057 4.26666 3.19993 4.26666H29.869V6.39976H5.33312C4.74408 6.39984 4.26659 6.87732 4.26652 7.46637V37.331C4.26658 37.92 4.74408 38.3976 5.33312 38.3976H54.3965C54.9855 38.3976 55.463 37.92 55.4631 37.331V23.4674H57.5963V39.4642C57.5963 40.0735 57.139 40.5308 56.5297 40.5308H3.19993C2.59057 40.5308 2.13333 40.0735 2.13333 39.4642V25.5985C2.15381 24.156 -0.0203874 24.156 0.000144511 25.5985V39.4642C0.000144511 41.2184 1.44569 42.664 3.19993 42.664H56.5297C58.2839 42.664 59.7295 41.2184 59.7295 39.4642V23.4674H60.794C62.5482 23.4674 64 22.0155 64 20.2613V3.19992C64 1.44569 62.5482 0.00439453 60.794 0.00439453H33.0646ZM33.0646 2.12925H60.794C61.4033 2.12925 61.8668 2.5906 61.8668 3.19992V20.2613C61.8668 20.8706 61.4033 21.3342 60.794 21.3342H42.6619C42.409 21.3331 42.1639 21.4217 41.9702 21.5841L36.2602 26.4817V22.3966C36.2581 21.8108 35.7836 21.3365 35.1978 21.3342H33.0646C32.4553 21.3342 32.0022 20.8706 32.0022 20.2613V3.19992C32.0022 2.5906 32.4553 2.12925 33.0646 2.12925ZM41.5994 6.39766V17.0657C41.5996 17.9019 42.518 18.4127 43.2285 17.9719L51.7633 12.641C52.433 12.2234 52.433 11.2483 51.7633 10.8307L43.2285 5.49148C42.5888 5.09117 41.5994 5.44916 41.5994 6.39766ZM43.7326 8.32667L49.1822 11.7349L43.7326 15.1367V8.32667ZM6.39971 8.5331H29.869V20.2615C29.869 22.0157 31.3104 23.4675 33.0646 23.4675H34.127V28.7964C34.1217 29.7126 35.1985 30.2081 35.8915 29.6088L43.0556 23.4675H53.3299V36.2646H31.998C31.998 32.7377 29.1232 29.8712 25.5963 29.8712H24.5339V27.1548C25.84 25.9816 26.6692 24.2865 26.6692 22.3988V21.3365C27.2582 21.3344 27.7339 20.8547 27.7316 20.2657V17.068C27.7316 13.541 24.8568 10.6663 21.33 10.6663H19.1968C15.6698 10.6663 12.8035 13.5411 12.8035 17.068V20.2657C12.8013 20.8547 13.2768 21.3341 13.8659 21.3365V22.3988C13.8658 24.2862 14.6912 25.9816 15.997 27.1548V29.8712H14.9283C11.4014 29.8712 8.53498 32.7377 8.53498 36.2646H6.39971V8.5331ZM19.1968 12.8016H21.33C23.712 12.8016 25.5963 14.6859 25.5963 17.068V18.7616L24.2173 17.3824C23.8578 17.0228 23.2966 16.9671 22.8736 17.2489C22.8736 17.2489 19.7872 19.203 17.0615 19.203H14.9283V17.0677C14.9283 14.6857 16.8147 12.8016 19.1968 12.8016ZM1.05008 19.1845C0.461831 19.1925 -0.00790826 19.6774 0.000144511 20.2657V21.3323C-0.0203341 22.7748 2.15387 22.7748 2.13333 21.3323V20.2657C2.14188 19.6644 1.65137 19.1751 1.05008 19.1845ZM23.2944 19.4699L24.5339 20.7135V22.3988C24.5339 24.7808 22.6496 26.6652 20.2675 26.6652C17.8855 26.6652 15.997 24.7808 15.997 22.3988V21.3365H17.0615C19.7963 21.3365 22.5854 19.9261 23.2944 19.4699ZM18.1343 28.4256C18.8026 28.663 19.5194 28.8004 20.2675 28.8004C21.0164 28.8004 21.732 28.6634 22.4007 28.4256V30.7296C22.4007 30.7296 22.0393 31.9961 20.2675 31.9961C18.4957 31.9961 18.1343 30.7441 18.1343 30.7441V28.4256ZM14.9283 31.996H16.374C16.374 31.996 17.2945 34.1292 20.2675 34.1292C23.2406 34.1292 24.1589 31.996 24.1589 31.996H25.5963C27.9783 31.996 29.8648 33.8825 29.8648 36.2645H10.6703C10.6703 33.8825 12.5463 31.996 14.9283 31.996ZM9.60158 44.7952C6.66556 44.7952 4.26235 47.19 4.26235 50.126V51.1967C4.26235 52.4383 4.71112 53.568 5.42894 54.4757C2.36151 54.9456 0.0043575 57.5971 0.00431481 60.7941V62.9293C0.00218164 63.5183 0.477702 63.9977 1.06674 64.0001H18.1281C18.7204 64.0022 19.2011 63.5216 19.1989 62.9293V60.7941C19.1989 57.5982 16.8372 54.9469 13.7701 54.4757C14.4862 53.568 14.9325 52.4383 14.9325 51.1967V50.126C14.9325 47.19 12.5376 44.7952 9.60158 44.7952ZM32.0022 44.7952C29.0661 44.7952 26.6629 47.19 26.6629 50.126V51.1967C26.6629 52.4381 27.1098 53.5681 27.8274 54.4757C24.7593 54.946 22.3966 57.5975 22.3966 60.7941V62.9293C22.3944 63.5216 22.875 64.0023 23.4673 64.0001H40.5287C41.121 64.0022 41.6017 63.5216 41.5994 62.9293V60.7941C41.5994 57.5985 39.2373 54.9473 36.1706 54.4757C36.8868 53.568 37.333 52.4383 37.333 51.1967V50.126C37.333 47.19 34.9382 44.7952 32.0022 44.7952ZM54.3944 44.7952C51.4584 44.7952 49.0635 47.19 49.0635 50.126V51.1967C49.0635 52.4383 49.5097 53.568 50.2259 54.4757C47.1588 54.9469 44.7951 57.5982 44.795 60.7941V62.9293C44.7929 63.5224 45.2748 64.0035 45.8679 64.0001H62.9292C63.5215 64.0022 64.0023 63.5216 64 62.9293V60.7941C64 57.5971 61.6357 54.9456 58.567 54.4757C59.2849 53.568 59.7315 52.4383 59.7315 51.1967V50.126C59.7315 47.19 57.3304 44.7952 54.3944 44.7952ZM9.60158 46.9304C11.3927 46.9304 12.7972 48.3349 12.7972 50.126V51.1967C12.7972 52.9878 11.3927 54.3944 9.60158 54.3944C7.81044 54.3944 6.39763 52.9878 6.39763 51.1967V50.126C6.39763 48.3349 7.81044 46.9304 9.60158 46.9304ZM32.0022 46.9304C33.7933 46.9304 35.1978 48.3349 35.1978 50.126V51.1967C35.1978 52.9878 33.7933 54.3944 32.0022 54.3944C30.211 54.3944 28.7961 52.9878 28.7961 51.1967V50.126C28.7961 48.3349 30.211 46.9304 32.0022 46.9304ZM54.3944 46.9304C56.1855 46.9304 57.5983 48.3349 57.5983 50.126V51.1967C57.5983 52.9878 56.1855 54.3944 54.3944 54.3944C52.6033 54.3944 51.1967 52.9878 51.1967 51.1967V50.126C51.1967 48.3349 52.6033 46.9304 54.3944 46.9304ZM6.39763 56.5276H12.7972C15.1792 56.5276 17.0657 58.412 17.0657 60.7941V61.8669H2.12916V60.7941C2.1292 58.412 4.01563 56.5276 6.39763 56.5276ZM28.7961 56.5276H35.1978C37.5798 56.5276 39.4662 58.412 39.4662 60.7941V61.8669H24.5297V60.7941C24.5298 58.412 26.4141 56.5276 28.7961 56.5276ZM51.1967 56.5276H57.5983C59.9803 56.5276 61.8668 58.412 61.8668 60.7941V61.8669H46.9303V60.7941C46.9303 58.412 48.8147 56.5276 51.1967 56.5276Z" fill="#EDAA20"/>
</svg>
