<svg width="660" height="492" viewBox="0 0 660 492" fill="none" xmlns="http://www.w3.org/2000/svg">
<g clip-path="url(#clip0_13_3595)">
<path d="M338.362 486.492C436.792 486.492 516.586 481.83 516.586 476.08C516.586 470.329 436.792 465.667 338.362 465.667C239.931 465.667 160.138 470.329 160.138 476.08C160.138 481.83 239.931 486.492 338.362 486.492Z" fill="#E8E8E8"/>
<path d="M224.343 86.9284C224.014 86.9284 223.709 86.7376 223.567 86.4287L221.846 82.6733C219.908 82.3887 218.035 81.8195 216.27 80.9796L212.756 83.1419C212.448 83.3328 212.049 83.305 211.768 83.0759L207.693 79.7267C207.412 79.4941 207.308 79.1124 207.436 78.7688L208.872 74.8989C207.707 73.3301 206.784 71.6017 206.129 69.7553L202.113 68.7974C201.759 68.7141 201.495 68.4121 201.461 68.0511L200.944 62.7999C200.909 62.439 201.107 62.0919 201.436 61.9392L205.189 60.2177C205.473 58.2776 206.042 56.4034 206.881 54.6368L204.721 51.1209C204.53 50.812 204.558 50.4129 204.787 50.1318L208.133 46.0537C208.362 45.7725 208.747 45.6684 209.091 45.7934L212.957 47.2302C214.525 46.0641 216.252 45.1409 218.097 44.4849L219.054 40.4658C219.138 40.1118 219.439 39.848 219.8 39.8133L225.051 39.2962C225.412 39.2615 225.758 39.4593 225.911 39.789L227.631 43.5443C229.57 43.8289 231.443 44.3981 233.208 45.238L236.721 43.0758C237.03 42.8849 237.429 42.9127 237.71 43.1417L241.785 46.491C242.066 46.7235 242.17 47.1053 242.041 47.4489L240.605 51.3188C241.771 52.8875 242.693 54.616 243.349 56.4624L247.365 57.4203C247.719 57.5036 247.982 57.8056 248.017 58.1665L248.534 63.4212C248.568 63.7822 248.371 64.1292 248.041 64.2819L244.289 66.0034C244.004 67.9436 243.435 69.8177 242.596 71.5844L244.757 75.1002C244.948 75.4091 244.92 75.8082 244.691 76.0894L241.344 80.1675C241.112 80.4486 240.727 80.5527 240.387 80.4243L236.52 78.9874C234.952 80.1536 233.225 81.0768 231.38 81.7328L230.423 85.7519C230.34 86.1059 230.038 86.3662 229.677 86.4044L224.427 86.9215C224.399 86.9215 224.371 86.925 224.343 86.925V86.9284ZM216.218 79.862L216.46 79.9835C218.281 80.879 220.227 81.4725 222.245 81.7397L222.516 81.7744L224.423 85.9358L229.487 85.4395L230.548 80.9865L230.804 80.8998C232.733 80.2438 234.526 79.2859 236.138 78.0503L236.354 77.8837L240.64 79.4768L243.869 75.541L241.476 71.6434L241.597 71.4004C242.492 69.5783 243.085 67.6312 243.352 65.6112L243.387 65.3405L247.545 63.4316L247.049 58.3643L242.6 57.3023L242.513 57.0455C241.857 55.1157 240.9 53.3179 239.666 51.7075L239.499 51.4923L241.091 47.2025L237.158 43.9712L233.263 46.366L233.021 46.2446C231.2 45.3491 229.254 44.7556 227.236 44.4884L226.965 44.4537L225.058 40.2923L219.994 40.7886L218.933 45.2415L218.676 45.3283C216.748 45.9843 214.955 46.9422 213.342 48.1778L213.127 48.3444L208.841 46.7513L205.612 50.6871L208.005 54.5847L207.884 54.8277C206.989 56.6498 206.396 58.5969 206.129 60.6168L206.094 60.8876L201.936 62.7965L202.432 67.8637L206.881 68.9258L206.968 69.1826C207.623 71.1123 208.581 72.9067 209.815 74.5206L209.982 74.7358L208.39 79.0256L212.323 82.2568L216.218 79.862ZM229.036 75.4889C228.835 75.4889 228.644 75.364 228.571 75.1627C228.481 74.9058 228.613 74.6247 228.869 74.5345C230.947 73.7917 232.788 72.4937 234.196 70.7757C236.27 68.249 237.238 65.0629 236.919 61.8073C236.6 58.5518 235.032 55.6155 232.507 53.54C229.983 51.4645 226.799 50.4962 223.549 50.8155C220.296 51.1348 217.362 52.7036 215.288 55.2303C213.214 57.757 212.247 60.9431 212.566 64.1952C212.885 67.4507 214.452 70.3869 216.977 72.4624C217.653 73.0178 218.385 73.5002 219.155 73.8959C219.398 74.0208 219.491 74.3158 219.367 74.5588C219.242 74.8017 218.947 74.8954 218.704 74.7705C217.872 74.3436 217.081 73.823 216.353 73.2225C213.623 70.9804 211.931 67.8082 211.588 64.2924C211.244 60.7765 212.288 57.3335 214.529 54.6055C216.769 51.8741 219.939 50.1804 223.452 49.8368C226.965 49.4932 230.406 50.5379 233.132 52.7799C235.861 55.022 237.553 58.1943 237.897 61.7101C238.24 65.226 237.196 68.6655 234.956 71.3969C233.437 73.2503 231.446 74.6525 229.199 75.4577C229.143 75.4785 229.088 75.4855 229.032 75.4855L229.036 75.4889Z" fill="#EA4722"/>
<path d="M305.9 126.585C305.796 126.585 305.695 126.536 305.633 126.446C305.529 126.297 305.564 126.092 305.713 125.988C305.935 125.832 306.157 125.676 306.375 125.513C306.521 125.405 306.725 125.436 306.833 125.585C306.94 125.731 306.909 125.936 306.76 126.044C306.538 126.207 306.313 126.366 306.087 126.526C306.032 126.568 305.966 126.585 305.9 126.585Z" fill="#EA4722"/>
<path d="M281.505 134.498C281.325 134.498 281.179 134.356 281.176 134.176C281.176 133.995 281.318 133.846 281.498 133.842C282.032 133.835 282.573 133.815 283.111 133.787C283.295 133.776 283.447 133.915 283.454 134.096C283.464 134.276 283.326 134.432 283.145 134.439C282.601 134.467 282.049 134.488 281.508 134.495H281.502L281.505 134.498ZM279.875 134.495H279.868C279.324 134.484 278.769 134.46 278.228 134.429C278.047 134.418 277.909 134.262 277.919 134.082C277.929 133.901 278.085 133.759 278.266 133.773C278.8 133.804 279.344 133.828 279.882 133.839C280.062 133.842 280.208 133.992 280.201 134.176C280.198 134.353 280.052 134.495 279.871 134.495H279.875ZM284.751 134.325C284.585 134.325 284.439 134.196 284.425 134.026C284.408 133.846 284.543 133.686 284.723 133.669C285.258 133.62 285.795 133.561 286.329 133.492C286.506 133.468 286.673 133.596 286.697 133.776C286.721 133.957 286.593 134.12 286.412 134.144C285.871 134.214 285.323 134.273 284.782 134.325C284.772 134.325 284.762 134.325 284.751 134.325ZM276.622 134.3C276.622 134.3 276.601 134.3 276.591 134.3C276.05 134.248 275.502 134.182 274.961 134.11C274.78 134.085 274.655 133.919 274.68 133.742C274.704 133.561 274.87 133.436 275.047 133.461C275.578 133.533 276.119 133.596 276.653 133.648C276.833 133.665 276.965 133.825 276.948 134.005C276.931 134.176 276.788 134.3 276.622 134.3ZM287.977 133.908C287.82 133.908 287.682 133.794 287.654 133.634C287.623 133.454 287.744 133.287 287.925 133.256C288.452 133.169 288.986 133.068 289.513 132.961C289.69 132.923 289.863 133.037 289.901 133.218C289.94 133.395 289.825 133.568 289.645 133.606C289.111 133.717 288.57 133.818 288.032 133.908C288.015 133.908 287.994 133.912 287.977 133.912V133.908ZM273.393 133.86C273.376 133.86 273.355 133.86 273.338 133.856C272.8 133.763 272.259 133.658 271.728 133.544C271.551 133.506 271.437 133.332 271.475 133.155C271.513 132.978 271.687 132.864 271.864 132.902C272.387 133.013 272.921 133.117 273.449 133.211C273.625 133.242 273.747 133.412 273.716 133.589C273.688 133.749 273.549 133.86 273.393 133.86ZM291.164 133.252C291.015 133.252 290.883 133.152 290.845 133.002C290.803 132.825 290.911 132.648 291.084 132.607C291.604 132.482 292.128 132.343 292.645 132.194C292.818 132.145 293.002 132.246 293.05 132.419C293.099 132.593 292.998 132.777 292.825 132.825C292.301 132.975 291.767 133.117 291.24 133.245C291.212 133.252 291.188 133.256 291.16 133.256L291.164 133.252ZM270.209 133.183C270.182 133.183 270.157 133.183 270.13 133.172C269.602 133.041 269.068 132.895 268.548 132.742C268.375 132.69 268.274 132.51 268.326 132.336C268.378 132.163 268.558 132.062 268.732 132.114C269.245 132.263 269.772 132.409 270.289 132.537C270.466 132.582 270.57 132.759 270.528 132.936C270.49 133.086 270.358 133.183 270.209 133.183ZM294.292 132.367C294.153 132.367 294.025 132.281 293.98 132.142C293.924 131.968 294.018 131.784 294.191 131.729C294.705 131.562 295.218 131.385 295.717 131.201C295.887 131.139 296.075 131.225 296.137 131.395C296.199 131.566 296.113 131.753 295.943 131.815C295.436 131.999 294.913 132.18 294.393 132.35C294.358 132.36 294.323 132.367 294.292 132.367ZM267.084 132.27C267.05 132.27 267.015 132.263 266.98 132.253C266.464 132.079 265.947 131.895 265.434 131.704C265.264 131.642 265.177 131.451 265.243 131.281C265.305 131.111 265.496 131.024 265.666 131.09C266.169 131.277 266.682 131.461 267.189 131.631C267.362 131.69 267.452 131.874 267.397 132.048C267.352 132.187 267.223 132.274 267.084 132.274V132.27ZM297.347 131.253C297.219 131.253 297.094 131.177 297.042 131.048C296.973 130.882 297.056 130.687 297.223 130.622C297.719 130.42 298.218 130.205 298.707 129.983C298.87 129.907 299.068 129.983 299.14 130.146C299.217 130.313 299.14 130.507 298.977 130.58C298.482 130.805 297.975 131.021 297.472 131.229C297.431 131.246 297.389 131.253 297.347 131.253ZM264.039 131.128C263.998 131.128 263.953 131.121 263.915 131.104C263.408 130.892 262.905 130.67 262.416 130.441C262.253 130.365 262.181 130.17 262.257 130.004C262.333 129.841 262.527 129.768 262.694 129.844C263.176 130.066 263.672 130.288 264.171 130.497C264.338 130.566 264.417 130.76 264.348 130.927C264.296 131.052 264.175 131.128 264.046 131.128H264.039ZM300.313 129.913C300.191 129.913 300.077 129.848 300.018 129.733C299.938 129.57 300.004 129.372 300.164 129.292C300.646 129.053 301.128 128.799 301.596 128.546C301.755 128.459 301.953 128.518 302.04 128.678C302.127 128.838 302.068 129.035 301.908 129.122C301.433 129.382 300.944 129.636 300.455 129.879C300.406 129.903 300.358 129.913 300.309 129.913H300.313ZM261.088 129.761C261.04 129.761 260.988 129.75 260.939 129.726C260.453 129.48 259.968 129.219 259.493 128.956C259.333 128.869 259.278 128.667 259.364 128.508C259.451 128.348 259.652 128.293 259.812 128.379C260.28 128.64 260.759 128.897 261.237 129.139C261.4 129.223 261.463 129.421 261.379 129.58C261.32 129.695 261.206 129.761 261.088 129.761ZM303.167 128.355C303.056 128.355 302.945 128.3 302.886 128.195C302.792 128.039 302.844 127.838 303 127.744C303.462 127.47 303.923 127.182 304.37 126.894C304.523 126.797 304.724 126.838 304.825 126.991C304.922 127.144 304.88 127.345 304.728 127.446C304.273 127.741 303.805 128.032 303.337 128.31C303.285 128.341 303.226 128.355 303.17 128.355H303.167ZM258.244 128.178C258.185 128.178 258.126 128.164 258.074 128.13C257.61 127.848 257.145 127.553 256.69 127.255C256.538 127.154 256.496 126.953 256.597 126.8C256.697 126.648 256.899 126.606 257.051 126.707C257.499 127.002 257.96 127.293 258.414 127.571C258.57 127.664 258.619 127.866 258.525 128.022C258.463 128.123 258.355 128.182 258.244 128.182V128.178ZM255.529 126.391C255.463 126.391 255.397 126.37 255.338 126.328C254.894 126.012 254.454 125.683 254.023 125.353C253.881 125.242 253.854 125.037 253.965 124.891C254.076 124.749 254.28 124.721 254.426 124.832C254.849 125.159 255.286 125.481 255.723 125.794C255.872 125.898 255.903 126.103 255.799 126.252C255.737 126.342 255.633 126.391 255.532 126.391H255.529ZM252.955 124.405C252.882 124.405 252.806 124.381 252.747 124.329C252.331 123.982 251.915 123.621 251.509 123.26C251.374 123.139 251.363 122.93 251.485 122.795C251.606 122.66 251.814 122.649 251.95 122.771C252.348 123.128 252.761 123.482 253.17 123.826C253.309 123.94 253.33 124.149 253.212 124.287C253.146 124.364 253.052 124.405 252.959 124.405H252.955ZM250.535 122.236C250.451 122.236 250.372 122.205 250.306 122.143C249.914 121.764 249.525 121.372 249.151 120.983C249.026 120.851 249.029 120.643 249.161 120.518C249.293 120.393 249.501 120.397 249.626 120.529C249.994 120.914 250.378 121.296 250.763 121.67C250.895 121.795 250.899 122.004 250.77 122.136C250.704 122.202 250.621 122.236 250.535 122.236ZM248.284 119.893C248.194 119.893 248.103 119.855 248.037 119.782C247.677 119.376 247.32 118.96 246.973 118.54C246.858 118.401 246.876 118.193 247.018 118.078C247.157 117.964 247.365 117.981 247.479 118.123C247.819 118.536 248.173 118.949 248.53 119.345C248.651 119.48 248.637 119.689 248.502 119.81C248.44 119.866 248.364 119.893 248.284 119.893ZM246.217 117.391C246.12 117.391 246.019 117.346 245.957 117.263C245.627 116.832 245.301 116.388 244.989 115.944C244.885 115.795 244.92 115.59 245.069 115.486C245.218 115.382 245.423 115.416 245.527 115.565C245.835 116.003 246.158 116.437 246.48 116.864C246.591 117.006 246.564 117.214 246.418 117.325C246.359 117.37 246.29 117.391 246.22 117.391H246.217ZM244.344 114.739C244.236 114.739 244.132 114.687 244.07 114.59C243.772 114.132 243.48 113.667 243.199 113.202C243.106 113.046 243.158 112.844 243.31 112.751C243.466 112.657 243.668 112.709 243.761 112.862C244.035 113.32 244.323 113.782 244.618 114.229C244.718 114.382 244.673 114.583 244.524 114.684C244.469 114.719 244.406 114.736 244.344 114.736V114.739ZM242.669 111.949C242.554 111.949 242.44 111.887 242.381 111.779C242.121 111.303 241.864 110.818 241.618 110.328C241.535 110.165 241.601 109.971 241.764 109.887C241.927 109.808 242.121 109.87 242.204 110.033C242.447 110.516 242.7 110.995 242.957 111.463C243.043 111.623 242.988 111.821 242.828 111.907C242.78 111.935 242.724 111.949 242.669 111.949ZM241.209 109.041C241.084 109.041 240.966 108.968 240.91 108.85C240.685 108.353 240.467 107.85 240.258 107.347C240.189 107.18 240.269 106.986 240.435 106.92C240.602 106.85 240.796 106.93 240.862 107.097C241.067 107.593 241.282 108.09 241.504 108.579C241.58 108.742 241.504 108.94 241.341 109.013C241.295 109.034 241.25 109.044 241.205 109.044L241.209 109.041ZM239.971 106.031C239.839 106.031 239.71 105.948 239.662 105.816C239.475 105.306 239.291 104.785 239.121 104.268C239.065 104.095 239.159 103.911 239.329 103.855C239.502 103.8 239.686 103.893 239.742 104.063C239.908 104.574 240.089 105.087 240.272 105.587C240.335 105.757 240.248 105.945 240.078 106.007C240.04 106.021 240.002 106.028 239.964 106.028L239.971 106.031ZM238.958 102.939C238.816 102.939 238.684 102.845 238.642 102.703L238.594 102.536C238.462 102.071 238.334 101.592 238.216 101.12C238.171 100.943 238.278 100.766 238.455 100.721C238.632 100.676 238.809 100.784 238.854 100.961C238.972 101.429 239.097 101.898 239.225 102.356L239.274 102.519C239.322 102.693 239.222 102.876 239.048 102.925C239.017 102.936 238.986 102.939 238.958 102.939ZM238.174 99.7806C238.022 99.7806 237.886 99.673 237.855 99.5203C237.744 98.9893 237.64 98.4479 237.55 97.9099C237.519 97.7329 237.64 97.5628 237.817 97.5316C237.997 97.5003 238.164 97.6218 238.195 97.7988C238.285 98.3298 238.386 98.8643 238.497 99.385C238.535 99.562 238.42 99.7355 238.243 99.7737C238.219 99.7771 238.198 99.7806 238.174 99.7806ZM237.626 96.5737C237.463 96.5737 237.324 96.4522 237.3 96.2891C237.227 95.7476 237.165 95.1993 237.113 94.6578C237.096 94.4773 237.227 94.3177 237.408 94.3003C237.591 94.283 237.748 94.4149 237.765 94.5953C237.817 95.1264 237.876 95.6678 237.949 96.2023C237.973 96.3828 237.845 96.5459 237.668 96.5702C237.654 96.5702 237.64 96.5702 237.623 96.5702L237.626 96.5737ZM237.317 93.332C237.144 93.332 237.002 93.1966 236.991 93.0231C236.96 92.4782 236.939 91.9263 236.929 91.3849C236.926 91.2044 237.068 91.0552 237.252 91.0517C237.428 91.0517 237.581 91.1906 237.585 91.3745C237.595 91.909 237.616 92.4539 237.647 92.9884C237.657 93.1689 237.519 93.3251 237.338 93.3355C237.331 93.3355 237.324 93.3355 237.317 93.3355V93.332ZM237.255 90.0765H237.248C237.068 90.0765 236.922 89.9237 236.926 89.7433C236.936 89.1984 236.957 88.6465 236.985 88.1051C236.995 87.9246 237.151 87.7858 237.331 87.7962C237.512 87.8066 237.65 87.9628 237.64 88.1433C237.609 88.6778 237.591 89.2227 237.581 89.7571C237.581 89.9376 237.432 90.0799 237.252 90.0799L237.255 90.0765ZM237.435 86.8279C237.435 86.8279 237.415 86.8279 237.404 86.8279C237.224 86.8105 237.092 86.6508 237.109 86.4704C237.161 85.9289 237.22 85.3806 237.293 84.8391C237.317 84.6586 237.48 84.5337 237.661 84.558C237.841 84.5823 237.966 84.7454 237.942 84.9259C237.872 85.4569 237.81 85.9983 237.761 86.5294C237.744 86.6994 237.602 86.8279 237.435 86.8279ZM237.859 83.6001C237.841 83.6001 237.82 83.6001 237.803 83.5966C237.623 83.5654 237.505 83.3953 237.536 83.2183C237.626 82.6838 237.73 82.1389 237.841 81.6079C237.879 81.4309 238.049 81.3163 238.23 81.3545C238.406 81.3927 238.521 81.5662 238.483 81.7432C238.372 82.2673 238.271 82.8018 238.185 83.3294C238.157 83.489 238.018 83.6035 237.862 83.6035L237.859 83.6001Z" fill="#EA4722"/>
<path d="M238.521 80.393C238.493 80.393 238.469 80.393 238.441 80.3826C238.264 80.3375 238.157 80.1605 238.202 79.9835C238.268 79.7162 238.337 79.449 238.41 79.1852C238.459 79.0117 238.635 78.9075 238.812 78.9527C238.986 79.0013 239.09 79.1783 239.045 79.3553C238.975 79.6156 238.906 79.8794 238.84 80.1431C238.802 80.2924 238.67 80.393 238.521 80.393Z" fill="#EA4722"/>
<path d="M258.192 53.5851C258.081 53.5851 257.974 53.5296 257.911 53.4254C257.818 53.2692 257.866 53.068 258.022 52.9742C258.258 52.8319 258.494 52.6896 258.733 52.5508C258.889 52.4606 259.091 52.5126 259.181 52.6688C259.271 52.825 259.219 53.0263 259.063 53.1165C258.827 53.2519 258.595 53.3907 258.362 53.533C258.31 53.5643 258.251 53.5816 258.192 53.5816V53.5851Z" fill="#EA4722"/>
<path d="M323.085 101.683C323.057 101.683 323.029 101.683 323.001 101.672C322.825 101.627 322.72 101.447 322.766 101.273C322.901 100.745 323.029 100.207 323.144 99.6764C323.182 99.4994 323.359 99.3884 323.532 99.4266C323.709 99.4647 323.82 99.6383 323.782 99.8153C323.664 100.353 323.535 100.902 323.4 101.436C323.362 101.585 323.23 101.683 323.081 101.683H323.085ZM323.785 98.4513C323.768 98.4513 323.747 98.4513 323.726 98.4478C323.549 98.4166 323.428 98.2465 323.459 98.066C323.553 97.5281 323.64 96.9832 323.716 96.4452C323.74 96.2647 323.907 96.1398 324.087 96.1641C324.267 96.1884 324.392 96.355 324.368 96.5354C324.292 97.0803 324.205 97.6357 324.108 98.1806C324.08 98.3402 323.941 98.4513 323.785 98.4513ZM324.236 95.1784C324.236 95.1784 324.215 95.1784 324.205 95.1784C324.024 95.161 323.893 95.0014 323.91 94.8209C323.966 94.2795 324.007 93.7311 324.042 93.1862C324.052 93.0057 324.208 92.8669 324.389 92.8773C324.569 92.8877 324.708 93.0439 324.697 93.2244C324.663 93.7762 324.618 94.335 324.565 94.8834C324.548 95.0534 324.406 95.1784 324.239 95.1784H324.236ZM324.437 91.8777C324.437 91.8777 324.434 91.8777 324.43 91.8777C324.25 91.8742 324.104 91.725 324.111 91.5411C324.118 91.2148 324.122 90.8886 324.122 90.5623C324.122 90.3402 324.122 90.1215 324.118 89.8994C324.118 89.7189 324.26 89.5697 324.441 89.5662C324.621 89.5662 324.77 89.7085 324.774 89.889C324.774 90.1146 324.777 90.3367 324.777 90.5623C324.777 90.8955 324.774 91.2252 324.767 91.5549C324.763 91.7319 324.618 91.8742 324.441 91.8742L324.437 91.8777ZM324.385 88.5736C324.212 88.5736 324.066 88.4382 324.059 88.2647C324.031 87.7198 323.99 87.1679 323.941 86.63C323.924 86.4495 324.056 86.2898 324.236 86.2725C324.42 86.2551 324.576 86.3905 324.593 86.5675C324.645 87.1159 324.683 87.6747 324.715 88.23C324.725 88.4105 324.586 88.5666 324.406 88.5771C324.399 88.5771 324.396 88.5771 324.389 88.5771L324.385 88.5736ZM324.083 85.2833C323.92 85.2833 323.782 85.1619 323.757 84.9987C323.688 84.4608 323.605 83.9159 323.515 83.3744C323.483 83.1974 323.605 83.0274 323.782 82.9961C323.959 82.9649 324.129 83.0864 324.16 83.2634C324.253 83.8083 324.337 84.3636 324.406 84.912C324.43 85.0924 324.302 85.2556 324.122 85.2799C324.108 85.2799 324.094 85.2799 324.08 85.2799L324.083 85.2833ZM323.532 82.0243C323.379 82.0243 323.244 81.9167 323.213 81.764C323.102 81.233 322.981 80.695 322.849 80.164C322.804 79.987 322.911 79.81 323.088 79.7649C323.261 79.7198 323.442 79.8273 323.487 80.0044C323.622 80.5423 323.744 81.0907 323.858 81.6287C323.896 81.8057 323.782 81.9792 323.605 82.0174C323.581 82.0209 323.56 82.0243 323.539 82.0243H323.532ZM322.738 78.8174C322.596 78.8174 322.464 78.7237 322.422 78.5814C322.273 78.0573 322.11 77.5297 321.94 77.0126C321.885 76.8391 321.978 76.6551 322.148 76.5996C322.322 76.544 322.505 76.6378 322.561 76.8078C322.731 77.3319 322.897 77.8664 323.05 78.3974C323.098 78.5709 322.998 78.7549 322.825 78.8035C322.793 78.8139 322.762 78.8174 322.734 78.8174H322.738ZM321.708 75.6798C321.576 75.6798 321.448 75.5965 321.399 75.4646C321.212 74.9544 321.011 74.4408 320.803 73.9375C320.733 73.7709 320.813 73.5766 320.979 73.5072C321.146 73.4377 321.34 73.5176 321.41 73.6842C321.621 74.1944 321.826 74.7184 322.016 75.2356C322.079 75.4056 321.992 75.5931 321.822 75.659C321.784 75.6729 321.746 75.6798 321.708 75.6798ZM320.445 72.6256C320.32 72.6256 320.203 72.5527 320.147 72.4347C319.922 71.9419 319.682 71.4421 319.436 70.9562C319.353 70.793 319.419 70.5987 319.582 70.5154C319.745 70.4321 319.942 70.498 320.022 70.6612C320.272 71.154 320.515 71.6573 320.744 72.1605C320.82 72.3236 320.744 72.5215 320.581 72.5944C320.536 72.6152 320.49 72.6256 320.445 72.6256ZM318.954 69.6755C318.84 69.6755 318.725 69.613 318.666 69.5054C318.403 69.0299 318.125 68.5544 317.844 68.0859C317.751 67.9297 317.799 67.7284 317.955 67.6347C318.111 67.541 318.312 67.5896 318.406 67.7457C318.694 68.2178 318.975 68.7037 319.242 69.1861C319.329 69.3458 319.273 69.5436 319.114 69.6338C319.062 69.6616 319.01 69.6755 318.954 69.6755ZM317.244 66.8503C317.137 66.8503 317.033 66.7982 316.97 66.7011C316.672 66.2499 316.36 65.7952 316.044 65.3509C315.94 65.2052 315.971 64.9969 316.121 64.8928C316.266 64.7887 316.471 64.8199 316.578 64.9692C316.901 65.4169 317.217 65.8785 317.518 66.3366C317.619 66.4893 317.577 66.6906 317.425 66.7913C317.369 66.8295 317.307 66.8468 317.244 66.8468V66.8503ZM315.326 64.1674C315.229 64.1674 315.132 64.1223 315.066 64.039C314.733 63.6086 314.39 63.1817 314.04 62.7652C313.922 62.6264 313.943 62.4182 314.081 62.3036C314.22 62.1891 314.428 62.2065 314.543 62.3453C314.896 62.7687 315.247 63.2026 315.583 63.6399C315.694 63.7822 315.666 63.9904 315.524 64.1015C315.465 64.1466 315.392 64.1709 315.323 64.1709L315.326 64.1674ZM313.211 61.6373C313.121 61.6373 313.03 61.6026 312.968 61.5297C312.604 61.1271 312.226 60.7245 311.848 60.3357C311.723 60.2073 311.723 59.9991 311.855 59.8707C311.983 59.7422 312.191 59.7457 312.32 59.8776C312.704 60.2698 313.086 60.6793 313.457 61.0889C313.578 61.2242 313.568 61.4325 313.433 61.554C313.37 61.6095 313.291 61.6373 313.214 61.6373H313.211ZM310.908 59.2737C310.828 59.2737 310.745 59.2425 310.683 59.1835C310.287 58.8086 309.881 58.4373 309.476 58.0763C309.34 57.9548 309.327 57.75 309.448 57.6147C309.569 57.4793 309.774 57.4654 309.909 57.5869C310.322 57.9514 310.735 58.3297 311.137 58.708C311.269 58.8329 311.272 59.0412 311.147 59.173C311.081 59.2425 310.995 59.2737 310.908 59.2737ZM308.432 57.0906C308.359 57.0906 308.286 57.0663 308.224 57.0177C307.804 56.6741 307.37 56.334 306.937 56.0043C306.791 55.8967 306.764 55.6884 306.875 55.5461C306.982 55.4004 307.19 55.3726 307.332 55.4837C307.773 55.8169 308.213 56.1639 308.64 56.511C308.779 56.6255 308.799 56.8338 308.685 56.9726C308.619 57.0524 308.525 57.0941 308.432 57.0941V57.0906ZM305.796 55.1019C305.73 55.1019 305.668 55.0845 305.609 55.0429C305.161 54.7305 304.703 54.4251 304.246 54.1301C304.093 54.0329 304.048 53.8281 304.149 53.6754C304.246 53.5227 304.45 53.4776 304.603 53.5782C305.068 53.8767 305.532 54.1891 305.983 54.5049C306.132 54.609 306.167 54.8138 306.066 54.9631C306.004 55.0533 305.9 55.1019 305.796 55.1019ZM303.018 53.3145C302.962 53.3145 302.904 53.3006 302.852 53.2693C302.383 52.9917 301.901 52.721 301.426 52.4607C301.267 52.3739 301.208 52.1761 301.294 52.0164C301.381 51.8568 301.579 51.7978 301.738 51.8845C302.224 52.1483 302.709 52.4225 303.184 52.7036C303.341 52.7973 303.393 52.9986 303.299 53.1548C303.236 53.2589 303.129 53.3145 303.018 53.3145ZM260.336 52.3635C260.218 52.3635 260.103 52.301 260.044 52.1899C259.958 52.0303 260.02 51.8325 260.18 51.7457C260.665 51.4854 261.165 51.232 261.664 50.9925C261.827 50.9127 262.025 50.9821 262.101 51.1453C262.181 51.3084 262.111 51.5062 261.948 51.5826C261.459 51.8186 260.967 52.0685 260.488 52.3253C260.44 52.3531 260.388 52.3635 260.336 52.3635ZM300.115 51.7422C300.067 51.7422 300.018 51.7318 299.969 51.7075C299.484 51.468 298.985 51.232 298.485 51.0099C298.319 50.937 298.246 50.7426 298.319 50.5761C298.391 50.4095 298.586 50.3366 298.752 50.4095C299.259 50.6351 299.765 50.8745 300.257 51.1175C300.42 51.1973 300.486 51.3951 300.406 51.5583C300.351 51.6728 300.233 51.7422 300.112 51.7422H300.115ZM263.308 50.9231C263.183 50.9231 263.062 50.8502 263.006 50.7253C262.933 50.5587 263.006 50.3643 263.176 50.2915C263.679 50.0693 264.196 49.8541 264.712 49.6528C264.882 49.5869 265.07 49.6702 265.139 49.8368C265.205 50.0069 265.122 50.1943 264.955 50.2637C264.449 50.465 263.939 50.6767 263.44 50.8919C263.398 50.9092 263.353 50.9197 263.308 50.9197V50.9231ZM297.098 50.3921C297.056 50.3921 297.015 50.3852 296.976 50.3678C296.474 50.163 295.957 49.9687 295.444 49.7847C295.274 49.7223 295.183 49.5348 295.246 49.3648C295.308 49.1947 295.496 49.1045 295.666 49.1669C296.186 49.3544 296.709 49.5522 297.223 49.7604C297.389 49.8298 297.472 50.0207 297.403 50.1873C297.351 50.3158 297.23 50.3921 297.098 50.3921ZM266.381 49.7153C266.245 49.7153 266.117 49.632 266.072 49.4967C266.013 49.3266 266.103 49.1392 266.273 49.0767C266.793 48.8927 267.327 48.7192 267.855 48.5561C268.028 48.504 268.212 48.6012 268.264 48.7713C268.316 48.9448 268.219 49.1288 268.049 49.1808C267.529 49.3405 267.005 49.514 266.492 49.6945C266.457 49.7084 266.419 49.7118 266.384 49.7118L266.381 49.7153ZM293.99 49.2745C293.956 49.2745 293.925 49.2711 293.89 49.2606C293.37 49.0941 292.839 48.9379 292.319 48.7921C292.145 48.7435 292.041 48.563 292.09 48.3895C292.138 48.216 292.319 48.1118 292.492 48.1604C293.023 48.3062 293.56 48.4659 294.088 48.6359C294.261 48.6915 294.355 48.8754 294.303 49.0489C294.257 49.1878 294.129 49.278 293.99 49.278V49.2745ZM269.537 48.74C269.391 48.74 269.259 48.6429 269.221 48.4971C269.172 48.3235 269.276 48.1431 269.453 48.0945C269.984 47.9522 270.528 47.8168 271.07 47.6919C271.246 47.6537 271.423 47.7613 271.461 47.9383C271.503 48.1153 271.392 48.2923 271.215 48.3305C270.685 48.452 270.147 48.5873 269.623 48.7262C269.596 48.7331 269.568 48.7366 269.537 48.7366V48.74ZM290.803 48.3964C290.779 48.3964 290.755 48.3964 290.727 48.386C290.2 48.2611 289.659 48.1465 289.125 48.039C288.948 48.0042 288.83 47.8307 288.865 47.6537C288.899 47.4767 289.073 47.3587 289.249 47.3934C289.794 47.501 290.342 47.619 290.876 47.7439C291.053 47.7856 291.16 47.9626 291.119 48.1396C291.084 48.2923 290.949 48.393 290.8 48.393L290.803 48.3964ZM272.755 48.0042C272.599 48.0042 272.464 47.8932 272.433 47.737C272.398 47.56 272.516 47.3865 272.693 47.3517C273.234 47.2476 273.785 47.1539 274.333 47.0706C274.513 47.0429 274.68 47.1678 274.708 47.3448C274.735 47.5253 274.61 47.6919 274.434 47.7196C273.896 47.7995 273.352 47.8932 272.817 47.9938C272.797 47.9973 272.776 48.0008 272.755 48.0008V48.0042ZM287.561 47.7613C287.561 47.7613 287.526 47.7613 287.508 47.7578C286.971 47.6745 286.426 47.5982 285.882 47.5357C285.702 47.5149 285.573 47.3517 285.594 47.1713C285.615 46.9908 285.778 46.8624 285.958 46.8832C286.51 46.9491 287.065 47.0255 287.609 47.1088C287.789 47.1366 287.911 47.3032 287.883 47.4836C287.859 47.6468 287.717 47.7613 287.561 47.7613ZM276.022 47.5114C275.859 47.5114 275.717 47.3865 275.696 47.2199C275.675 47.0394 275.804 46.8763 275.984 46.8554C276.535 46.793 277.09 46.7409 277.642 46.6993C277.822 46.6854 277.978 46.8207 277.992 47.0012C278.006 47.1817 277.871 47.3379 277.69 47.3517C277.149 47.3934 276.601 47.442 276.057 47.5045C276.043 47.5045 276.032 47.5045 276.019 47.5045L276.022 47.5114ZM284.276 47.376C284.276 47.376 284.259 47.376 284.248 47.376C283.707 47.3344 283.156 47.2997 282.608 47.2789C282.428 47.2719 282.285 47.1192 282.292 46.9387C282.299 46.7583 282.455 46.6194 282.632 46.6229C283.187 46.6472 283.746 46.6784 284.297 46.7235C284.477 46.7374 284.613 46.8971 284.599 47.0776C284.585 47.2511 284.443 47.3795 284.273 47.3795L284.276 47.376ZM279.317 47.2685C279.14 47.2685 278.994 47.1296 278.991 46.9526C278.984 46.7721 279.126 46.6194 279.306 46.6125C279.82 46.5951 280.347 46.5847 280.864 46.5847H280.971C281.151 46.5847 281.297 46.734 281.297 46.9144C281.297 47.0949 281.148 47.2407 280.968 47.2407H280.864C280.354 47.2407 279.837 47.2511 279.331 47.2685C279.327 47.2685 279.324 47.2685 279.32 47.2685H279.317Z" fill="#EA4722"/>
<path d="M322.395 104.081C322.36 104.081 322.329 104.077 322.294 104.064C322.121 104.008 322.027 103.824 322.082 103.651C322.166 103.394 322.245 103.133 322.322 102.873C322.374 102.7 322.554 102.599 322.731 102.651C322.904 102.703 323.001 102.887 322.953 103.06C322.873 103.324 322.793 103.588 322.71 103.848C322.665 103.987 322.537 104.077 322.398 104.077L322.395 104.081Z" fill="#EA4722"/>
<path d="M316.065 106.878C316.197 106.656 316.176 106.375 316.009 106.177L311.265 100.516C312.319 97.2329 312.857 93.7553 312.805 90.2047L318.989 86.1787C319.207 86.0364 319.308 85.7726 319.245 85.5227L317.102 76.9257C317.039 76.6758 316.824 76.4919 316.568 76.4676L309.219 75.822C307.599 72.6637 305.491 69.8489 303.018 67.4437L304.547 60.2176C304.599 59.9643 304.488 59.704 304.266 59.5721L296.675 55.0081C296.453 54.8762 296.172 54.897 295.974 55.0636L290.317 59.8115C287.037 58.7564 283.562 58.2185 280.014 58.2705L275.991 52.0822C275.848 51.8636 275.585 51.7629 275.335 51.8254L266.745 53.9703C266.495 54.0328 266.311 54.248 266.287 54.5048L265.642 61.8593C262.486 63.4801 259.673 65.5903 257.27 68.0649L250.049 66.5343C249.796 66.4823 249.536 66.5933 249.404 66.8155L244.847 74.4129C244.715 74.635 244.736 74.9162 244.902 75.114L249.647 80.7747C248.592 84.0581 248.055 87.5357 248.103 91.0863L241.92 95.1123C241.701 95.2546 241.601 95.5184 241.663 95.7683L243.806 104.365C243.869 104.615 244.084 104.799 244.34 104.823L251.689 105.469C253.309 108.627 255.418 111.442 257.89 113.847L256.361 121.073C256.306 121.327 256.42 121.587 256.642 121.719L264.234 126.279C264.456 126.411 264.737 126.391 264.934 126.224L270.591 121.476C273.872 122.531 277.347 123.069 280.895 123.017L284.918 129.205C285.06 129.424 285.323 129.525 285.573 129.462L294.164 127.317C294.413 127.255 294.597 127.04 294.621 126.783L295.267 119.428C298.423 117.807 301.235 115.697 303.639 113.223L310.859 114.753C311.112 114.805 311.373 114.694 311.504 114.472L316.065 106.875V106.878Z" fill="#EA4722"/>
<path d="M280.471 98.8399C277.548 98.8399 274.714 97.2711 273.237 94.5153C271.104 90.531 272.609 85.5539 276.587 83.4194C280.568 81.2849 285.542 82.7912 287.675 86.7721C288.708 88.7019 288.927 90.9197 288.295 93.016C287.661 95.1123 286.253 96.8338 284.324 97.8681C283.097 98.5275 281.775 98.8399 280.471 98.8399ZM280.447 83.1001C279.223 83.1001 278.009 83.4021 276.899 83.9956C273.237 85.96 271.853 90.5379 273.816 94.203C275.779 97.8681 280.353 99.2529 284.016 97.2885C285.788 96.3375 287.089 94.7514 287.671 92.8251C288.254 90.8989 288.053 88.8581 287.102 87.081C286.152 85.3075 284.567 84.006 282.642 83.4229C281.921 83.2042 281.186 83.0966 280.454 83.0966L280.447 83.1001Z" fill="white"/>
<path d="M280.291 112.272C270.57 112.272 261.698 105.674 259.243 95.8169C258.806 94.0573 258.594 92.2976 258.594 90.5623C258.594 80.8338 265.191 71.9592 275.037 69.4984C280.659 68.0928 286.492 68.9639 291.459 71.9522C296.425 74.937 299.935 79.6815 301.336 85.3076C301.662 86.6195 301.87 87.9592 301.95 89.2989C301.96 89.4933 301.97 89.6876 301.977 89.8855C301.977 89.8889 301.977 89.8924 301.977 89.8959C301.977 90.0729 301.839 90.2187 301.658 90.2256C301.478 90.2325 301.325 90.0902 301.318 89.9098C301.27 88.4208 301.062 86.9284 300.698 85.4707C300.32 83.9609 299.789 82.5136 299.113 81.1531C299.109 81.1427 299.106 81.1358 299.099 81.1288C299.099 81.1219 299.092 81.1184 299.092 81.1115C299.075 81.0768 299.057 81.042 299.04 81.0073C299.036 81.0004 299.033 80.9935 299.029 80.983C297.451 77.8767 295.124 75.2182 292.204 73.2156C291.85 72.9726 291.49 72.7435 291.122 72.5214C286.305 69.6268 280.648 68.78 275.196 70.144C265.645 72.5284 259.25 81.1358 259.25 90.5692C259.25 92.2525 259.455 93.9601 259.878 95.6677C262.687 106.93 274.128 113.806 285.382 110.998C289.083 110.075 292.457 108.169 295.142 105.486C295.27 105.358 295.478 105.358 295.606 105.486C295.669 105.549 295.704 105.636 295.704 105.719C295.704 105.802 295.672 105.886 295.606 105.951C292.839 108.718 289.36 110.682 285.542 111.637C283.787 112.074 282.025 112.286 280.291 112.286V112.272Z" fill="white"/>
<path d="M293.338 354.754L282.771 449.623H405.401L389.427 354.754H293.338Z" fill="#24252B"/>
<path d="M87.3381 121.021V338.296C87.3381 356.17 101.571 370.785 119.425 371.247C198.724 373.295 476.078 378.254 551.565 377.14C564.54 376.949 575.052 366.558 575.426 353.577C576.883 303.103 579.245 181.724 570.498 125.374C568.656 113.507 558.647 104.633 546.651 104.251C480.208 102.123 186.197 95.3692 110.745 97.0664C97.7321 97.3579 87.3416 107.996 87.3416 121.021H87.3381Z" fill="#24252B"/>
<path d="M100.964 119.963V326.388C100.964 336.824 109.336 345.328 119.762 345.484L540.707 350.69C551.045 350.846 559.518 342.523 559.556 332.177L560.26 127.595C560.288 120.199 554.399 114.135 547.008 113.955L116.037 105.243C107.772 105.042 100.961 111.692 100.961 119.966L100.964 119.963Z" fill="white"/>
<path d="M336.399 368.824C333.392 368.824 330.947 366.377 330.947 363.368C330.947 360.359 333.392 357.912 336.399 357.912C339.406 357.912 341.851 360.359 341.851 363.368C341.851 366.377 339.406 368.824 336.399 368.824ZM336.399 359.207C334.106 359.207 332.24 361.074 332.24 363.368C332.24 365.662 334.106 367.53 336.399 367.53C338.691 367.53 340.557 365.662 340.557 363.368C340.557 361.074 338.691 359.207 336.399 359.207Z" fill="white"/>
<path d="M431.818 469.035H252.338C247.462 469.035 243.8 465.56 244.743 461.829L247.046 452.715C247.739 449.973 250.753 447.96 254.332 447.849L427.358 442.445C431.096 442.327 434.408 444.316 435.223 447.162L439.375 461.68C440.453 465.453 436.774 469.031 431.821 469.031L431.818 469.035Z" fill="#24252B"/>
<path d="M348.953 450.379C348.6 450.379 348.312 450.095 348.308 449.741C348.305 449.383 348.589 449.088 348.947 449.085L356.361 448.977H356.372C356.726 448.977 357.013 449.262 357.017 449.616C357.02 449.973 356.736 450.268 356.379 450.272L348.964 450.379H348.953Z" fill="white"/>
<path d="M251.388 464.072C251.353 464.072 251.319 464.072 251.284 464.065C250.93 464.009 250.691 463.676 250.746 463.325L251.804 456.696C252.376 453.104 255.432 450.459 259.066 450.404L337.706 449.255C338.046 449.241 338.358 449.536 338.362 449.894C338.365 450.251 338.081 450.546 337.724 450.55L259.084 451.698C256.08 451.744 253.555 453.93 253.08 456.901L252.023 463.53C251.971 463.85 251.697 464.075 251.384 464.075L251.388 464.072Z" fill="white"/>
<path d="M468.569 183.595H421.781C418.843 183.595 416.464 181.214 416.464 178.274C416.464 175.335 418.843 172.954 421.781 172.954H468.569C471.507 172.954 473.886 175.335 473.886 178.274C473.886 181.214 471.503 183.595 468.569 183.595Z" fill="#A5A5A5"/>
<path d="M485.792 175.22H536.295C539.465 175.22 542.035 184.674 542.035 196.333V320.665C542.035 332.326 539.465 341.777 536.295 341.777H485.792C482.622 341.777 480.052 332.326 480.052 320.665V196.333C480.052 184.671 482.622 175.22 485.792 175.22Z" fill="#A5A5A5"/>
<path d="M468.573 189.509H421.781C418.844 189.509 416.464 191.891 416.464 194.83V226.171C416.464 229.109 418.844 231.491 421.781 231.491H468.573C471.509 231.491 473.89 229.109 473.89 226.171V194.83C473.89 191.891 471.509 189.509 468.573 189.509Z" fill="#A5A5A5"/>
<path d="M421.781 240.886H468.569C471.507 240.886 473.886 246.631 473.886 253.711V329.241C473.886 336.325 471.503 342.065 468.569 342.065H421.781C418.843 342.065 416.464 336.325 416.464 329.241V253.711C416.464 246.627 418.843 240.886 421.781 240.886Z" fill="#A5A5A5"/>
<path d="M496.758 9.5169C496.675 9.67309 491.442 13.5291 491.442 13.5291C491.442 13.5291 492.597 21.8033 497.292 25.0727C502.453 28.6649 509.74 22.1122 509.74 22.1122C509.74 22.1122 515.538 23.4935 518.625 11.4085C519.332 8.63534 515.247 8.4028 510.319 8.913C503.962 9.57244 496.762 9.5169 496.762 9.5169H496.758Z" fill="#24252B"/>
<path d="M486.975 37.7513C489.021 36.3422 491.286 35.2801 493.686 34.6276C494.587 34.3812 499.457 35.7973 502.463 35.7279C506.594 35.6341 510.797 33.753 514.203 34.5999C517.584 35.4433 520.352 36.5435 521.951 37.6819C526.733 41.0867 529.543 47.4346 531.256 53.7271C528.013 57.0555 523.935 58.5375 523.935 58.5375L523.182 89.1077L505.12 98.3572L484.502 87.997L485.241 58.121C485.241 58.121 478.693 55.0702 478.214 53.9596C477.732 52.849 481.197 41.7253 486.975 37.7513Z" fill="#EA4722"/>
<path d="M478.519 53.8276C478.519 53.8276 469.745 78.1679 489.753 88.174C493.907 87.6221 492.309 80.7188 492.309 80.7188C492.309 80.7188 483.617 78.7926 486.225 58.4888C483.822 56.5105 478.519 53.8311 478.519 53.8311V53.8276Z" fill="#FFC0B8"/>
<path d="M530.836 53.8276C530.836 53.8276 536.874 79.2368 519.603 88.174C515.448 87.6221 517.047 80.7188 517.047 80.7188C517.047 80.7188 524.052 77.2655 523.13 58.4888C525.533 56.5105 530.836 53.8311 530.836 53.8311V53.8276Z" fill="#FFC0B8"/>
<path d="M520.986 63.1118H487.155C485.559 63.1118 484.266 64.4062 484.266 66.0029V86.9904C484.266 88.5871 485.559 89.8815 487.155 89.8815H520.986C522.582 89.8815 523.875 88.5871 523.875 86.9904V66.0029C523.875 64.4062 522.582 63.1118 520.986 63.1118Z" fill="#2B2B2B"/>
<path d="M541.251 97.8192C536.718 96.778 526.241 97.3368 526.241 97.3368L525.814 98.4925L525.11 104.233C525.11 104.233 535.088 106.034 540.006 106.027C540.509 106.027 540.966 105.951 541.386 105.823C541.535 105.687 541.681 105.549 541.82 105.396C543.907 103.116 543.304 99.7663 541.251 97.8192Z" fill="#24252B"/>
<path d="M523.23 97.0139L525.006 97.0903C525.96 97.1319 526.858 97.597 527.5 98.3814C528.141 99.1658 528.471 100.204 528.415 101.259C528.37 102.102 528.023 102.89 527.455 103.449C526.886 104.007 526.137 104.292 525.377 104.237L522.662 104.042L523.23 97.0139Z" fill="#24252B"/>
<path d="M463.575 97.2671C468.132 96.3647 478.592 97.2463 478.592 97.2463L478.991 98.4125L479.553 104.174C479.553 104.174 469.533 105.666 464.619 105.51C464.116 105.493 463.662 105.406 463.246 105.26C463.1 105.121 462.958 104.976 462.823 104.823C460.794 102.48 461.48 99.1483 463.579 97.2671H463.575Z" fill="#24252B"/>
<path d="M481.609 97.0137L479.834 97.0345C478.88 97.045 477.971 97.4823 477.309 98.2458C476.65 99.0094 476.293 100.037 476.324 101.095C476.348 101.939 476.674 102.737 477.229 103.313C477.784 103.889 478.526 104.195 479.286 104.167L482.005 104.056L481.609 97.0103V97.0137Z" fill="#24252B"/>
<path d="M542.517 79.8233C540.46 75.0893 535.431 74.3188 531.155 76.5331C531.082 76.6303 503.979 90.5305 480.076 96.6251C480.76 98.8221 481.113 101.158 481.19 103.452C481.204 103.962 481.197 104.469 481.165 104.965C499.495 104.025 519.388 97.9058 536.479 92.5297C541.778 90.8186 544.795 85.0711 542.517 79.8233Z" fill="#24252B"/>
<path d="M523.359 103.81C523.286 101.165 523.803 98.7007 524.902 96.4204C524.933 96.3163 524.972 96.2156 525.006 96.1115C523.64 95.6881 521.878 95.1154 519.561 94.3276C502.588 88.5141 489.642 82.6451 477.285 75.8911C472.485 73.2672 467.026 75.0268 465.489 80.7084C464.116 85.7826 467.13 90.1141 471.701 91.6377C485.379 96.1913 478.259 94.928 482.726 96.3649C494.722 100.079 509.653 103.459 523.39 104.382C523.38 104.191 523.369 103.997 523.362 103.806L523.359 103.81Z" fill="#24252B"/>
<path d="M493.686 34.6276C493.686 34.6276 495.51 42.5443 504.374 42.3777C513.402 42.2146 514.207 34.5998 514.207 34.5998L508.311 33.3365L507.818 26.7629L498.95 27.4189L498.787 33.6662L493.692 34.6276H493.686Z" fill="#F2A39E"/>
<path d="M500.192 8.1355C500.192 8.1355 490.027 27.8388 502.085 32.618C510.589 35.9881 515.923 19.5334 514.331 15.077C511.872 8.18409 510.253 9.00318 510.253 9.00318L500.192 8.1355Z" fill="#F2A39E"/>
<path d="M516.776 6.34111C521.798 7.72246 517.505 18.6205 509.948 16.0418C502.387 13.463 499.418 13.5012 498.239 15.5802C497.06 17.6592 496.807 25.0345 494.251 21.3902C491.449 17.3919 489.884 9.36759 493.321 6.78189C496.391 4.47039 497.109 0.885126 500.792 1.01007C505.682 1.17667 509.462 -0.992538 511.668 0.56929C514.203 2.36713 513.083 5.32419 516.776 6.34111Z" fill="#24252B"/>
<path d="M497.774 17.2775C497.774 17.2775 495.607 14.9417 495.26 17.7564C494.913 20.5712 496.026 24.1912 497.33 22.2059C498.634 20.2206 497.774 17.2775 497.774 17.2775Z" fill="url(#paint0_linear_13_3595)"/>
<path d="M506.407 70.3623C506.618 71.7818 505.855 73.0729 504.437 73.2811C503.018 73.4929 501.697 72.5106 501.485 71.0911C501.274 69.6716 501.926 68.259 503.344 68.0508C504.763 67.839 506.195 68.9427 506.407 70.3623Z" fill="white"/>
<path d="M601.912 431.298H597.99V473.738H601.912V431.298Z" fill="url(#paint1_linear_13_3595)"/>
<path d="M583.739 472.002H616.087C616.659 472.002 617.124 472.468 617.124 473.04V474.557H582.779V472.964C582.779 472.433 583.209 472.002 583.739 472.002Z" fill="url(#paint2_linear_13_3595)"/>
<path d="M582.206 421.191H619.135C621.608 421.191 623.616 423.2 623.616 425.675V429.729C623.616 432.204 621.608 434.213 619.135 434.213H582.206C579.734 434.213 577.726 432.204 577.726 429.729V425.675C577.726 423.2 579.734 421.191 582.206 421.191Z" fill="url(#paint3_linear_13_3595)"/>
<path d="M578.107 466.22C578.107 466.22 566.908 474.297 568.854 479.725C568.854 479.725 581.107 474.435 582.584 470.267C584.065 466.099 582.335 464.259 582.335 464.259L578.107 466.22Z" fill="black"/>
<path d="M579.793 459.449L581.624 464.745C581.901 465.543 581.624 466.456 580.909 466.907C580.552 467.133 580.063 467.341 579.394 467.494C578.45 467.709 577.476 467.272 577.021 466.418L574.83 462.291L579.789 459.449H579.793Z" fill="#FFC0B8"/>
<path d="M597.608 411.771C597.608 411.771 574.608 415.759 564.744 424.88C554.877 434.001 573.8 463.096 573.8 463.096C573.8 463.096 576.9 463.076 580.656 459.855C580.656 459.855 569.437 437.972 579.106 431.593C589.975 424.419 602.502 422.805 602.502 422.805L597.83 412.476L597.608 411.771Z" fill="black"/>
<path d="M570.8 476.723C573.262 475.581 580.236 470.697 581.412 470.482C582.588 470.267 584.627 471.648 584.627 471.648C584.627 471.648 585.123 472.54 584.592 474.099C582.955 476.081 579.321 479.857 574.438 481.266C570.845 482.3 568.33 481.335 566.766 480.207C567.626 478.895 569.163 477.483 570.803 476.723H570.8Z" fill="black"/>
<path d="M574.434 481.266C579.321 479.857 582.952 476.08 584.589 474.099C584.232 475.15 583.403 476.504 581.637 478.093C577.257 482.033 568.892 483.452 567.113 483.178C565.684 482.959 565.819 481.641 566.763 480.204C568.327 481.332 570.841 482.3 574.434 481.262V481.266Z" fill="black"/>
<path d="M586.715 468.199C586.687 468.879 585.3 471.208 584.488 472.513C584.103 473.134 583.427 473.512 582.699 473.516C582.234 473.516 581.703 473.478 581.221 473.339C580.497 473.13 580.087 472.356 580.299 471.631L581.884 466.22L586.715 468.202V468.199Z" fill="#FFC0B8"/>
<path d="M619.749 404.861C619.749 404.861 624.858 418.529 619.749 422.687C614.64 426.845 602.457 431.523 599.734 439.801C597.012 448.079 592.392 464.169 586.212 469.868C586.212 469.868 581.87 469.448 580.243 467.716C580.243 467.716 583.764 443.695 586.087 437.535C588.099 432.197 591.061 424.495 596.738 420.188C598.364 418.956 598.08 417.002 597.327 415.107L595.954 411.653L619.749 404.865V404.861Z" fill="black"/>
<path d="M566.478 394.147C575.041 394.664 572.374 380.972 572.218 380.427L585.217 389.614C585.217 389.614 584.53 396.938 573.72 400.776C570.987 401.748 568.486 401.79 566.277 401.314C567.22 398.565 567.026 396.098 566.475 394.144L566.478 394.147Z" fill="#32A981"/>
<path d="M549.918 390.027C553.109 387.806 556.726 390.027 556.726 390.027C560.992 392.821 564.151 394.008 566.478 394.147C567.03 396.101 567.224 398.569 566.281 401.318C561.502 400.29 558.078 396.826 556.594 395.049C556.06 394.411 555.113 394.3 554.458 394.817C553.792 395.341 553.147 396.059 553.265 396.819C553.497 398.312 551.766 398.787 551.635 398.246C551.503 397.704 552.228 394.494 552.228 394.494C552.228 394.494 548.767 397.979 547.414 399.315C546.061 400.655 544.365 399.315 544.365 399.315C544.365 399.315 546.727 392.249 549.921 390.027H549.918Z" fill="#FFC0B8"/>
<path d="M606.41 359.284C606.41 359.284 593.949 354.293 570.761 373.448C570.761 373.448 568.826 377.46 570.938 381.031C573.05 384.602 593.183 402.001 595.95 411.653C595.95 411.653 607.943 415.554 620.349 406.305C620.349 406.305 619.253 379.448 606.41 359.284Z" fill="#32A981"/>
<path d="M581.78 354.827L587.915 362.268C588.525 363.008 588.657 364.035 588.237 364.896C587.388 366.635 585.366 369.165 580.885 368.814C579.553 368.71 578.37 367.905 577.791 366.701L573.501 357.829L581.78 354.827Z" fill="#F2A39E"/>
<path d="M616.059 391.152C617.505 385.255 602.855 372.115 602.855 372.115L606.414 359.283C606.414 359.283 638.05 380.361 629.987 397.309C628.832 399.738 627.295 401.439 625.516 402.577C622.967 395.716 618.909 392.568 616.059 391.152Z" fill="#32A981"/>
<path d="M616.069 390.295C616.225 390.295 616.368 390.19 616.406 390.031C617.883 384.002 603.702 371.195 603.095 370.654C602.953 370.525 602.734 370.539 602.606 370.681C602.478 370.824 602.492 371.042 602.634 371.171C602.779 371.299 617.113 384.242 615.733 389.868C615.688 390.055 615.802 390.242 615.986 390.288C616.014 390.295 616.042 390.298 616.069 390.298V390.295Z" fill="white"/>
<path d="M593.866 390.645C593.866 390.645 611.238 397.396 615.476 392.318C615.764 391.974 615.951 391.582 616.055 391.152C618.906 392.568 622.964 395.716 625.513 402.577C616.378 408.419 600.761 399.329 596.54 396.646C595.846 396.205 595.011 396.049 594.206 396.219C592.576 396.556 589.763 397.055 588.248 396.819C586.028 396.476 582.841 404.313 579.241 401.897C579.241 401.897 582.321 388.278 593.866 390.645Z" fill="#FFC0B8"/>
<path d="M566.478 346.265C566.478 346.265 566.371 354.369 567.682 358.048C568.989 361.727 569.194 364.386 573.654 363.365C578.114 362.345 580.743 358.801 581.138 354.425C581.138 354.425 581.793 347.657 580.177 345.678C578.561 343.697 566.482 346.268 566.482 346.268L566.478 346.265Z" fill="#F2A39E"/>
<path d="M578.634 352.443L578.11 352.665C578.11 352.665 578.412 347.313 576.182 347.33C573.952 347.348 565.778 348.975 563.031 346.983C560.381 345.064 560.381 341.145 562.081 339.334C562.188 339.219 562.369 339.216 562.49 339.316L562.802 339.573C563.014 339.747 563.333 339.573 563.301 339.303C563.27 339.042 563.562 338.862 563.773 339.011C564.605 339.601 566.499 340.337 570.39 339.486C575.915 338.279 580.174 338.931 581.745 342.444C581.846 342.666 582.137 342.69 582.279 342.492C582.56 342.103 583.122 341.739 584.214 342.079C586.118 342.673 586.833 345.987 584.807 349.812C584.71 349.992 584.807 350.221 585.012 350.26C585.723 350.388 586.923 350.905 585.244 352.97C583.531 355.08 582.168 355.5 581.62 355.584C581.474 355.605 581.332 355.521 581.284 355.382L580.16 352.158C580.101 351.992 579.914 351.908 579.754 351.978L578.634 352.45V352.443Z" fill="black"/>
<path d="M578.783 353.154C578.783 353.154 578.083 348.299 580.559 348.705C583.035 349.107 581.599 354.036 580.091 354.862L578.783 353.154Z" fill="#F2A39E"/>
<path d="M520.595 482.182C520.394 482.182 520.189 482.144 519.991 482.06C519.214 481.738 518.854 480.863 519.19 480.11L551.312 407.766C551.645 407.013 552.547 406.666 553.324 406.989C554.1 407.311 554.461 408.186 554.125 408.939L522.003 481.283C521.753 481.845 521.188 482.182 520.595 482.182Z" fill="#24252B"/>
<path d="M556.781 482.182C556.188 482.182 555.623 481.845 555.373 481.283L523.252 408.939C522.919 408.186 523.276 407.315 524.053 406.989C524.83 406.666 525.731 407.013 526.064 407.766L558.186 480.11C558.519 480.863 558.162 481.734 557.385 482.06C557.187 482.144 556.983 482.182 556.781 482.182Z" fill="#24252B"/>
<path d="M620.023 482.182C619.822 482.182 619.617 482.144 619.419 482.06C618.643 481.738 618.282 480.863 618.618 480.11L650.74 407.766C651.073 407.013 651.975 406.666 652.752 406.989C653.528 407.311 653.889 408.186 653.553 408.939L621.431 481.283C621.181 481.845 620.616 482.182 620.023 482.182Z" fill="#24252B"/>
<path d="M656.206 482.182C655.613 482.182 655.047 481.845 654.798 481.283L622.676 408.939C622.343 408.186 622.7 407.315 623.477 406.989C624.254 406.666 625.156 407.013 625.488 407.766L657.61 480.11C657.943 480.863 657.586 481.734 656.809 482.06C656.612 482.144 656.407 482.182 656.206 482.182Z" fill="#24252B"/>
<path d="M659.976 405.534C660.059 405.059 659.945 404.57 659.671 404.198C659.397 403.827 658.987 403.608 658.557 403.608H512.434C511.866 403.608 511.338 403.931 511.033 404.469C510.728 405.003 510.686 405.677 510.926 406.253L512.511 410.091C512.875 410.97 513.659 411.535 514.522 411.535H657.559C658.363 411.535 659.053 410.897 659.206 410.012L659.979 405.534H659.976Z" fill="#EDAA1E"/>
<path d="M584.967 403.952C584.939 403.952 584.911 403.952 584.884 403.952L548.437 403.914C547.535 403.914 546.807 403.181 546.807 402.279C546.807 401.377 547.542 400.63 548.441 400.648L584.887 400.686C585.789 400.686 586.517 401.418 586.517 402.321C586.517 403.195 585.831 403.907 584.967 403.948V403.952Z" fill="black"/>
<path d="M515.674 370.838H546.027C548.267 370.838 550.303 372.132 551.26 374.159L565.292 403.935H527.573C526.13 403.935 524.833 403.053 524.302 401.71L513.423 374.156C512.795 372.563 513.967 370.838 515.677 370.838H515.674Z" fill="black"/>
<path d="M537.058 386.105C537.717 388.15 537.232 390.135 535.973 390.541C534.717 390.947 533.163 389.618 532.505 387.57C531.846 385.526 532.331 383.541 533.59 383.135C534.846 382.728 536.399 384.058 537.058 386.105Z" fill="white"/>
<path d="M49.8301 441.55H214.383V414.805H49.8301C53.3537 414.805 53.3537 441.55 49.8301 441.55Z" fill="url(#paint4_linear_13_3595)"/>
<path d="M214.379 434.858V422.617C214.379 418.303 211.126 414.805 207.117 414.805H50.5238C47.3678 414.805 44.8118 412.729 44.8118 410.168C44.8118 409.39 45.5886 408.759 46.5458 408.759H217.691C221.617 408.759 227.846 413.77 227.846 419.952V437.045C227.846 442.872 221.798 447.599 218.097 447.599H47.4475C45.9909 447.599 44.8118 446.642 44.8118 445.458C44.8118 443.299 46.9655 441.55 49.6221 441.55H208.157C211.594 441.55 214.379 438.555 214.379 434.858Z" fill="#EA4722"/>
<path opacity="0.84" d="M209.815 420.622H55.5282C55.3479 420.622 55.1987 420.476 55.1987 420.292C55.1987 420.108 55.3444 419.962 55.5282 419.962H209.819C209.999 419.962 210.148 420.108 210.148 420.292C210.148 420.476 210.002 420.622 209.819 420.622H209.815Z" fill="white"/>
<path opacity="0.84" d="M209.815 424.589H55.5282C55.3479 424.589 55.1987 424.443 55.1987 424.259C55.1987 424.075 55.3444 423.929 55.5282 423.929H209.819C209.999 423.929 210.148 424.075 210.148 424.259C210.148 424.443 210.002 424.589 209.819 424.589H209.815Z" fill="white"/>
<path opacity="0.84" d="M209.815 428.559H55.5282C55.3479 428.559 55.1987 428.413 55.1987 428.229C55.1987 428.045 55.3444 427.9 55.5282 427.9H209.819C209.999 427.9 210.148 428.045 210.148 428.229C210.148 428.413 210.002 428.559 209.819 428.559H209.815Z" fill="white"/>
<path opacity="0.84" d="M209.815 432.53H55.5282C55.3479 432.53 55.1987 432.384 55.1987 432.2C55.1987 432.016 55.3444 431.87 55.5282 431.87H209.819C209.999 431.87 210.148 432.016 210.148 432.2C210.148 432.384 210.002 432.53 209.819 432.53H209.815Z" fill="white"/>
<path opacity="0.84" d="M209.815 436.5H55.5282C55.3479 436.5 55.1987 436.354 55.1987 436.17C55.1987 435.986 55.3444 435.841 55.5282 435.841H209.819C209.999 435.841 210.148 435.986 210.148 436.17C210.148 436.354 210.002 436.5 209.819 436.5H209.815Z" fill="white"/>
<path d="M212.194 447.311H7.41834C3.3213 447.311 0 450.635 0 454.735V484.576C0 488.677 3.3213 492 7.41834 492H212.194C216.291 492 219.613 488.677 219.613 484.576V454.735C219.613 450.635 216.291 447.311 212.194 447.311Z" fill="#32A981"/>
<path d="M48.1064 452.448H27.3288C25.9421 452.448 24.8179 453.573 24.8179 454.961V484.351C24.8179 485.739 25.9421 486.864 27.3288 486.864H48.1064C49.4932 486.864 50.6173 485.739 50.6173 484.351V454.961C50.6173 453.573 49.4932 452.448 48.1064 452.448Z" fill="#EDAA1E"/>
<path d="M62.0519 452.448H56.4578C55.3296 452.448 54.415 453.363 54.415 454.492V484.819C54.415 485.948 55.3296 486.864 56.4578 486.864H62.0519C63.18 486.864 64.0946 485.948 64.0946 484.819V454.492C64.0946 453.363 63.18 452.448 62.0519 452.448Z" fill="#EDAA1E"/>
<path d="M541.445 166.366H122.293C117.441 166.366 113.509 162.431 113.509 157.575V122.59C113.509 117.648 117.577 113.677 122.515 113.802L541.667 124.409C546.432 124.53 550.23 128.428 550.23 133.197V157.575C550.23 162.431 546.297 166.366 541.445 166.366Z" fill="#A5A5A5"/>
<path d="M168.062 68.5613L175.432 95.1367C176.431 98.7428 175.824 102.609 173.757 105.726C168.562 113.559 155.855 127.699 128.921 134.915C101.564 142.241 86.0757 134.703 79.4099 129.736C76.9961 127.939 75.2412 125.398 74.4123 122.503L66.3455 94.3593L168.062 68.5579V68.5613Z" fill="black"/>
<path d="M109.739 34.3572L186.36 55.8376C190.307 56.9447 191.424 62.005 188.309 64.6706C173.119 77.6719 138.601 107.951 125.529 125.537C124.132 127.418 121.631 128.102 119.467 127.203L41.9367 95.088C38.4304 93.6338 37.6605 89.0038 40.5148 86.498C55.5561 73.2814 93.8339 40.195 106.278 34.6071C107.367 34.1177 108.591 34.0344 109.739 34.3572Z" fill="#2B2B2B"/>
<path d="M111.397 73.9686C111.397 73.9686 70.5454 99.7561 67.4345 105.646C64.3201 111.536 70.587 138.319 70.587 138.319C64.1571 160.987 63.2034 185.598 74.0656 198.474C74.0656 198.474 87.4595 168.667 81.4735 156.103C75.4875 143.539 73.1847 138.389 73.1847 138.389C73.1847 138.389 67.9513 109.839 69.6056 105.757C69.6056 105.757 114.861 75.5963 111.393 73.9651L111.397 73.9686Z" fill="black"/>
<path d="M176.053 62.9492L136.839 101.662L127.034 111.338L124.582 113.757L123.358 114.962C122.977 115.336 122.543 115.659 122.089 115.94C120.261 117.065 117.934 117.332 115.891 116.614L89.7762 107.857C89.5716 107.788 89.3461 107.899 89.2768 108.107C89.2074 108.312 89.3184 108.534 89.523 108.603L115.572 117.558C117.868 118.384 120.535 118.109 122.633 116.839C123.157 116.52 123.653 116.155 124.093 115.729L125.335 114.528L127.804 112.126L137.682 102.522L177.187 64.1084C177.51 63.796 177.517 63.2824 177.204 62.9596C176.892 62.6368 176.379 62.6299 176.056 62.9422H176.053V62.9492Z" fill="black"/>
<path d="M73.58 152.091L73.6563 152.175L73.7464 152.282L73.9302 152.501L74.284 152.976C74.5164 153.296 74.721 153.65 74.9429 153.983L75.5256 155.055C75.7059 155.42 75.8655 155.798 76.0354 156.169C76.2157 156.537 76.351 156.926 76.4897 157.315C76.6285 157.703 76.7776 158.085 76.9059 158.477L77.2388 159.671C77.3464 160.07 77.4781 160.466 77.544 160.876L77.7868 162.097C77.8631 162.507 77.9637 162.909 78.0018 163.326C78.0989 164.152 78.2099 164.978 78.2966 165.808L78.418 168.313C78.4249 168.522 78.4423 168.73 78.4423 168.942L78.4284 169.57L78.4007 170.826C78.4145 172.506 78.1856 174.175 78.0504 175.848C78.0226 176.268 77.9533 176.685 77.8874 177.098L77.6897 178.344C77.5544 179.173 77.4365 180.01 77.2874 180.839C76.9163 182.484 76.5799 184.136 76.1776 185.775L74.8042 190.651V190.665C74.7591 190.814 74.8458 190.97 74.995 191.012C75.1441 191.054 75.2967 190.97 75.3418 190.825L76.8504 185.952C77.2978 184.31 77.6793 182.651 78.0989 180.999C78.2689 180.166 78.4111 179.323 78.5706 178.486L78.803 177.226C78.8827 176.806 78.9625 176.386 79.0007 175.963C79.1845 174.266 79.4584 172.575 79.4897 170.857L79.5521 169.573L79.5833 168.931C79.5868 168.716 79.5764 168.501 79.5729 168.289L79.5174 165.714C79.4515 164.857 79.3579 163.999 79.2781 163.142C79.2504 162.712 79.1602 162.288 79.0908 161.861L78.8689 160.584C78.8099 160.154 78.6851 159.737 78.5845 159.317L78.2654 158.054C78.144 157.637 77.9949 157.228 77.8596 156.811C77.7209 156.398 77.5891 155.982 77.4088 155.583C77.2354 155.18 77.0758 154.774 76.892 154.375L76.292 153.198C76.0562 152.82 75.8447 152.431 75.5915 152.06L75.1996 151.505L74.9811 151.23L74.8701 151.092L74.7349 150.939C74.4366 150.606 73.9233 150.578 73.5904 150.88C73.2574 151.182 73.2297 151.692 73.5314 152.025C73.5314 152.025 73.5383 152.032 73.5418 152.036L73.5834 152.081L73.58 152.091Z" fill="#2B2B2B"/>
<path d="M72.3315 162.642V164.239L72.3211 166.037L72.2726 169.639L72.1477 176.851L71.8564 191.279C71.8494 191.522 72.0437 191.723 72.2864 191.73C72.5257 191.737 72.7269 191.546 72.7373 191.31L73.3962 176.893L73.7049 169.681L73.8436 166.071L73.9026 164.263L73.9234 163.35L73.9338 162.892C73.9338 162.694 73.9199 162.462 73.8991 162.25C73.8575 161.816 73.4725 161.497 73.039 161.539C72.6298 161.577 72.3246 161.92 72.3246 162.323V162.642H72.3315Z" fill="#2B2B2B"/>
<path d="M395 176.765H266.218C259.223 176.765 253.552 182.439 253.552 189.44V297.536C253.552 304.536 259.223 310.211 266.218 310.211H395C401.995 310.211 407.665 304.536 407.665 297.536V189.44C407.665 182.439 401.995 176.765 395 176.765Z" fill="#A5A5A5"/>
<path d="M407.267 344.276L116.873 341.833C113.353 341.801 110.512 338.938 110.512 335.415V325.163C110.512 320.262 114.483 316.288 119.38 316.288H406.875C408.765 316.288 410.298 317.822 410.298 319.714V341.27C410.298 342.94 408.938 344.293 407.267 344.28V344.276Z" fill="#A5A5A5"/>
<path d="M232.66 172.954H122.446C115.855 172.954 110.512 178.301 110.512 184.897V295.193C110.512 301.789 115.855 307.136 122.446 307.136H232.66C239.251 307.136 244.594 301.789 244.594 295.193V184.897C244.594 178.301 239.251 172.954 232.66 172.954Z" fill="#A5A5A5"/>
<path d="M213.564 240.685H125.98C123.188 240.685 120.923 239.012 120.923 236.947V174.422C120.923 172.36 123.178 170.688 125.966 170.684L214.251 170.511C217.06 170.504 219.335 172.194 219.321 174.269L218.621 236.968C218.607 239.026 216.346 240.689 213.564 240.689V240.685Z" fill="#EA4722"/>
<path d="M209.271 175.293L130.953 175.651C128.123 175.665 125.841 177.369 125.855 179.462L126.403 232.047C126.417 234.108 128.654 235.785 131.442 235.823L207.537 236.85C210.377 236.888 212.721 235.212 212.76 233.109L214.435 179.139C214.476 177.015 212.146 175.279 209.271 175.293Z" fill="#EA4722"/>
<path d="M206.087 180.17V180.569C206.087 181.197 205.4 181.704 204.551 181.704H144.209C143.362 181.704 142.672 181.197 142.672 180.569V180.17C142.672 179.541 143.359 179.035 144.209 179.035H204.551C205.397 179.035 206.087 179.541 206.087 180.17Z" fill="white"/>
<path d="M199.355 185.192C199.31 185.785 198.655 186.254 197.85 186.264L145.079 186.976C144.219 186.986 143.515 186.476 143.515 185.841V185.747C143.515 185.126 144.187 184.622 145.027 184.612L197.798 183.994C198.689 183.984 199.404 184.532 199.355 185.192Z" fill="white"/>
<path d="M204.741 234.066C204.724 234.066 204.707 234.066 204.689 234.066L133.312 233.435C131.942 233.424 130.686 232.928 129.868 232.081C129.282 231.474 128.969 230.714 128.987 229.94L130.825 192.799C130.873 190.953 132.826 189.464 135.195 189.464C135.222 189.464 135.25 189.464 135.278 189.464L206.531 190.488C207.89 190.509 209.135 191.002 209.947 191.845C210.53 192.452 210.842 193.209 210.821 193.976C210.821 193.983 210.821 193.986 210.821 193.993L209.108 230.724C209.063 232.598 207.148 234.066 204.738 234.066H204.741ZM135.198 190.918C133.638 190.918 132.306 191.796 132.281 192.852L130.443 229.992C130.433 230.46 130.693 230.835 130.915 231.064C131.456 231.627 132.358 231.963 133.325 231.974L204.703 232.605C204.703 232.605 204.727 232.605 204.741 232.605C206.302 232.605 207.634 231.724 207.661 230.669L209.375 193.927C209.385 193.449 209.125 193.077 208.906 192.848C208.372 192.293 207.478 191.949 206.517 191.935L135.264 190.911C135.243 190.911 135.222 190.911 135.205 190.911L135.198 190.918Z" fill="white"/>
<path d="M209.174 198.079H131.439C131.036 198.079 130.71 197.752 130.71 197.35C130.71 196.947 131.036 196.621 131.439 196.621H209.174C209.576 196.621 209.902 196.947 209.902 197.35C209.902 197.752 209.576 198.079 209.174 198.079Z" fill="white"/>
<path d="M149.924 238.766C149.924 238.766 167.913 261.811 147.389 285.253L139.672 284.534C139.672 284.534 154.526 260.67 147.909 241.643L136.981 242.441L130.936 238.499L149.924 238.762V238.766Z" fill="#FFC0B8"/>
<path d="M140.071 351.603C140.071 351.603 125.498 383.391 117.851 396.556C117.851 396.556 116.332 404.84 117.851 407.447L119.144 408.023L113.103 407.842C113.103 407.842 112.565 396.698 112.985 396.077C113.405 395.455 114.24 395.494 114.24 395.494C114.24 395.494 116.831 374.957 124.333 370.577L131.602 345.522L140.068 351.603H140.071Z" fill="#FFC0B8"/>
<path d="M121.725 409.585C121.735 409.73 117.008 409.664 114.441 409.616C113.495 409.599 112.687 408.932 112.482 408.006L110.543 397.812C110.359 396.844 110.973 395.903 111.934 395.684L113.016 395.438C113.016 395.438 114.559 397.559 114.074 399.551C113.588 401.546 113.155 406.714 114.382 407.315C115.61 407.919 119.144 408.023 119.144 408.023C119.144 408.023 121.645 408.269 121.725 409.585Z" fill="#24252B"/>
<path d="M153.885 409.769C154.363 410.043 154.166 410.772 153.614 410.765C149.317 410.723 139.693 410.584 138.836 410.23C137.733 409.772 139.239 405.798 140.824 404.455L149.581 407.315L153.885 409.769Z" fill="#24252B"/>
<path d="M156.603 349.576C156.603 349.576 147.184 395.171 144.52 404.063L150.822 408.019C150.822 408.019 147.663 407.481 145.322 407.311C142.981 407.141 140.827 404.451 140.827 404.451L141.583 403.247C141.583 403.247 143.945 357.902 143.369 352.751L156.603 349.572V349.576Z" fill="#FFC0B8"/>
<path d="M179.982 243.229C179.982 243.229 181.283 266.948 159.704 279.068L164.899 290.924C164.899 290.924 184.435 279.099 183.714 246.849C183.693 245.922 184.026 245.024 184.63 244.322L188.781 239.502C190.362 237.666 190.955 235.174 190.366 232.82L189.818 230.634C189.634 229.902 188.802 229.551 188.15 229.929L187.716 230.183C186.332 230.984 185.24 232.203 184.588 233.664L182.549 238.224C181.786 239.929 180.031 240.963 178.172 240.803L176.913 240.696L179.982 243.233V243.229Z" fill="#FFC0B8"/>
<path d="M160.453 277.287C156.843 278.29 144.614 281.508 136.977 281.376L141.666 307.847L141.292 312.165L156.576 312.095C156.576 312.095 160.88 302.096 164.272 297.112C165.253 295.672 164.521 293.954 163.966 292.305L164.729 291.795C165.506 291.278 165.843 290.306 165.555 289.418L161.833 278.023C161.639 277.447 161.036 277.124 160.453 277.287Z" fill="#32A981"/>
<path d="M157.804 309.839L157.502 312.456C157.502 312.456 161.82 325.402 155.341 355.636C155.341 355.636 141.309 359.613 129.778 350.096C129.778 350.096 133.031 321.56 133.919 320.231C138.344 313.609 141.292 312.172 141.292 312.172L141.424 309.315C141.424 309.315 153.76 311.547 157.8 309.846L157.804 309.839Z" fill="black"/>
<path d="M151.818 279.422C151.87 279.353 148.627 269.621 148.627 269.621L143.98 270.044L142.166 281.084C142.166 281.084 149.449 282.556 151.818 279.425V279.422Z" fill="#F2A39E"/>
<path d="M145.093 254.273C145.401 254.467 155.022 258.445 152.955 268.441C152.834 269.031 152.438 269.53 151.887 269.777C150.475 270.409 147.437 271.484 143.799 271.117C138.76 270.603 135.458 261.801 135.597 259.24C135.739 256.678 142.016 252.357 145.089 254.27L145.093 254.273Z" fill="#F2A39E"/>
<path d="M142.166 250.386C144.091 250.639 146.06 252.607 145.78 254.624C145.509 256.564 143.432 256.984 142.499 258.386C140.342 261.635 142.304 267.184 144.309 270.082C150.34 278.801 160.231 289.386 153.448 300.746C149.043 308.121 139.225 312.304 130.87 311.37C126.427 310.874 122.123 306.247 120.029 302.537C117.084 297.321 116.543 290.768 118.125 285.027C119.654 279.471 124.593 275.087 127.839 270.461C129.011 268.791 130.149 266.931 130.121 264.89C130.104 263.616 129.628 262.391 129.483 261.124C128.751 254.658 136.433 249.633 142.162 250.386H142.166Z" fill="#24252B"/>
<path d="M127.95 303.11L128.096 302.874C125.009 300.951 123.091 297.102 123.088 292.829C123.088 289.435 124.145 285.881 126.427 281.647C127.277 280.068 128.227 278.509 129.146 277.003C130.253 275.188 131.394 273.314 132.375 271.384C133.256 269.648 134.092 267.604 133.599 265.602C133.357 264.602 132.795 263.668 132.25 262.763C131.401 261.346 130.596 260.01 131.019 258.546L130.752 258.469C130.298 260.048 131.168 261.503 132.011 262.905C132.545 263.793 133.093 264.71 133.329 265.668C133.797 267.583 132.986 269.565 132.125 271.255C131.151 273.175 130.01 275.045 128.907 276.857C127.988 278.367 127.034 279.929 126.181 281.515C123.878 285.794 122.807 289.39 122.81 292.829C122.81 297.199 124.783 301.135 127.95 303.11Z" fill="white"/>
<path d="M130.086 302.509L130.311 302.35C127.891 298.928 127.003 294.148 127.88 289.23C128.751 284.357 131.144 279.918 133.131 276.597L132.892 276.455C130.891 279.797 128.484 284.264 127.606 289.182C126.719 294.169 127.62 299.028 130.086 302.509Z" fill="white"/>
<path d="M275.547 213.884L382.41 212.926C384.505 212.909 386.211 214.609 386.201 216.706L385.733 298.771C385.722 300.881 383.978 302.568 381.869 302.506C362.548 301.93 276.764 299.385 272.98 299.545C269.238 299.701 271.271 233.778 271.829 217.514C271.898 215.505 273.539 213.905 275.547 213.888V213.884Z" fill="#EDAA1E"/>
<path opacity="0.84" d="M381.98 299.344H381.959C366.606 298.886 289.291 296.588 275.072 296.387H274.936L274.912 296.251C273.573 288.692 273.601 257.827 274.981 217.618C274.992 217.299 275.252 217.049 275.571 217.046L382.435 216.088C382.646 216.088 382.781 216.185 382.861 216.265C382.976 216.379 383.035 216.525 383.035 216.688L382.566 298.754C382.566 299.08 382.299 299.347 381.977 299.347L381.98 299.344ZM275.214 296.06C289.79 296.272 366.665 298.559 381.97 299.014H381.987C382.123 299.014 382.24 298.896 382.24 298.747L382.709 216.681C382.709 216.605 382.684 216.546 382.632 216.491C382.58 216.438 382.514 216.411 382.438 216.411L275.574 217.369C275.432 217.369 275.314 217.483 275.307 217.625C273.934 257.58 273.899 288.293 275.21 296.057L275.214 296.06Z" fill="white"/>
<path opacity="0.84" d="M288.441 288.862H358.494C360.676 288.862 362.032 286.492 360.925 284.61L333.194 237.429C332.036 235.461 329.147 235.611 328.2 237.69L314.81 267.052C314.015 268.794 311.751 269.256 310.339 267.961L304.922 262.991C303.663 261.836 301.676 262.058 300.701 263.46L286.132 284.43C284.831 286.301 286.17 288.862 288.445 288.862H288.441Z" fill="white"/>
<path opacity="0.84" d="M361.398 245.313C366.537 243.183 368.978 237.287 366.849 232.145C364.72 227.002 358.829 224.56 353.69 226.69C348.551 228.82 346.111 234.716 348.239 239.859C350.368 245.001 356.26 247.444 361.398 245.313Z" fill="white"/>
<path d="M449.238 312.217C446.779 303.117 439.18 295.637 430.715 293.749C429.157 293.402 428.259 291.816 428.623 290.264C428.623 290.254 428.627 290.244 428.63 290.233C429.858 284.94 426.466 280.723 421.354 279.536C416.242 278.349 411.342 280.644 410.114 285.936C409.285 289.508 410.346 293.527 412.694 296.13C413.662 297.202 413.738 298.802 412.802 299.903C407.641 305.952 405.543 315.184 407.776 323.441C411.064 335.603 422.492 341.038 433.94 337.938C445.388 334.839 452.526 324.385 449.238 312.22V312.217Z" fill="#24252B"/>
<path d="M445.68 323.823L445.458 323.667C447.507 320.755 447.771 316.552 446.144 312.699C444.854 309.638 442.541 306.841 438.872 303.89C437.505 302.79 436.052 301.749 434.651 300.743C432.962 299.528 431.218 298.275 429.598 296.907C428.141 295.679 426.612 294.155 426.289 292.163C426.13 291.17 426.279 290.112 426.425 289.088C426.65 287.488 426.865 285.975 425.929 284.815L426.14 284.645C427.153 285.895 426.921 287.54 426.695 289.126C426.553 290.129 426.407 291.167 426.56 292.118C426.869 294.023 428.356 295.502 429.775 296.696C431.384 298.053 433.125 299.306 434.811 300.517C436.215 301.527 437.668 302.572 439.042 303.675C442.749 306.653 445.087 309.485 446.394 312.588C448.055 316.527 447.781 320.831 445.68 323.816V323.823Z" fill="white"/>
<path d="M440.235 325.579L439.978 325.485C441.372 321.626 440.963 316.881 438.858 312.47C436.77 308.097 433.354 304.533 430.614 301.916L430.801 301.718C433.558 304.352 436.995 307.937 439.101 312.352C441.237 316.829 441.65 321.647 440.231 325.576L440.235 325.579Z" fill="white"/>
<path d="M385.331 275.649L385.237 272.505L388.521 265.98C389.121 264.786 389.128 263.38 388.535 262.183L384.817 254.669C384.817 254.669 382.671 270.981 382.105 272.335C381.54 273.692 383.638 276.125 383.638 276.125L385.338 275.646L385.331 275.649Z" fill="#FFC0B8"/>
<path d="M385.237 272.505C385.237 272.505 395.222 299.75 412.24 308.264C412.24 308.264 406.576 317.51 403.622 318.072C403.622 318.072 385.445 294.79 383.59 275.715L385.237 272.505Z" fill="#FFC0B8"/>
<path d="M453.667 436.386L454.17 440.516C454.693 442.48 457.218 447.426 460.461 447.103C462.455 446.905 462.694 441.075 462.417 440.197C461.911 438.6 460.985 436.209 459.646 434.8H455.064C454.218 434.8 453.563 435.542 453.663 436.382L453.667 436.386Z" fill="#24252B"/>
<path d="M417.796 387.986L417.022 392.536C417.022 392.536 419.61 418.779 420.071 429.274C420.144 430.919 419.717 432.547 418.854 433.949L414.352 441.265L425.793 434.511L426.022 433.113L424.15 430.537L426.602 401.14C426.747 399.412 426.39 397.68 425.575 396.153L423.21 391.703L417.796 387.99V387.986Z" fill="#FFC0B8"/>
<path d="M413.603 442.321H417.255C417.938 442.321 418.583 442.008 418.999 441.463C420.137 439.985 422.495 437.097 423.622 437.021C425.141 436.92 424.947 442.321 424.947 442.321H425.797L426.875 435.612C427.146 433.925 426.307 432.252 424.791 431.461C424.791 431.461 424.444 434.029 422.565 435.164C420.685 436.299 414.91 440.367 414.91 440.367C414.91 440.367 414.203 440.266 413.426 440.405C412.275 440.613 412.434 442.321 413.606 442.321H413.603Z" fill="#24252B"/>
<path d="M433.465 390.149C433.465 390.149 448.631 418.938 451.041 425.508C453.452 432.082 454.298 437.566 454.329 438.083C454.381 438.895 455.387 439.672 458.168 439.672C459.604 439.672 460.305 439.096 460.648 438.541C460.943 438.065 460.957 437.472 460.711 436.969C459.833 435.192 457.048 429.514 456.018 426.938C454.787 423.863 452.141 409.928 450.688 405.087C449.234 400.241 447.594 394.987 441.272 390.145C441.272 390.145 436.93 385.89 433.468 390.145L433.465 390.149Z" fill="#FFC0B8"/>
<path d="M423.886 342.974C421.666 333.555 423.9 326.461 426.248 322.088C428.12 318.599 426.803 314.282 423.293 312.456C417.806 309.6 412.24 308.267 412.24 308.267C412.24 308.267 401.367 316.222 402.657 322.445C403.413 326.093 410.298 344.3 410.298 344.3C410.298 344.3 416.665 347.316 423.886 342.974Z" fill="#EA4722"/>
<path d="M432.56 351.19C430.968 346.39 423.886 342.978 423.886 342.978C416.665 347.32 410.298 344.304 410.298 344.304C410.298 344.304 408.869 349.767 409.854 354.841C410.839 359.919 417.023 392.54 417.023 392.54C426.765 394.515 441.75 390.551 441.75 390.551C435.546 379.525 434.152 355.99 432.56 351.19Z" fill="#EA4722"/>
<path d="M419.346 297.303L422.526 311.599C422.832 312.859 421.684 312.651 420.411 312.411C418.326 312.019 415.642 311.207 414.744 309.586C414.654 309.42 414.609 309.236 414.581 309.048L413.214 299.136C413.107 298.348 413.53 297.584 414.255 297.265L416.891 296.095C417.907 295.644 419.082 296.224 419.343 297.303H419.346Z" fill="#F2A39E"/>
<path d="M379.591 287.859C379.591 287.859 387.963 316.961 421.718 314.226C423.879 314.053 425.776 315.653 425.943 317.815L426.033 318.985C426.275 322.115 423.723 324.757 420.588 324.597C409.361 324.028 385.251 319.617 376.986 292.92L379.591 287.863V287.859Z" fill="#FFC0B8"/>
<path d="M376.986 292.92C376.986 292.92 375.377 288.182 374.975 285.222C374.569 282.261 376.057 275.615 377.337 273.747C378.616 271.88 378.828 276.458 379.404 278.613C379.979 280.765 379.005 283.837 379.005 283.837L379.591 287.863L376.986 292.92Z" fill="#FFC0B8"/>
<path d="M412.823 285.51C412.823 285.51 404.78 297.234 409.781 300.5C414.782 303.766 420.508 295.436 420.508 295.436C420.508 295.436 422.305 289.067 420.262 286.957C418.216 284.847 412.823 285.51 412.823 285.51Z" fill="#F2A39E"/>
<path d="M416.197 282.664C416.197 282.664 412.698 283.563 412.237 285.163C411.775 286.763 417.279 288.137 418.816 288.179L420.172 294.575C420.172 294.575 423.713 288.467 422.201 285.003C420.688 281.543 416.201 282.66 416.201 282.66L416.197 282.664Z" fill="#24252B"/>
<path d="M418.892 294.613C418.892 294.613 422.037 290.827 423.362 293.232C424.687 295.637 420.55 297.539 419.083 296.373L418.895 294.613H418.892Z" fill="#F2A39E"/>
<path d="M353.948 97.7571C353.663 97.7571 353.386 97.6356 353.188 97.4135L350.545 94.4252C348.673 94.6959 346.786 94.6959 344.92 94.4252L342.277 97.41C341.989 97.7328 341.532 97.8404 341.133 97.6738L336.319 95.6781C335.92 95.5115 335.671 95.1124 335.695 94.6785L335.938 90.6976C334.429 89.5696 333.094 88.2334 331.963 86.7167L327.982 86.9562C327.552 86.9839 327.149 86.7306 326.986 86.3314L324.992 81.514C324.826 81.1149 324.933 80.6533 325.256 80.3687L328.242 77.724C327.971 75.8498 327.971 73.9617 328.242 72.0945L325.259 69.4498C324.937 69.1617 324.829 68.7036 324.996 68.3045L326.99 63.4871C327.156 63.0879 327.559 62.8381 327.989 62.8624L331.967 63.1053C333.094 61.5955 334.429 60.2593 335.945 59.1279L335.705 55.1435C335.681 54.7131 335.931 54.3105 336.329 54.1439L341.143 52.1482C341.542 51.9816 342.003 52.0892 342.288 52.412L344.93 55.4003C346.803 55.1296 348.69 55.1296 350.556 55.4003L353.198 52.4155C353.486 52.0927 353.944 51.9851 354.343 52.1517L359.157 54.1474C359.556 54.3139 359.805 54.7131 359.781 55.1469L359.538 59.1279C361.047 60.2558 362.382 61.5921 363.513 63.1088L367.494 62.8658C367.928 62.8415 368.326 63.0914 368.493 63.4906L370.487 68.3079C370.654 68.7071 370.546 69.1687 370.224 69.4533L367.238 72.098C367.508 73.9722 367.508 75.8602 367.238 77.7275L370.22 80.3722C370.543 80.6568 370.65 81.1184 370.484 81.5175L368.489 86.3349C368.323 86.734 367.924 86.9839 367.491 86.9596L363.513 86.7167C362.386 88.2264 361.05 89.5627 359.535 90.6941L359.774 94.6785C359.802 95.1089 359.549 95.5115 359.15 95.6746L354.336 97.6703C354.211 97.7224 354.079 97.7466 353.948 97.7466V97.7571ZM351.052 93.0195L354.031 96.3861L358.453 94.5536L358.182 90.0659L358.477 89.8542C360.097 88.6915 361.505 87.2824 362.666 85.6685L362.878 85.3735L367.362 85.6477L369.194 81.2225L365.833 78.2411L365.892 77.8837C366.214 75.9227 366.214 73.9305 365.892 71.9591L365.833 71.6016L369.197 68.6203L367.366 64.1951L362.882 64.4658L362.67 64.1708C361.508 62.55 360.1 61.1409 358.487 59.9817L358.193 59.7699L358.467 55.2823L354.045 53.4497L351.066 56.8129L350.708 56.7539C348.749 56.4311 346.758 56.4311 344.788 56.7539L344.431 56.8129L341.452 53.4463L337.03 55.2788L337.301 59.7665L337.006 59.9782C335.386 61.1409 333.978 62.55 332.816 64.1639L332.605 64.4589L328.12 64.1847L326.289 68.6099L329.65 71.5912L329.591 71.9487C329.268 73.9097 329.268 75.9019 329.591 77.8733L329.65 78.2307L326.286 81.2121L328.117 85.6373L332.601 85.3666L332.813 85.6616C333.975 87.2824 335.383 88.6915 336.995 89.8542L337.29 90.0659L337.016 94.5536L341.438 96.3861L344.417 93.023L344.774 93.082C346.734 93.4048 348.728 93.4048 350.694 93.082L351.052 93.023V93.0195ZM345.458 87.8551C345.419 87.8551 345.378 87.8516 345.34 87.8447C344.421 87.6781 343.509 87.4073 342.638 87.0464C339.375 85.6928 336.829 83.1453 335.476 79.8793C334.124 76.6099 334.124 73.0108 335.476 69.7448C336.829 66.4789 339.375 63.9313 342.638 62.5778C345.905 61.2242 349.501 61.2242 352.765 62.5778C356.028 63.9313 358.574 66.4789 359.927 69.7448C361.279 73.0142 361.279 76.6134 359.927 79.8793C359.008 82.0971 357.509 84.0199 355.592 85.4429C355.3 85.6581 354.891 85.5991 354.672 85.3076C354.457 85.016 354.516 84.6065 354.808 84.3878C356.535 83.1071 357.884 81.3752 358.709 79.3761C359.927 76.4329 359.93 73.1912 358.709 70.2446C357.492 67.3014 355.2 65.0073 352.259 63.789C349.318 62.5708 346.078 62.5673 343.134 63.789C340.193 65.0073 337.901 67.3014 336.683 70.2446C335.466 73.1878 335.462 76.4294 336.683 79.3761C337.901 82.3193 340.193 84.6134 343.134 85.8316C343.921 86.1579 344.74 86.4008 345.569 86.5501C345.926 86.616 346.162 86.9562 346.096 87.3136C346.037 87.6295 345.763 87.8516 345.451 87.8516L345.458 87.8551Z" fill="#EA4722"/>
<path d="M347.729 80.2056C346.633 80.2056 345.527 79.8655 344.58 79.161C342.243 77.4186 341.757 74.1006 343.498 71.7614C344.341 70.6299 345.576 69.8906 346.97 69.6859C348.367 69.4811 349.758 69.8351 350.892 70.6785C352.023 71.5219 352.762 72.7575 352.963 74.1527C353.167 75.5514 352.817 76.9432 351.971 78.0781C350.934 79.4699 349.342 80.2056 347.726 80.2056H347.729ZM345.364 78.1093C347.122 79.4178 349.616 79.0534 350.923 77.2937C351.558 76.4434 351.822 75.3952 351.669 74.3436C351.517 73.292 350.962 72.3653 350.112 71.7301C349.262 71.095 348.215 70.8312 347.164 70.9839C346.113 71.1366 345.187 71.6919 344.552 72.5423C343.245 74.2985 343.609 76.7939 345.368 78.1059L345.364 78.1093Z" fill="#EA4722"/>
</g>
<defs>
<linearGradient id="paint0_linear_13_3595" x1="499.762" y1="-3.38031" x2="494.899" y2="31.326" gradientUnits="userSpaceOnUse">
<stop stop-color="#FF928E"/>
<stop offset="1" stop-color="#FEB3B1"/>
</linearGradient>
<linearGradient id="paint1_linear_13_3595" x1="596.891" y1="471.787" x2="605.376" y2="418.437" gradientUnits="userSpaceOnUse">
<stop stop-color="#4042E2"/>
<stop offset="1" stop-color="#4F52FF"/>
</linearGradient>
<linearGradient id="paint2_linear_13_3595" x1="600.196" y1="472.169" x2="608.931" y2="417.267" gradientUnits="userSpaceOnUse">
<stop stop-color="#4042E2"/>
<stop offset="1" stop-color="#4F52FF"/>
</linearGradient>
<linearGradient id="paint3_linear_13_3595" x1="599.845" y1="406.551" x2="601.551" y2="450.248" gradientUnits="userSpaceOnUse">
<stop stop-color="#4042E2"/>
<stop offset="1" stop-color="#4F52FF"/>
</linearGradient>
<linearGradient id="paint4_linear_13_3595" x1="157.828" y1="357.382" x2="128.661" y2="437.538" gradientUnits="userSpaceOnUse">
<stop stop-color="#FF928E"/>
<stop offset="1" stop-color="#FEB3B1"/>
</linearGradient>
<clipPath id="clip0_13_3595">
<rect width="660" height="492" fill="white"/>
</clipPath>
</defs>
</svg>
