<svg width="616" height="545" viewBox="0 0 616 545" fill="none" xmlns="http://www.w3.org/2000/svg">
<g clip-path="url(#clip0_13_4866)">
<path d="M308 545C477.775 545 615.405 533.211 615.405 518.669C615.405 504.127 477.775 492.339 308 492.339C138.225 492.339 0.595703 504.127 0.595703 518.669C0.595703 533.211 138.225 545 308 545Z" fill="#E8E8E8"/>
<path d="M480.307 148.041L393.691 148.298C393.53 148.299 393.399 148.43 393.4 148.591L393.415 153.799C393.416 153.96 393.547 154.09 393.708 154.089L480.325 153.833C480.486 153.832 480.616 153.701 480.616 153.54L480.6 148.332C480.6 148.171 480.469 148.041 480.307 148.041Z" fill="white"/>
<path d="M50.1833 45.3H591.25C595.19 45.3 598.383 48.5002 598.383 52.4297V411.442C598.383 415.38 595.182 418.571 591.25 418.571H50.1833C46.2434 418.571 43.0503 415.371 43.0503 411.442V52.4297C43.0503 48.4916 46.252 45.3 50.1833 45.3Z" fill="#24252B"/>
<path d="M572.041 45.3H26.3296C23.6701 45.3 21.5142 47.455 21.5142 50.1132V413.767C21.5142 416.425 23.6701 418.58 26.3296 418.58H572.041C574.7 418.58 576.856 416.425 576.856 413.767V50.1132C576.856 47.455 574.7 45.3 572.041 45.3Z" fill="#24252B"/>
<path d="M53.4453 64.8014C53.4453 68.7222 50.2694 71.8967 46.3467 71.8967C42.424 71.8967 39.248 68.7222 39.248 64.8014C39.248 60.8805 42.424 57.7061 46.3467 57.7061C50.2694 57.7061 53.4453 60.8805 53.4453 64.8014Z" fill="white"/>
<path d="M77.6255 64.8014C77.6255 68.7222 74.4496 71.8967 70.5269 71.8967C66.6042 71.8967 63.4282 68.7222 63.4282 64.8014C63.4282 60.8805 66.6042 57.7061 70.5269 57.7061C74.4496 57.7061 77.6255 60.8805 77.6255 64.8014Z" fill="white"/>
<path d="M101.814 64.8014C101.814 68.7222 98.638 71.8967 94.7153 71.8967C90.7926 71.8967 87.6167 68.7222 87.6167 64.8014C87.6167 60.8805 90.7926 57.7061 94.7153 57.7061C98.638 57.7061 101.814 60.8805 101.814 64.8014Z" fill="white"/>
<path d="M564.092 81.4028H34.2781C32.5715 81.4028 31.188 82.7857 31.188 84.4915V408.988C31.188 410.694 32.5715 412.077 34.2781 412.077H564.092C565.799 412.077 567.182 410.694 567.182 408.988V84.4915C567.182 82.7857 565.799 81.4028 564.092 81.4028Z" fill="#A5A5A5"/>
<path d="M547.286 100.921H47.3939C46.8155 100.921 46.3467 101.39 46.3467 101.968V230.893C46.3467 231.471 46.8155 231.94 47.3939 231.94H547.286C547.864 231.94 548.333 231.471 548.333 230.893V101.968C548.333 101.39 547.864 100.921 547.286 100.921Z" fill="white"/>
<path d="M547.286 257.387H47.3939C46.8155 257.387 46.3467 257.856 46.3467 258.434V387.359C46.3467 387.937 46.8155 388.406 47.3939 388.406H547.286C547.864 388.406 548.333 387.937 548.333 387.359V258.434C548.333 257.856 547.864 257.387 547.286 257.387Z" fill="white"/>
<path d="M121.47 199.878C117.53 199.878 113.805 196.549 110.38 189.952C100.312 170.57 92.5606 170.364 92.4833 170.364C91.6593 170.364 90.9554 169.704 90.9383 168.88C90.9125 168.048 91.5391 167.362 92.3631 167.31C93.3159 167.259 102.131 167.422 113.101 188.544C115.196 192.577 118.432 197.278 122.037 196.789C129.187 195.82 136.38 176.739 140.036 159.425C142.732 146.668 147.041 139.607 152.165 139.538C152.191 139.538 152.217 139.538 152.242 139.538C157.882 139.538 162.74 147.86 166.689 164.273C170.139 178.627 178.062 188.879 186.86 190.389C192.354 191.333 197.564 188.484 201.538 182.376C206.431 174.852 214.019 164.693 223.392 163.381C228.164 162.703 232.911 164.384 237.477 168.365C240.602 171.085 243.331 174.208 245.967 177.228C251.589 183.671 256.447 189.239 263.563 189.591C271.82 189.994 277.331 176.773 283.151 162.771C290.653 144.72 299.151 124.266 316.747 124.266C331.974 124.266 340.429 145.518 348.609 166.075L349.124 167.379C349.433 168.159 349.056 169.052 348.266 169.361C347.485 169.669 346.592 169.292 346.283 168.503L345.768 167.199C338.326 148.504 329.897 127.312 316.747 127.321C301.185 127.321 293.108 146.779 285.975 163.947C279.726 178.97 273.846 193.186 263.409 192.646C254.997 192.225 249.486 185.919 243.658 179.236C241.091 176.293 238.43 173.247 235.46 170.665C231.529 167.25 227.718 165.852 223.804 166.401C215.658 167.542 208.645 177.014 204.087 184.032C199.409 191.23 193.1 194.559 186.336 193.392C176.328 191.676 167.444 180.523 163.71 164.976C158.723 144.248 153.693 142.584 152.225 142.584H152.199C149.659 142.618 145.727 147.217 143.024 160.052C141.685 166.409 134.38 198.188 122.449 199.809C122.122 199.852 121.805 199.878 121.487 199.878H121.47Z" fill="#FFAE1E"/>
<path d="M521.861 120.045H449.244C448.973 120.045 448.754 120.264 448.754 120.534V127.269C448.754 127.539 448.973 127.758 449.244 127.758H521.861C522.131 127.758 522.35 127.539 522.35 127.269V120.534C522.35 120.264 522.131 120.045 521.861 120.045Z" fill="#32A981"/>
<path d="M521.861 141.477H449.244C448.973 141.477 448.754 141.696 448.754 141.966V148.701C448.754 148.971 448.973 149.19 449.244 149.19H521.861C522.131 149.19 522.35 148.971 522.35 148.701V141.966C522.35 141.696 522.131 141.477 521.861 141.477Z" fill="#32A981"/>
<path d="M521.861 162.909H449.244C448.973 162.909 448.754 163.128 448.754 163.398V170.133C448.754 170.403 448.973 170.622 449.244 170.622H521.861C522.131 170.622 522.35 170.403 522.35 170.133V163.398C522.35 163.128 522.131 162.909 521.861 162.909Z" fill="#32A981"/>
<path d="M490.145 279.54H417.527C417.257 279.54 417.038 279.759 417.038 280.029V286.764C417.038 287.034 417.257 287.253 417.527 287.253H490.145C490.415 287.253 490.634 287.034 490.634 286.764V280.029C490.634 279.759 490.415 279.54 490.145 279.54Z" fill="#EA4722"/>
<path d="M152.071 221.284C151.65 221.284 151.307 220.941 151.307 220.521V131.447C151.307 131.027 151.65 130.684 152.071 130.684C152.491 130.684 152.835 131.027 152.835 131.447V220.521C152.835 220.941 152.491 221.284 152.071 221.284Z" fill="#EAEAEA"/>
<path d="M224.971 221.284C224.551 221.284 224.208 220.941 224.208 220.521V131.447C224.208 131.027 224.551 130.684 224.971 130.684C225.392 130.684 225.735 131.027 225.735 131.447V220.521C225.735 220.941 225.392 221.284 224.971 221.284Z" fill="#EAEAEA"/>
<path d="M316.301 221.893C315.88 221.893 315.537 221.55 315.537 221.13V114.726C315.537 114.306 315.88 113.962 316.301 113.962C316.721 113.962 317.065 114.306 317.065 114.726V221.13C317.065 221.55 316.721 221.893 316.301 221.893Z" fill="#EAEAEA"/>
<path d="M160.173 217.432H143.959C143.746 217.432 143.573 217.605 143.573 217.818V223.215C143.573 223.428 143.746 223.601 143.959 223.601H160.173C160.387 223.601 160.56 223.428 160.56 223.215V217.818C160.56 217.605 160.387 217.432 160.173 217.432Z" fill="#EAEAEA"/>
<path d="M233.083 217.432H216.868C216.655 217.432 216.482 217.605 216.482 217.818V223.215C216.482 223.428 216.655 223.601 216.868 223.601H233.083C233.296 223.601 233.469 223.428 233.469 223.215V217.818C233.469 217.605 233.296 217.432 233.083 217.432Z" fill="#EAEAEA"/>
<path d="M324.412 217.432H308.198C307.984 217.432 307.812 217.605 307.812 217.818V223.215C307.812 223.428 307.984 223.601 308.198 223.601H324.412C324.626 223.601 324.798 223.428 324.798 223.215V217.818C324.798 217.605 324.626 217.432 324.412 217.432Z" fill="#EAEAEA"/>
<path d="M138.062 266.773H89.067C88.9011 266.773 88.7666 266.907 88.7666 267.073V271.269C88.7666 271.434 88.9011 271.569 89.067 271.569H138.062C138.228 271.569 138.363 271.434 138.363 271.269V267.073C138.363 266.907 138.228 266.773 138.062 266.773Z" fill="#32A981"/>
<path d="M147.135 277.677H89.067C88.9011 277.677 88.7666 277.812 88.7666 277.978V282.173C88.7666 282.339 88.9011 282.473 89.067 282.473H147.135C147.301 282.473 147.436 282.339 147.436 282.173V277.978C147.436 277.812 147.301 277.677 147.135 277.677Z" fill="#32A981"/>
<path d="M101.754 302.31H92.7666C92.4063 302.31 92.1143 302.602 92.1143 302.962V378.299C92.1143 378.659 92.4063 378.951 92.7666 378.951H101.754C102.114 378.951 102.406 378.659 102.406 378.299V302.962C102.406 302.602 102.114 302.31 101.754 302.31Z" fill="#EA4722"/>
<path d="M124.912 319.28H115.925C115.565 319.28 115.273 319.572 115.273 319.932V378.299C115.273 378.659 115.565 378.951 115.925 378.951H124.912C125.273 378.951 125.565 378.659 125.565 378.299V319.932C125.565 319.572 125.273 319.28 124.912 319.28Z" fill="#EA4722"/>
<path d="M150.775 334.715H141.788C141.427 334.715 141.135 335.007 141.135 335.367V378.299C141.135 378.659 141.427 378.951 141.788 378.951H150.775C151.135 378.951 151.427 378.659 151.427 378.299V335.367C151.427 335.007 151.135 334.715 150.775 334.715Z" fill="#EA4722"/>
<path d="M175.856 289.191H166.869C166.508 289.191 166.216 289.483 166.216 289.843V378.299C166.216 378.659 166.508 378.951 166.869 378.951H175.856C176.216 378.951 176.508 378.659 176.508 378.299V289.843C176.508 289.483 176.216 289.191 175.856 289.191Z" fill="#EA4722"/>
<path d="M382.343 275.756H250.542C249.888 275.756 249.357 276.286 249.357 276.94V294.785C249.357 295.439 249.888 295.969 250.542 295.969H382.343C382.997 295.969 383.528 295.439 383.528 294.785V276.94C383.528 276.286 382.997 275.756 382.343 275.756Z" fill="#C6C6C6"/>
<path d="M374.695 288.625H257.023C256.914 288.625 256.825 288.714 256.825 288.823V291.508C256.825 291.617 256.914 291.705 257.023 291.705H374.695C374.804 291.705 374.893 291.617 374.893 291.508V288.823C374.893 288.714 374.804 288.625 374.695 288.625Z" fill="#A4A4A4"/>
<path d="M319.734 290.17C319.734 291.988 318.258 293.464 316.438 293.464C314.618 293.464 313.142 291.988 313.142 290.17C313.142 288.351 314.618 286.875 316.438 286.875C318.258 286.875 319.734 288.351 319.734 290.17Z" fill="#B6B6B6"/>
<path d="M293.992 280.672H256.997C256.902 280.672 256.825 280.749 256.825 280.843V283.229C256.825 283.323 256.902 283.4 256.997 283.4H293.992C294.087 283.4 294.164 283.323 294.164 283.229V280.843C294.164 280.749 294.087 280.672 293.992 280.672Z" fill="#A4A4A4"/>
<path d="M382.343 312.185H250.542C249.888 312.185 249.357 312.715 249.357 313.369V331.214C249.357 331.868 249.888 332.398 250.542 332.398H382.343C382.997 332.398 383.528 331.868 383.528 331.214V313.369C383.528 312.715 382.997 312.185 382.343 312.185Z" fill="#C6C6C6"/>
<path d="M374.695 325.063H257.023C256.914 325.063 256.825 325.151 256.825 325.26V327.945C256.825 328.054 256.914 328.143 257.023 328.143H374.695C374.804 328.143 374.893 328.054 374.893 327.945V325.26C374.893 325.151 374.804 325.063 374.695 325.063Z" fill="#A4A4A4"/>
<path d="M290.018 326.599C290.018 328.417 288.542 329.893 286.722 329.893C284.902 329.893 283.426 328.417 283.426 326.599C283.426 324.78 284.902 323.304 286.722 323.304C288.542 323.304 290.018 324.78 290.018 326.599Z" fill="#919191"/>
<path d="M293.992 317.109H256.997C256.902 317.109 256.825 317.186 256.825 317.281V319.666C256.825 319.761 256.902 319.838 256.997 319.838H293.992C294.087 319.838 294.164 319.761 294.164 319.666V317.281C294.164 317.186 294.087 317.109 293.992 317.109Z" fill="#A4A4A4"/>
<path d="M382.343 348.622H250.542C249.888 348.622 249.357 349.152 249.357 349.806V367.652C249.357 368.305 249.888 368.836 250.542 368.836H382.343C382.997 368.836 383.528 368.305 383.528 367.652V349.806C383.528 349.152 382.997 348.622 382.343 348.622Z" fill="#C6C6C6"/>
<path d="M374.695 361.5H257.023C256.914 361.5 256.825 361.588 256.825 361.697V364.383C256.825 364.492 256.914 364.58 257.023 364.58H374.695C374.804 364.58 374.893 364.492 374.893 364.383V361.697C374.893 361.588 374.804 361.5 374.695 361.5Z" fill="#A4A4A4"/>
<path d="M366.695 363.036C366.695 364.855 365.219 366.33 363.399 366.33C361.579 366.33 360.103 364.855 360.103 363.036C360.103 361.217 361.579 359.741 363.399 359.741C365.219 359.741 366.695 361.217 366.695 363.036Z" fill="#4B4B4B"/>
<path d="M293.992 353.547H256.997C256.902 353.547 256.825 353.623 256.825 353.718V356.103C256.825 356.198 256.902 356.275 256.997 356.275H293.992C294.087 356.275 294.164 356.198 294.164 356.103V353.718C294.164 353.623 294.087 353.547 293.992 353.547Z" fill="#A4A4A4"/>
<path d="M533.448 276.391H502.711C501.44 276.391 500.41 277.42 500.41 278.69V288.102C500.41 289.372 501.44 290.401 502.711 290.401H533.448C534.719 290.401 535.749 289.372 535.749 288.102V278.69C535.749 277.42 534.719 276.391 533.448 276.391Z" fill="#EAEAEA"/>
<path d="M534.693 283.4C534.693 286.918 531.843 289.767 528.324 289.767C524.805 289.767 521.955 286.918 521.955 283.4C521.955 279.883 524.805 277.034 528.324 277.034C531.843 277.034 534.693 279.883 534.693 283.4Z" fill="#32A981"/>
<path d="M490.145 318.122H417.527C417.257 318.122 417.038 318.341 417.038 318.611V325.346C417.038 325.616 417.257 325.835 417.527 325.835H490.145C490.415 325.835 490.634 325.616 490.634 325.346V318.611C490.634 318.341 490.415 318.122 490.145 318.122Z" fill="#EA4722"/>
<path d="M533.448 314.973H502.711C501.44 314.973 500.41 316.003 500.41 317.272V326.684C500.41 327.954 501.44 328.984 502.711 328.984H533.448C534.719 328.984 535.749 327.954 535.749 326.684V317.272C535.749 316.003 534.719 314.973 533.448 314.973Z" fill="#EAEAEA"/>
<path d="M514.17 321.974C514.17 325.492 511.32 328.34 507.801 328.34C504.281 328.34 501.432 325.492 501.432 321.974C501.432 318.456 504.281 315.608 507.801 315.608C511.32 315.608 514.17 318.456 514.17 321.974Z" fill="#32A981"/>
<path d="M490.145 354.559H417.527C417.257 354.559 417.038 354.778 417.038 355.048V361.783C417.038 362.053 417.257 362.272 417.527 362.272H490.145C490.415 362.272 490.634 362.053 490.634 361.783V355.048C490.634 354.778 490.415 354.559 490.145 354.559Z" fill="#EA4722"/>
<path d="M533.448 351.411H502.711C501.44 351.411 500.41 352.44 500.41 353.71V363.122C500.41 364.392 501.44 365.421 502.711 365.421H533.448C534.719 365.421 535.749 364.392 535.749 363.122V353.71C535.749 352.44 534.719 351.411 533.448 351.411Z" fill="#EAEAEA"/>
<path d="M534.693 358.411C534.693 361.929 531.843 364.778 528.324 364.778C524.805 364.778 521.955 361.929 521.955 358.411C521.955 354.894 524.805 352.045 528.324 352.045C531.843 352.045 534.693 354.894 534.693 358.411Z" fill="#32A981"/>
<path d="M350.232 189.926C347.906 189.523 343.657 185.413 344.893 180.222C345.622 177.159 347.176 174.989 346.464 170.622C350.283 172.175 352.369 173.668 354.489 177.297C356.738 181.14 355.202 189.377 352.944 189.789C350.567 190.226 350.97 190.046 350.232 189.917V189.926Z" fill="#FFD600"/>
<path d="M355.129 188.027L347.898 189.553L357.789 236.386L365.02 234.86L355.129 188.027Z" fill="#F9626D"/>
<path d="M372.936 209.822C372.678 209.436 366.309 200.65 362.481 200.135C358.653 199.629 347.314 202.049 347.691 204.974C348.078 207.909 347.949 214.532 350.241 215.038C352.532 215.544 358.55 214.403 361.348 218.865C364.138 223.326 372.936 209.822 372.936 209.822Z" fill="#F1C48A"/>
<path d="M393.21 499.571C393.596 500.077 396.146 510.27 396.146 510.27C396.146 510.27 407.871 507.593 407.871 507.216C407.871 506.838 404.815 495.745 404.815 495.745L393.219 499.571H393.21Z" fill="#F1C48A"/>
<path d="M334.309 475.617C334.695 476.003 339.408 484.282 339.408 484.282L350.498 479.057L345.27 468.994L334.309 475.617Z" fill="#F1C48A"/>
<path d="M330.49 357.245C330.49 357.245 330.49 370.749 326.155 374.824C321.82 378.9 296.07 402.348 294.284 410.498C292.499 418.649 305.245 440.141 314.421 454.589C322.473 467.261 327.168 478.285 333.546 477.016C339.923 475.746 346.55 472.425 347.314 467.587C348.078 462.748 334.095 438.845 330.49 433.44C324.885 425.049 320.705 419.387 322.816 416.126C324.928 412.858 337.374 404.904 337.374 404.904L361.597 407.452C361.597 407.452 366.953 434.04 370.773 442.706C374.601 451.371 376.378 463.005 378.927 472.691C381.476 482.378 384.833 498.662 388.36 500.721C391.845 502.754 405.699 501.999 408.755 496.131C411.811 490.271 397.03 453.576 393.966 440.321C390.91 427.065 387.588 404.389 387.588 404.389C387.588 404.389 386.06 371.264 382.489 364.632C378.919 358.008 374.584 354.182 367.7 355.203C360.816 356.224 330.473 357.245 330.473 357.245H330.49Z" fill="#24252B"/>
<path d="M309.073 397.14C308.73 397.14 308.447 396.865 308.447 396.513C308.447 387.874 302.284 381.353 294.112 381.353C285.941 381.353 279.675 387.865 279.675 396.513C279.675 396.856 279.4 397.14 279.048 397.14C278.696 397.14 278.421 396.865 278.421 396.513C278.421 387.316 285.305 380.109 294.104 380.109C302.902 380.109 309.683 387.162 309.683 396.513C309.683 396.856 309.4 397.14 309.056 397.14H309.073Z" fill="#444444"/>
<path d="M309.889 396.513H278.344V431.552H309.889V396.513Z" fill="#444444"/>
<path d="M304.352 410.996C302.344 410.996 300.713 409.366 300.713 407.358V396.548C300.713 396.548 300.73 396.531 300.739 396.522H307.966C307.966 396.522 307.983 396.539 307.992 396.548V407.358C307.992 409.366 306.361 410.996 304.352 410.996Z" fill="#FFAE1E"/>
<path d="M297.134 402.579C295.125 402.579 293.494 400.949 293.494 398.941V396.548L293.52 396.522H300.756L300.782 396.548V398.941C300.782 400.949 299.151 402.579 297.142 402.579H297.134Z" fill="#FFAE1E"/>
<path d="M291.4 371.684C291.4 371.684 286.473 382.597 289.443 384.382C292.421 386.166 300.49 386.673 301.683 385.403C302.876 384.133 302.044 383.078 302.662 381.242C303.64 378.29 305.039 375.039 305.039 375.039L291.4 371.684Z" fill="#F1C48A"/>
<path d="M333.932 271.878C334.06 272.384 337.245 285.253 335.846 290.736C334.447 296.218 348.086 291.371 348.086 291.371L345.03 272.513L333.94 271.878H333.932Z" fill="#F1C48A"/>
<path d="M346.172 286.232C346.172 286.232 335.846 287.759 331.254 288.522C326.661 289.286 323.477 292.066 318.121 293.344C312.765 294.614 310.747 299.375 309.074 308.573C308.009 314.398 307.022 321.116 302.851 338.112C301.082 345.319 282.559 370.071 287.992 372.877C291.263 374.558 294.791 372.199 299.889 376.952C304.988 381.705 306.808 381.696 308.859 379.878C312.636 376.523 313.589 365.781 315.185 359.613C318.078 348.459 322.662 323.69 324.91 324.634C328.301 326.049 329.803 335.161 328.782 340.257C327.76 345.353 326.773 353.452 328.782 357.922C330.988 362.847 373.768 359.021 373.768 359.021C373.768 359.021 379.09 359.964 378.412 365.395C377.734 370.835 379.768 377.287 382.489 371.169C385.21 365.052 388.266 353.839 382.489 345.345C376.712 336.851 378.069 319.186 378.069 319.186L390.644 293.344C390.644 293.344 398.103 257.893 399.141 251.656C400.498 243.505 378.79 206.467 374.069 206.467C365.794 206.467 360.035 214.112 357.116 220.486C353.768 227.788 361.683 226.543 365.245 227.187C370.858 228.208 380.953 245.882 379.519 252.763C378.189 259.12 374.326 277.738 374.326 277.738L346.155 286.232H346.172Z" fill="#32A981"/>
<path d="M337.88 238.752C326.009 241.172 322.266 254.504 326.747 264.997C331.168 275.361 340.172 275.953 340.687 282.328C341.193 288.702 338.395 297.359 345.279 300.422C352.163 303.477 358.541 303.76 360.575 311.773C362.618 319.786 363.124 324.376 374.601 324.625C386.077 324.883 401.373 306.788 397.038 297.359C392.703 287.93 376.892 286.146 376.386 278.501C375.88 270.857 373.837 262.449 366.695 258.88C359.554 255.311 359.099 253.904 356.841 248.181C354.292 241.729 346.644 236.968 337.889 238.752H337.88Z" fill="#24252B"/>
<path d="M387.261 407.873H325.219C322.026 407.873 319.442 405.29 319.442 402.099C319.442 398.907 322.026 396.324 325.219 396.324H387.261C390.455 396.324 393.038 398.907 393.038 402.099C393.038 405.29 390.455 407.873 387.261 407.873Z" fill="#444444"/>
<path d="M356.24 518.669C355.845 518.669 355.528 518.352 355.528 517.957V407.873C355.528 407.478 355.845 407.161 356.24 407.161C356.635 407.161 356.953 407.478 356.953 407.873V517.957C356.953 518.352 356.635 518.669 356.24 518.669Z" fill="#444444"/>
<path d="M319.442 518.669C319.442 518.669 319.4 518.669 319.382 518.669C318.996 518.635 318.704 518.292 318.739 517.897L328.764 405.771C328.799 405.385 329.142 405.11 329.537 405.127C329.923 405.162 330.215 405.505 330.181 405.899L320.155 518.026C320.121 518.395 319.812 518.669 319.451 518.669H319.442Z" fill="#444444"/>
<path d="M393.202 518.669C392.841 518.669 392.532 518.395 392.498 518.026L382.472 405.899C382.438 405.513 382.721 405.162 383.116 405.127C383.494 405.093 383.854 405.376 383.888 405.771L393.914 517.897C393.948 518.283 393.665 518.635 393.27 518.669C393.244 518.669 393.227 518.669 393.202 518.669Z" fill="#444444"/>
<path d="M390.91 494.046H321.64C321.245 494.046 320.928 493.728 320.928 493.334C320.928 492.939 321.245 492.622 321.64 492.622H390.91C391.305 492.622 391.622 492.939 391.622 493.334C391.622 493.728 391.305 494.046 390.91 494.046Z" fill="#444444"/>
<path d="M350.292 478.654C350.292 478.997 357.64 487.234 352.301 490.605C347.331 493.746 332.189 504.796 330.061 502.419C328.035 500.154 339.408 484.282 339.408 484.282L350.292 478.654Z" fill="#24252B"/>
<path d="M396.137 510.278C396.309 510.536 396.137 520.428 401.742 519.347C406.806 518.369 427.021 515.418 427.021 512.612C427.021 509.026 407.854 507.216 407.854 507.216L396.128 510.27L396.137 510.278Z" fill="#24252B"/>
<path d="M326.747 264.997C328.104 267.545 330.086 269.621 332.078 271.672C334.052 273.74 336.095 275.816 337.649 278.338C338.421 279.591 339.056 280.972 339.4 282.439C339.726 283.906 339.794 285.451 339.588 286.935C339.228 289.775 338.807 292.615 338.713 295.42C338.636 298.191 338.885 301.048 340.515 303.193C341.297 304.266 342.361 305.141 343.537 305.862C344.138 306.23 344.713 306.505 345.391 306.874C346.069 307.217 346.696 307.672 347.271 308.169C349.563 310.237 350.696 313.163 351.193 316.011C351.64 318.894 351.58 321.82 351.048 324.642C351.245 321.785 351.108 318.903 350.464 316.148C349.854 313.42 348.618 310.76 346.507 309.053C345.966 308.65 345.434 308.238 344.824 307.955C344.232 307.646 343.511 307.32 342.885 306.943C341.606 306.179 340.387 305.227 339.46 303.991C337.528 301.503 337.176 298.251 337.314 295.377C337.46 292.452 337.923 289.603 338.327 286.772C338.764 284.052 338.121 281.307 336.739 278.879C334.018 273.988 329.031 270.385 326.739 265.014L326.747 264.997Z" fill="#24252B"/>
<path d="M345.734 300.619C348.644 301.005 351.468 302.232 353.82 304.103C354.996 305.038 356.06 306.127 356.936 307.372C357.374 307.998 357.777 308.607 358.137 309.319C358.481 310.04 358.713 310.795 358.884 311.541C359.511 314.553 359.21 317.487 359.725 320.249C359.983 321.614 360.438 322.943 361.339 324.007C362.198 325.105 363.476 325.843 364.816 326.418C363.373 326.161 361.957 325.543 360.816 324.496C359.674 323.441 358.996 321.965 358.618 320.498C357.863 317.547 358.077 314.553 357.502 311.841C357.365 311.164 357.168 310.512 356.893 309.911C356.601 309.328 356.223 308.701 355.854 308.118C355.09 306.943 354.146 305.887 353.116 304.918C351.03 303.013 348.507 301.512 345.726 300.619H345.734Z" fill="#24252B"/>
<path d="M333.932 240.091C328.971 243.205 325.983 248.722 325.589 254.367C325.34 257.215 325.391 260.081 326.009 262.852C326.584 265.632 327.674 268.292 328.876 270.891C329.477 272.195 330.147 273.474 330.816 274.752C331.494 276.013 332.241 277.283 332.842 278.664C334.095 281.358 334.679 284.516 334.009 287.493C333.7 288.977 333.108 290.367 332.43 291.671C331.777 293.001 330.936 294.176 330.704 295.566C330.112 298.372 331.709 301.237 333.915 303.056C332.73 302.215 331.7 301.117 330.996 299.822C330.284 298.526 329.958 296.982 330.181 295.48C330.37 293.953 331.159 292.623 331.734 291.336C332.335 290.032 332.825 288.694 333.048 287.313C333.511 284.55 332.876 281.727 331.692 279.179C331.116 277.901 330.37 276.674 329.649 275.387C328.945 274.1 328.25 272.813 327.614 271.483C326.327 268.841 325.297 266.035 324.722 263.11C324.129 260.193 324.069 257.164 324.456 254.238C324.808 251.287 325.829 248.396 327.426 245.899C329.091 243.462 331.28 241.335 333.932 240.082V240.091Z" fill="#24252B"/>
<path d="M352.481 181.055C350.507 180.291 349.296 180.737 347.125 182.582C345.906 183.62 345.099 182.77 344.721 181.269C344.232 185.962 348.06 189.557 350.232 189.926C350.97 190.054 350.567 190.235 352.945 189.797C354.816 189.454 356.189 183.723 355.314 179.587C354.447 180.574 353.391 181.406 352.472 181.055H352.481Z" fill="#4C4372"/>
<path d="M83.934 16.7217C83.6164 6.54633 87.6936 4.29849 88.6035 4.0411C89.7709 3.71508 90.8782 10.4672 94.0541 12.4491C97.5305 9.84089 109.934 10.3213 112.131 11.5997C115.11 9.77225 116.303 3.20888 118.492 3.38905C120.68 3.56922 123.23 13.9848 122.586 15.8208C131.187 5.55968 141.83 0.386202 155.41 0.00870107C171.942 -0.454596 186.027 12.1488 187.418 30.1487C188.645 46.0724 189.572 71.6052 182.774 71.8883C175.976 72.1715 176.405 46.0896 176.405 46.0896C176.405 46.0896 110.449 47.1534 104.32 46.8789C94.6635 46.4413 83.5993 41.6883 82.2431 30.1058C81.3418 22.3585 83.934 16.7217 83.934 16.7217Z" fill="#444444"/>
<path d="M92.8268 26.8798C91.4105 26.9227 89.917 26.5366 88.6895 25.2582C88.535 25.0952 88.535 24.8378 88.6981 24.6748C88.8612 24.5204 89.1187 24.5204 89.2818 24.6834C92.226 27.7463 97.1186 24.7349 97.1701 24.7091C97.359 24.589 97.6165 24.6491 97.7366 24.8378C97.8568 25.0266 97.7967 25.284 97.6079 25.4041C97.5736 25.4298 95.3332 26.8111 92.8354 26.8798H92.8268Z" fill="white"/>
<path d="M111.127 26.2535C108.449 26.3307 106.371 24.8379 106.346 24.8121C106.165 24.6749 106.122 24.4175 106.26 24.2373C106.397 24.0571 106.655 24.0142 106.835 24.1515C107.007 24.2716 111.041 27.1543 114.946 23.9284C115.118 23.7912 115.384 23.8083 115.521 23.9799C115.667 24.1515 115.642 24.4175 115.47 24.5547C113.994 25.773 112.483 26.2106 111.135 26.2449L111.127 26.2535Z" fill="white"/>
<path d="M113.015 31.3067C112.843 31.3067 112.68 31.2038 112.62 31.0322C112.543 30.8177 112.655 30.5861 112.869 30.5088L118.277 28.587C118.491 28.5184 118.723 28.6213 118.8 28.8358C118.878 29.0503 118.766 29.282 118.551 29.3592L113.144 31.281C113.144 31.281 113.058 31.3067 113.015 31.3067Z" fill="white"/>
<path d="M118.56 34.2496C118.56 34.2496 118.5 34.2496 118.466 34.2496L112.972 33.1085C112.749 33.0657 112.612 32.8426 112.655 32.6281C112.698 32.405 112.912 32.2592 113.135 32.3106L118.629 33.4517C118.852 33.4946 118.99 33.7177 118.947 33.9322C118.904 34.1209 118.741 34.2496 118.56 34.2582V34.2496Z" fill="white"/>
<path d="M91.9597 33.0484C91.9597 33.0484 91.8738 33.0484 91.8309 33.0313L86.2859 31.4012C86.0713 31.3411 85.9426 31.1095 86.0112 30.895C86.0713 30.6805 86.3031 30.5604 86.5177 30.6204L92.0627 32.2505C92.2772 32.3106 92.406 32.5422 92.3373 32.7567C92.2858 32.9283 92.1313 33.0484 91.9511 33.0484H91.9597Z" fill="white"/>
<path d="M86.552 36.3173C86.3631 36.3173 86.1915 36.1972 86.1485 36.017C86.0884 35.8025 86.2172 35.5709 86.4404 35.5194L91.8995 34.0609C92.1227 34.0008 92.3459 34.1295 92.3974 34.3526C92.4575 34.5671 92.3287 34.7987 92.1056 34.8502L86.6464 36.3087C86.6464 36.3087 86.5863 36.3173 86.552 36.3259V36.3173Z" fill="white"/>
<path d="M104.646 30.4832C104.689 31.5042 103.599 32.3793 102.861 32.405C102.269 32.4308 100.972 31.6415 100.938 30.6205C100.895 29.5995 101.728 29.4451 102.749 29.4022C103.771 29.3593 104.612 29.4537 104.646 30.4832Z" fill="white"/>
<path d="M100.938 36.1714C100.775 36.1714 100.612 36.1542 100.44 36.1199C100.217 36.0684 100.08 35.8453 100.131 35.6309C100.183 35.4078 100.398 35.2791 100.621 35.322C100.938 35.3992 101.196 35.3477 101.419 35.159C102.32 34.404 102.423 31.8473 102.38 30.9207C102.372 30.6976 102.543 30.5003 102.775 30.4917C102.998 30.4917 103.187 30.6633 103.196 30.8864C103.213 31.2724 103.316 34.6442 101.934 35.7939C101.642 36.0341 101.299 36.1714 100.921 36.18L100.938 36.1714Z" fill="white"/>
<path d="M104.947 36.0598C104.569 36.0684 104.217 35.9569 103.917 35.7338C102.475 34.6699 102.389 31.2896 102.389 30.9121C102.389 30.689 102.595 30.4831 102.792 30.5003C103.015 30.5003 103.204 30.6804 103.204 30.9035C103.213 31.8301 103.462 34.3868 104.406 35.0818C104.638 35.2534 104.895 35.2962 105.213 35.2019C105.436 35.1418 105.659 35.2619 105.719 35.485C105.779 35.6995 105.659 35.9311 105.436 35.9912C105.264 36.0427 105.101 36.0684 104.947 36.0684V36.0598Z" fill="white"/>
<path d="M441.286 70.6873C441.286 70.6873 434.377 93.3803 436.849 97.3783C439.321 101.368 463.681 124.953 464.436 128.376C465.2 131.8 462.522 138.637 464.23 139.204C465.835 139.736 466.788 130.255 467.861 130.658C468.368 130.847 466.72 140.739 468.625 140.739C471.286 140.739 469.501 130.315 470.848 130.212C471.732 130.152 470.72 139.401 472.625 139.401C475.286 139.401 472.265 129.612 473.578 129.389C474.659 129.2 475.801 135.918 477.26 135.283C479.604 134.262 475.106 123.615 471.87 119.436C469.398 116.245 452.84 98.4508 453.604 91.6043C454.213 86.1219 457.913 73.0896 457.913 73.0896L441.295 70.6787L441.286 70.6873Z" fill="#F1A36D"/>
<path d="M507.955 68.5422C508.144 69.6146 512.196 83.6937 510.29 89.013C509.114 92.299 496.213 122.104 494.874 124.961C493.544 127.818 489.157 137.977 491.071 138.654C492.848 139.289 494.307 130.572 495.449 130.761C496.591 130.95 493.612 138.277 495.26 138.654C497.209 139.109 497.346 130.856 498.685 131.044C500.024 131.233 498.179 138.689 500.016 138.689C502.11 138.689 500.101 130.229 501.818 130.041C502.719 129.938 501.732 136.758 503.44 136.372C505.054 136.012 503.818 126.866 507.5 121.186C510.488 116.579 528.153 94.3324 527.311 84.8262C526.47 75.32 525.706 65.3506 525.706 65.3506L507.955 68.5336V68.5422Z" fill="#F1A36D"/>
<path d="M472.788 47.4966C472.788 47.4966 470.694 55.5786 465.767 60.4174C462.033 64.0895 463.08 75.8521 459.106 75.8864C454.351 75.9293 436.771 77.7053 437.93 69.8035C439.269 60.6748 443.819 53.0047 445.724 44.8284C447.63 36.652 449.235 16.9448 470.694 16.6788C492.058 16.4128 497.861 18.2145 505.723 19.3299C515.62 20.7369 518.539 26.185 521.577 37.2183C524.625 48.2516 530.35 65.0504 527.303 66.7577C524.255 68.4651 507.749 73.9817 504.324 70.5585C500.899 67.1352 500.136 45.0686 492.651 43.6787C485.578 42.3574 474.299 39.7921 474.299 39.7921L472.78 47.488L472.788 47.4966Z" fill="#EA4722"/>
<path d="M465.767 42.2887C465.767 42.2887 467.166 57.2515 468.934 60.5461C470.711 63.8406 476.041 68.6623 479.715 68.5336C483.398 68.4049 489.732 62.5708 490.874 58.6414C492.016 54.7119 492.651 43.6786 492.651 43.6786L467.406 33.7864L465.758 42.2801L465.767 42.2887Z" fill="#F1A36D"/>
<path d="M470.711 31.8905C471.072 22.5988 478.059 17.717 487.733 19.5359C497.475 21.3633 500.007 33.1603 511.938 32.5254C523.861 31.8905 549.715 30.7494 544.539 49.2641C539.715 66.509 532.359 64.8103 525.698 56.8656C520.934 51.1773 516.187 55.5873 505.913 55.5873C497.526 55.5873 496.402 48.1316 488.024 48.3204C480.29 48.4919 470.205 44.9572 470.711 31.8991V31.8905Z" fill="#24252B"/>
<path d="M473.63 35.6999C472.866 36.1975 472.625 50.9887 467.553 55.5788C453.467 52.5588 460.557 34.0526 464.119 28.862C467.286 24.2462 471.346 21.9983 475.535 25.1728C480.179 28.699 473.63 35.6999 473.63 35.6999Z" fill="#24252B"/>
<path d="M477.149 45.6436C481.08 47.634 485.475 47.797 489.69 49.3842C490.213 49.5987 490.737 49.8561 491.243 50.1907C491.492 50.3537 491.715 50.594 491.947 50.7913C492.127 51.0144 492.333 51.2289 492.497 51.4519L494.462 54.0687C495.767 55.7589 497.235 57.2946 499.046 58.2727C500.831 59.2765 502.917 59.6283 504.986 59.4395C507.132 59.2593 509.32 58.9676 511.518 58.9161C513.715 58.8561 515.938 58.8561 518.127 59.3365C520.29 59.7998 522.402 60.8895 523.732 62.6397C522.179 61.0954 520.127 60.2117 518.007 59.9714C515.895 59.6368 513.732 59.7484 511.578 59.9285C509.423 60.1259 507.286 60.409 505.106 60.6835C502.848 60.9323 500.445 60.5548 498.411 59.4309C496.376 58.2984 494.788 56.6082 493.466 54.8237L491.578 52.164C491.424 51.9495 491.26 51.7608 491.097 51.5549C490.917 51.4004 490.78 51.2289 490.574 51.083C490.188 50.7913 489.741 50.5339 489.269 50.3108C487.363 49.4357 485.218 48.9295 483.132 48.2775C481.063 47.5997 478.943 46.8876 477.132 45.6436H477.149Z" fill="#24252B"/>
<path d="M493.355 21.9983C496.642 24.5722 500.05 27.1031 503.93 28.3986C505.853 29.0679 507.878 29.351 509.887 29.3252C511.913 29.3252 513.852 28.7762 516.015 28.4759C520.273 27.901 524.633 28.4501 528.651 29.7885C532.685 31.1098 536.436 33.1689 539.749 35.7342C536.161 33.5807 532.359 31.7962 528.376 30.698C524.393 29.6341 520.247 29.1794 516.187 29.7628C514.221 30.0631 512.076 30.6293 509.895 30.6036C507.724 30.6208 505.552 30.2089 503.552 29.4282C499.535 27.8067 496.239 25.0183 493.346 22.0069L493.355 21.9983Z" fill="#24252B"/>
<path d="M476.677 26.4425C475.681 25.0869 474.196 24.126 472.617 23.7314C471.029 23.3453 469.363 23.5169 467.87 24.1689C466.342 24.7523 465.149 25.8677 464.119 27.1031C463.097 28.3558 462.299 29.7971 461.638 31.29C460.308 34.3014 459.69 37.5702 459.406 40.8991C459.115 44.2108 459.355 47.5826 460.522 50.7742C459.69 49.2985 459.132 47.6598 458.771 45.9782C458.454 44.288 458.359 42.5635 458.376 40.8476C458.445 37.4415 458.994 33.9411 460.436 30.7666C461.149 29.188 462.033 27.6522 463.218 26.3396C464.359 25.0011 465.887 23.9373 467.561 23.3796C469.2 22.7705 471.089 22.6589 472.745 23.2509C474.393 23.8257 475.844 24.9497 476.66 26.4425H476.677Z" fill="#24252B"/>
</g>
<defs>
<clipPath id="clip0_13_4866">
<rect width="614.809" height="545" fill="white" transform="translate(0.595703)"/>
</clipPath>
</defs>
</svg>
