<svg width="50" height="42" viewBox="0 0 50 42" fill="none" xmlns="http://www.w3.org/2000/svg">
<path d="M23.7621 35.2653L21.5656 33.0688L21.5656 33.0688C21.2447 32.7478 21.1104 32.2903 21.2071 31.8467C21.3038 31.4033 21.6162 31.0433 22.0415 30.885L34.4294 26.2746C34.9559 26.0786 35.5333 26.2043 35.9308 26.6019L23.7621 35.2653ZM23.7621 35.2653L23.0664 35.9611H14.1308C13.6043 35.9611 13.1778 36.3882 13.1778 36.9145C13.1778 37.441 13.6045 37.8676 14.1309 37.8676H21.2599C20.9902 38.401 21.0778 39.0701 21.5229 39.5153L21.523 39.5154L23.0174 41.0097L23.0175 41.0098C23.2949 41.287 23.6594 41.4254 24.0229 41.4254C24.3861 41.4254 24.7506 41.2872 25.0281 41.0099L25.0281 41.0098L27.2673 38.7707L29.4637 40.967C29.4637 40.967 29.4638 40.9671 29.4638 40.9671C29.7845 41.288 30.2423 41.4224 30.6857 41.3256C31.1292 41.2288 31.4894 40.9165 31.6476 40.4909L32.6239 37.8674H45.3938C47.5203 37.8674 49.25 36.1378 49.25 34.0112V18.8433C49.25 18.3168 48.8234 17.8901 48.2969 17.8901C47.7704 17.8901 47.3438 18.3168 47.3438 18.8433V34.0112C47.3438 35.0862 46.4689 35.9611 45.3938 35.9611H33.3334L36.2579 28.1032C36.4539 27.5766 36.3281 26.9993 35.9308 26.6019L23.7621 35.2653ZM24.0228 39.319L26.5932 36.7485L26.5933 36.7484C26.7794 36.5625 27.0237 36.4694 27.2673 36.4694C27.5107 36.4694 27.7551 36.5625 27.9412 36.7484L27.9413 36.7485L30.1751 38.9823L34.1022 28.4304L23.5504 32.3576L25.7842 34.5914L25.7842 34.5914C26.1564 34.9637 26.1565 35.5672 25.7841 35.9394L23.2136 38.5098L24.0228 39.319Z" fill="#EA4722" stroke="#EA4722" stroke-width="0.5"/>
<path d="M4.60623 0.75H7.06454C7.59102 0.75 8.01766 1.17665 8.01766 1.70312C8.01766 2.2296 7.59102 2.65625 7.06454 2.65625H4.60623C3.53127 2.65625 2.6563 3.53114 2.6563 4.60618V8.76159H47.3438V4.60618C47.3438 3.53122 46.4689 2.65625 45.3938 2.65625H10.3164C9.78996 2.65625 9.36332 2.2296 9.36332 1.70312C9.36332 1.17665 9.78996 0.75 10.3164 0.75H45.3938C47.5203 0.75 49.25 2.47968 49.25 4.60618V15.6792C49.25 16.2057 48.8234 16.6323 48.2969 16.6323C47.7704 16.6323 47.3438 16.2057 47.3438 15.6792V10.6679H2.6563V34.0112C2.6563 35.0862 3.53118 35.9612 4.60623 35.9612H10.7618C11.2882 35.9612 11.7149 36.3878 11.7149 36.9143C11.7149 37.4408 11.2882 37.8674 10.7618 37.8674H4.60623C2.47972 37.8674 0.750046 36.1377 0.750046 34.0112V4.60618C0.750046 2.47968 2.47972 0.75 4.60623 0.75Z" fill="#EA4722" stroke="#EA4722" stroke-width="0.5"/>
<path d="M44.5908 5.70899C44.5908 6.56639 43.8958 7.26146 43.0384 7.26146C42.1811 7.26146 41.4861 6.56639 41.4861 5.70899C41.4861 4.85156 42.1811 4.15662 43.0384 4.15662C43.8958 4.15662 44.5908 4.85156 44.5908 5.70899Z" fill="#EA4722" stroke="#EA4722" stroke-width="0.5"/>
<path d="M40.5843 5.70899C40.5843 6.56639 39.8892 7.26146 39.0319 7.26146C38.1746 7.26146 37.4795 6.56639 37.4795 5.70899C37.4795 4.85156 38.1746 4.15662 39.0319 4.15662C39.8892 4.15662 40.5843 4.85156 40.5843 5.70899Z" fill="#EA4722" stroke="#EA4722" stroke-width="0.5"/>
<path d="M36.5778 5.70899C36.5778 6.56639 35.8828 7.26146 35.0254 7.26146C34.1681 7.26146 33.4731 6.56639 33.4731 5.70899C33.4731 4.85156 34.1681 4.15662 35.0254 4.15662C35.8828 4.15662 36.5778 4.85156 36.5778 5.70899Z" fill="#EA4722" stroke="#EA4722" stroke-width="0.5"/>
<path d="M40.393 26.1478H40.3945C40.7994 26.1454 41.1588 25.8875 41.2903 25.5044L40.393 26.1478ZM40.393 26.1478H40.3889C39.9861 26.1478 39.6265 25.8945 39.4912 25.5147C39.4912 25.5147 39.4912 25.5146 39.4912 25.5146L37.9902 21.3026L36.5574 25.5026L36.3208 25.4218L36.5574 25.5026C36.4262 25.8871 36.0655 26.1461 35.6593 26.1479H35.6582H35.6553C35.2505 26.1479 34.8899 25.8922 34.7558 25.51L34.7558 25.51L32.3948 18.7744C32.3948 18.7744 32.3948 18.7744 32.3948 18.7744C32.2207 18.2777 32.4823 17.7339 32.9791 17.5597C33.4756 17.3855 34.0197 17.6471 34.1939 18.1439L34.1939 18.1439L35.6432 22.2785L37.0672 18.104C37.2011 17.6713 37.597 17.4668 37.9643 17.4644C38.3315 17.462 38.7301 17.6613 38.8696 18.0918L40.3727 22.3095L41.7995 18.1572C41.7995 18.1572 41.7995 18.1572 41.7995 18.1572C41.9705 17.6595 42.5126 17.3941 43.0107 17.5656M40.393 26.1478L41.2904 25.5044L43.6022 18.7768C43.6022 18.7768 43.6022 18.7767 43.6022 18.7767C43.7734 18.2789 43.5084 17.7367 43.0107 17.5656M43.0107 17.5656C43.0107 17.5656 43.0107 17.5656 43.0106 17.5656L42.9294 17.802L43.0108 17.5657C43.0108 17.5657 43.0108 17.5657 43.0107 17.5656Z" fill="#EA4722" stroke="#EA4722" stroke-width="0.5"/>
<path d="M27.3836 26.1478H27.3851C27.7899 26.1454 28.1493 25.8875 28.2809 25.5046L28.2809 25.5045L30.5928 18.7769C30.5928 18.7769 30.5928 18.7769 30.5928 18.7769C30.764 18.279 30.499 17.7369 30.0013 17.5658M27.3836 26.1478L19.9697 17.5597C20.4662 17.3855 21.0103 17.6471 21.1845 18.1439L21.1845 18.144L22.6338 22.2785L24.0578 18.104C24.1917 17.6713 24.5876 17.4667 24.955 17.4644C25.3222 17.462 25.7207 17.6614 25.8602 18.0918L27.3633 22.3095L28.7901 18.1573C28.7901 18.1573 28.7901 18.1573 28.7901 18.1573C28.9611 17.6596 29.5034 17.3942 30.0013 17.5658M27.3836 26.1478H27.3795C26.9767 26.1478 26.617 25.8945 26.4818 25.5147L24.9808 21.3026M27.3836 26.1478L24.9808 21.3026M30.0013 17.5658C30.0013 17.5658 30.0013 17.5658 30.0012 17.5657L29.92 17.8021L30.0015 17.5658C30.0014 17.5658 30.0014 17.5658 30.0013 17.5658ZM24.9808 21.3026L23.548 25.5026L23.548 25.5026C23.4168 25.8871 23.0561 26.1462 22.6499 26.1479H22.6488H22.6459C22.2411 26.1479 21.8805 25.8922 21.7465 25.5101L21.7464 25.51L19.3854 18.7745C19.3854 18.7745 19.3854 18.7745 19.3854 18.7745C19.2113 18.2778 19.4729 17.7339 19.9697 17.5597L24.9808 21.3026Z" fill="#EA4722" stroke="#EA4722" stroke-width="0.5"/>
<path d="M14.5866 26.1478H14.5851H14.5812C14.1784 26.1478 13.8187 25.8945 13.6834 25.5147C13.6834 25.5147 13.6834 25.5146 13.6834 25.5146L12.1824 21.3026L10.7496 25.5026L10.513 25.4218L10.7496 25.5026C10.6184 25.8871 10.2578 26.1461 9.85155 26.1479H9.85046H9.84755C9.44273 26.1479 9.08211 25.8922 8.94808 25.51L8.94806 25.51L6.58716 18.7744C6.58716 18.7744 6.58716 18.7744 6.58716 18.7744C6.41304 18.2777 6.67463 17.7339 7.17142 17.5597C7.66805 17.3855 8.21202 17.6471 8.38622 18.1439L8.38623 18.1439L9.83543 22.2785L11.2594 18.104C11.3932 17.6713 11.7892 17.4668 12.1565 17.4644C12.5238 17.462 12.9224 17.6613 13.0618 18.0918L14.5649 22.3095L15.9918 18.1573C15.9918 18.1573 15.9918 18.1573 15.9918 18.1573C16.1629 17.6596 16.7045 17.3944 17.2029 17.5657L17.2029 17.5657C17.7007 17.7367 17.9657 18.279 17.7945 18.7768C17.7945 18.7768 17.7945 18.7769 17.7945 18.7769L15.4826 25.5045L15.4826 25.5045C15.3509 25.8875 14.9916 26.1454 14.5866 26.1478Z" fill="#EA4722" stroke="#EA4722" stroke-width="0.5"/>
</svg>
